<svg xmlns="http://www.w3.org/2000/svg" version="1.1" viewBox="0 0 600 600" width="600" height="600">
  <path fill="#222222" fill-rule="evenodd" d="M 168.0000 288.0000 L 150.0000 288.0000 L 149.7055 288.0036 L 149.4112 288.0145 L 149.1172 288.0325 L 148.8238 288.0578 L 148.5311 288.0902 L 148.2392 288.1299 L 147.9485 288.1767 L 147.6589 288.2306 L 147.3708 288.2916 L 147.0842 288.3596 L 146.7994 288.4347 L 146.5166 288.5167 L 146.2358 288.6057 L 145.9573 288.7015 L 145.6813 288.8041 L 145.4078 288.9134 L 145.1371 289.0295 L 144.8693 289.1521 L 144.6047 289.2813 L 144.3432 289.4169 L 144.0852 289.5590 L 143.8308 289.7073 L 143.5800 289.8618 L 143.3332 290.0224 L 143.0903 290.1890 L 142.8516 290.3615 L 142.6172 290.5398 L 142.3873 290.7239 L 142.1619 290.9135 L 141.9413 291.1086 L 141.7255 291.3090 L 141.5147 291.5147 L 141.3090 291.7255 L 141.1086 291.9413 L 140.9135 292.1619 L 140.7239 292.3873 L 140.5398 292.6172 L 140.3615 292.8516 L 140.1890 293.0903 L 140.0224 293.3332 L 139.8618 293.5800 L 139.7073 293.8308 L 139.5590 294.0852 L 139.4169 294.3432 L 139.2813 294.6047 L 139.1521 294.8693 L 139.0295 295.1371 L 138.9134 295.4078 L 138.8041 295.6813 L 138.7015 295.9573 L 138.6057 296.2358 L 138.5167 296.5166 L 138.4347 296.7994 L 138.3596 297.0842 L 138.2916 297.3708 L 138.2306 297.6589 L 138.1767 297.9485 L 138.1299 298.2392 L 138.0902 298.5311 L 138.0578 298.8238 L 138.0325 299.1172 L 138.0145 299.4112 L 138.0036 299.7055 L 138.0000 300.0000 L 138.0036 300.2945 L 138.0145 300.5888 L 138.0325 300.8828 L 138.0578 301.1762 L 138.0902 301.4689 L 138.1299 301.7608 L 138.1767 302.0515 L 138.2306 302.3411 L 138.2916 302.6292 L 138.3596 302.9158 L 138.4347 303.2006 L 138.5167 303.4834 L 138.6057 303.7642 L 138.7015 304.0427 L 138.8041 304.3187 L 138.9134 304.5922 L 139.0295 304.8629 L 139.1521 305.1307 L 139.2813 305.3953 L 139.4169 305.6568 L 139.5590 305.9148 L 139.7073 306.1692 L 139.8618 306.4200 L 140.0224 306.6668 L 140.1890 306.9097 L 140.3615 307.1484 L 140.5398 307.3828 L 140.7239 307.6127 L 140.9135 307.8381 L 141.1086 308.0587 L 141.3090 308.2745 L 141.5147 308.4853 L 141.7255 308.6910 L 141.9413 308.8914 L 142.1619 309.0865 L 142.3873 309.2761 L 142.6172 309.4602 L 142.8516 309.6385 L 143.0903 309.8110 L 143.3332 309.9776 L 143.5800 310.1382 L 143.8308 310.2927 L 144.0852 310.4410 L 144.3432 310.5831 L 144.6047 310.7187 L 144.8693 310.8479 L 145.1371 310.9705 L 145.4078 311.0866 L 145.6813 311.1959 L 145.9573 311.2985 L 146.2358 311.3943 L 146.5166 311.4833 L 146.7994 311.5653 L 147.0842 311.6404 L 147.3708 311.7084 L 147.6589 311.7694 L 147.9485 311.8233 L 148.2392 311.8701 L 148.5311 311.9098 L 148.8238 311.9422 L 149.1172 311.9675 L 149.4112 311.9855 L 149.7055 311.9964 L 150.0000 312.0000 L 168.0000 312.0000 L 168.0000 420.0000 L 168.0036 420.2945 L 168.0145 420.5888 L 168.0325 420.8828 L 168.0578 421.1762 L 168.0902 421.4689 L 168.1299 421.7608 L 168.1767 422.0515 L 168.2306 422.3411 L 168.2916 422.6292 L 168.3596 422.9158 L 168.4347 423.2006 L 168.5167 423.4834 L 168.6057 423.7642 L 168.7015 424.0427 L 168.8041 424.3187 L 168.9134 424.5922 L 169.0295 424.8629 L 169.1521 425.1307 L 169.2813 425.3953 L 169.4169 425.6568 L 169.5590 425.9148 L 169.7073 426.1692 L 169.8618 426.4200 L 170.0224 426.6668 L 170.1890 426.9097 L 170.3615 427.1484 L 170.5398 427.3828 L 170.7239 427.6127 L 170.9135 427.8381 L 171.1086 428.0587 L 171.3090 428.2745 L 171.5147 428.4853 L 171.7255 428.6910 L 171.9413 428.8914 L 172.1619 429.0865 L 172.3873 429.2761 L 172.6172 429.4602 L 172.8516 429.6385 L 173.0903 429.8110 L 173.3332 429.9776 L 173.5800 430.1382 L 173.8308 430.2927 L 174.0852 430.4410 L 174.3432 430.5831 L 174.6047 430.7187 L 174.8693 430.8479 L 175.1371 430.9705 L 175.4078 431.0866 L 175.6813 431.1959 L 175.9573 431.2985 L 176.2358 431.3943 L 176.5166 431.4833 L 176.7994 431.5653 L 177.0842 431.6404 L 177.3708 431.7084 L 177.6589 431.7694 L 177.9485 431.8233 L 178.2392 431.8701 L 178.5311 431.9098 L 178.8238 431.9422 L 179.1172 431.9675 L 179.4112 431.9855 L 179.7055 431.9964 L 180.0000 432.0000 L 180.2945 431.9964 L 180.5888 431.9855 L 180.8828 431.9675 L 181.1762 431.9422 L 181.4689 431.9098 L 181.7608 431.8701 L 182.0515 431.8233 L 182.3411 431.7694 L 182.6292 431.7084 L 182.9158 431.6404 L 183.2006 431.5653 L 183.4834 431.4833 L 183.7642 431.3943 L 184.0427 431.2985 L 184.3187 431.1959 L 184.5922 431.0866 L 184.8629 430.9705 L 185.1307 430.8479 L 185.3953 430.7187 L 185.6568 430.5831 L 185.9148 430.4410 L 186.1692 430.2927 L 186.4200 430.1382 L 186.6668 429.9776 L 186.9097 429.8110 L 187.1484 429.6385 L 187.3828 429.4602 L 187.6127 429.2761 L 187.8381 429.0865 L 188.0587 428.8914 L 188.2745 428.6910 L 188.4853 428.4853 L 188.6910 428.2745 L 188.8914 428.0587 L 189.0865 427.8381 L 189.2761 427.6127 L 189.4602 427.3828 L 189.6385 427.1484 L 189.8110 426.9097 L 189.9776 426.6668 L 190.1382 426.4200 L 190.2927 426.1692 L 190.4410 425.9148 L 190.5831 425.6568 L 190.7187 425.3953 L 190.8479 425.1307 L 190.9705 424.8629 L 191.0866 424.5922 L 191.1959 424.3187 L 191.2985 424.0427 L 191.3943 423.7642 L 191.4833 423.4834 L 191.5653 423.2006 L 191.6404 422.9158 L 191.7084 422.6292 L 191.7694 422.3411 L 191.8233 422.0515 L 191.8701 421.7608 L 191.9098 421.4689 L 191.9422 421.1762 L 191.9675 420.8828 L 191.9855 420.5888 L 191.9964 420.2945 L 192.0000 420.0000 L 192.0000 312.0000 L 320.0000 312.0000 L 320.2945 311.9964 L 320.5888 311.9855 L 320.8828 311.9675 L 321.1762 311.9422 L 321.4689 311.9098 L 321.7608 311.8701 L 322.0515 311.8233 L 322.3411 311.7694 L 322.6292 311.7084 L 322.9158 311.6404 L 323.2006 311.5653 L 323.4834 311.4833 L 323.7642 311.3943 L 324.0427 311.2985 L 324.3187 311.1959 L 324.5922 311.0866 L 324.8629 310.9705 L 325.1307 310.8479 L 325.3953 310.7187 L 325.6568 310.5831 L 325.9148 310.4410 L 326.1692 310.2927 L 326.4200 310.1382 L 326.6668 309.9776 L 326.9097 309.8110 L 327.1484 309.6385 L 327.3828 309.4602 L 327.6127 309.2761 L 327.8381 309.0865 L 328.0587 308.8914 L 328.2745 308.6910 L 328.4853 308.4853 L 328.6910 308.2745 L 328.8914 308.0587 L 329.0865 307.8381 L 329.2761 307.6127 L 329.4602 307.3828 L 329.6385 307.1484 L 329.8110 306.9097 L 329.9776 306.6668 L 330.1382 306.4200 L 330.2927 306.1692 L 330.4410 305.9148 L 330.5831 305.6568 L 330.7187 305.3953 L 330.8479 305.1307 L 330.9705 304.8629 L 331.0866 304.5922 L 331.1959 304.3187 L 331.2985 304.0427 L 331.3943 303.7642 L 331.4833 303.4834 L 331.5653 303.2006 L 331.6404 302.9158 L 331.7084 302.6292 L 331.7694 302.3411 L 331.8233 302.0515 L 331.8701 301.7608 L 331.9098 301.4689 L 331.9422 301.1762 L 331.9675 300.8828 L 331.9855 300.5888 L 331.9964 300.2945 L 332.0000 300.0000 L 332.0000 200.0000 L 331.9999 199.9429 L 331.9967 199.2765 L 331.9956 199.1623 L 331.9861 198.4959 L 331.9839 198.3817 L 331.9681 197.7155 L 331.9648 197.6013 L 331.9426 196.9353 L 331.9382 196.8211 L 331.9097 196.1553 L 331.9043 196.0412 L 331.8694 195.3758 L 331.8629 195.2617 L 331.8217 194.5966 L 331.8141 194.4826 L 331.7665 193.8179 L 331.7578 193.7040 L 331.7040 193.0398 L 331.6942 192.9260 L 331.6340 192.2623 L 331.6231 192.1486 L 331.5566 191.4855 L 331.5447 191.3719 L 331.4719 190.7095 L 331.4589 190.5960 L 331.3797 189.9343 L 331.3656 189.8209 L 331.2802 189.1600 L 331.2650 189.0468 L 331.1734 188.3867 L 331.1571 188.2737 L 331.0591 187.6145 L 331.0418 187.5016 L 330.9375 186.8434 L 330.9191 186.7307 L 330.8086 186.0735 L 330.7891 185.9609 L 330.6724 185.3048 L 330.6518 185.1925 L 330.5288 184.5375 L 330.5072 184.4253 L 330.3780 183.7716 L 330.3553 183.6596 L 330.2198 183.0071 L 330.1961 182.8954 L 330.0544 182.2442 L 330.0296 182.1327 L 329.8818 181.4829 L 329.8559 181.3717 L 329.7019 180.7233 L 329.6750 180.6123 L 329.5148 179.9654 L 329.4868 179.8547 L 329.3204 179.2094 L 329.2914 179.0989 L 329.1189 178.4552 L 329.0888 178.3450 L 328.9102 177.7030 L 328.8791 177.5931 L 328.6944 176.9528 L 328.6622 176.8432 L 328.4714 176.2047 L 328.4382 176.0954 L 328.2413 175.4587 L 328.2071 175.3497 L 328.0042 174.7150 L 327.9689 174.6063 L 327.7599 173.9735 L 327.7236 173.8652 L 327.5086 173.2344 L 327.4713 173.1265 L 327.2503 172.4978 L 327.2119 172.3902 L 326.9850 171.7636 L 326.9456 171.6564 L 326.7127 171.0320 L 326.6723 170.9252 L 326.4334 170.3030 L 326.3920 170.1966 L 326.1473 169.5768 L 326.1048 169.4707 L 325.8542 168.8532 L 325.8107 168.7476 L 325.5542 168.1325 L 325.5098 168.0273 L 325.2475 167.4147 L 325.2020 167.3099 L 324.9338 166.6998 L 324.8874 166.5955 L 324.6134 165.9880 L 324.5660 165.8841 L 324.2863 165.2792 L 324.2378 165.1758 L 323.9524 164.5736 L 323.9029 164.4706 L 323.6118 163.8712 L 323.5613 163.7687 L 323.2645 163.1721 L 323.2131 163.0700 L 322.9106 162.4763 L 322.8582 162.3747 L 322.5500 161.7839 L 322.4967 161.6828 L 322.1829 161.0949 L 322.1287 160.9944 L 321.8093 160.4095 L 321.7541 160.3095 L 321.4291 159.7277 L 321.3730 159.6282 L 321.0425 159.0495 L 320.9854 158.9506 L 320.6495 158.3751 L 320.5914 158.2767 L 320.2500 157.7044 L 320.1910 157.6066 L 319.8442 157.0375 L 319.7842 156.9403 L 319.4320 156.3746 L 319.3712 156.2779 L 319.0136 155.7156 L 318.9518 155.6195 L 318.5888 155.0606 L 318.5262 154.9651 L 318.1579 154.4097 L 318.0943 154.3148 L 317.7208 153.7629 L 317.6563 153.6686 L 317.2776 153.1203 L 317.2122 153.0266 L 316.8282 152.4819 L 316.7620 152.3889 L 316.3729 151.8479 L 316.3057 151.7555 L 315.9114 151.2182 L 315.8434 151.1264 L 315.4441 150.5930 L 315.3752 150.5018 L 314.9708 149.9722 L 314.9010 149.8817 L 314.4916 149.3559 L 314.4209 149.2661 L 314.0065 148.7443 L 313.9350 148.6552 L 313.5157 148.1373 L 313.4433 148.0488 L 313.0191 147.5350 L 312.9459 147.4472 L 312.5167 146.9374 L 312.4428 146.8504 L 312.0088 146.3447 L 311.9340 146.2583 L 311.4952 145.7568 L 311.4195 145.6712 L 310.9760 145.1738 L 310.8996 145.0889 L 310.4513 144.5958 L 310.3741 144.5117 L 309.9211 144.0229 L 309.8431 143.9394 L 309.3855 143.4550 L 309.3067 143.3723 L 308.8445 142.8922 L 308.7649 142.8103 L 308.2982 142.3346 L 308.2178 142.2534 L 307.7466 141.7822 L 307.6654 141.7018 L 307.1897 141.2351 L 307.1078 141.1555 L 306.6277 140.6933 L 306.5450 140.6145 L 306.0606 140.1569 L 305.9771 140.0789 L 305.4883 139.6259 L 305.4042 139.5487 L 304.9111 139.1004 L 304.8262 139.0240 L 304.3288 138.5805 L 304.2432 138.5048 L 303.7417 138.0660 L 303.6553 137.9912 L 303.1496 137.5572 L 303.0626 137.4833 L 302.5528 137.0541 L 302.4650 136.9809 L 301.9512 136.5567 L 301.8627 136.4843 L 301.3448 136.0650 L 301.2557 135.9935 L 300.7339 135.5791 L 300.6441 135.5084 L 300.1183 135.0990 L 300.0278 135.0292 L 299.4982 134.6248 L 299.4070 134.5559 L 298.8736 134.1566 L 298.7818 134.0886 L 298.2445 133.6943 L 298.1521 133.6271 L 297.6111 133.2380 L 297.5181 133.1718 L 296.9734 132.7878 L 296.8797 132.7224 L 296.3314 132.3437 L 296.2371 132.2792 L 295.6852 131.9057 L 295.5903 131.8421 L 295.0349 131.4738 L 294.9394 131.4112 L 294.3805 131.0482 L 294.2844 130.9864 L 293.7221 130.6288 L 293.6254 130.5680 L 293.0597 130.2158 L 292.9625 130.1558 L 292.3934 129.8090 L 292.2956 129.7500 L 291.7233 129.4086 L 291.6249 129.3505 L 291.0494 129.0146 L 290.9505 128.9575 L 290.3718 128.6270 L 290.2723 128.5709 L 289.6905 128.2459 L 289.5905 128.1907 L 289.0056 127.8713 L 288.9051 127.8171 L 288.3172 127.5033 L 288.2161 127.4500 L 287.6253 127.1418 L 287.5237 127.0894 L 286.9300 126.7869 L 286.8279 126.7355 L 286.2313 126.4387 L 286.1288 126.3882 L 285.5294 126.0971 L 285.4264 126.0476 L 284.8242 125.7622 L 284.7208 125.7137 L 284.1159 125.4340 L 284.0120 125.3866 L 283.4045 125.1126 L 283.3002 125.0662 L 282.6901 124.7980 L 282.5853 124.7525 L 281.9727 124.4902 L 281.8675 124.4458 L 281.2524 124.1893 L 281.1468 124.1458 L 280.5293 123.8952 L 280.4232 123.8527 L 279.8034 123.6080 L 279.6970 123.5666 L 279.0748 123.3277 L 278.9680 123.2873 L 278.3436 123.0544 L 278.2364 123.0150 L 277.6098 122.7881 L 277.5022 122.7497 L 276.8735 122.5287 L 276.7656 122.4914 L 276.1348 122.2764 L 276.0265 122.2401 L 275.3937 122.0311 L 275.2850 121.9958 L 274.6503 121.7929 L 274.5413 121.7587 L 273.9046 121.5618 L 273.7953 121.5286 L 273.1568 121.3378 L 273.0472 121.3056 L 272.4069 121.1209 L 272.2970 121.0898 L 271.6550 120.9112 L 271.5448 120.8811 L 270.9011 120.7086 L 270.7906 120.6796 L 270.1453 120.5132 L 270.0346 120.4852 L 269.3877 120.3250 L 269.2767 120.2981 L 268.6283 120.1441 L 268.5171 120.1182 L 267.8673 119.9704 L 267.7558 119.9456 L 267.1046 119.8039 L 266.9929 119.7802 L 266.3404 119.6447 L 266.2284 119.6220 L 265.5747 119.4928 L 265.4625 119.4712 L 264.8075 119.3482 L 264.6952 119.3276 L 264.0391 119.2109 L 263.9265 119.1914 L 263.2693 119.0809 L 263.1566 119.0625 L 262.4984 118.9582 L 262.3855 118.9409 L 261.7263 118.8429 L 261.6133 118.8266 L 260.9532 118.7350 L 260.8400 118.7198 L 260.1791 118.6344 L 260.0657 118.6203 L 259.4040 118.5411 L 259.2905 118.5281 L 258.6281 118.4553 L 258.5145 118.4434 L 257.8514 118.3769 L 257.7377 118.3660 L 257.0740 118.3058 L 256.9602 118.2960 L 256.2960 118.2422 L 256.1821 118.2335 L 255.5174 118.1859 L 255.4034 118.1783 L 254.7383 118.1371 L 254.6242 118.1306 L 253.9588 118.0957 L 253.8447 118.0903 L 253.1789 118.0618 L 253.0647 118.0574 L 252.3987 118.0352 L 252.2845 118.0319 L 251.6183 118.0161 L 251.5041 118.0139 L 250.8377 118.0044 L 250.7235 118.0033 L 250.0571 118.0001 L 249.9429 118.0001 L 249.2765 118.0033 L 249.1623 118.0044 L 248.4959 118.0139 L 248.3817 118.0161 L 247.7155 118.0319 L 247.6013 118.0352 L 246.9353 118.0574 L 246.8211 118.0618 L 246.1553 118.0903 L 246.0412 118.0957 L 245.3758 118.1306 L 245.2617 118.1371 L 244.5966 118.1783 L 244.4826 118.1859 L 243.8179 118.2335 L 243.7040 118.2422 L 243.0398 118.2960 L 242.9260 118.3058 L 242.2623 118.3660 L 242.1486 118.3769 L 241.4855 118.4434 L 241.3719 118.4553 L 240.7095 118.5281 L 240.5960 118.5411 L 239.9343 118.6203 L 239.8209 118.6344 L 239.1600 118.7198 L 239.0468 118.7350 L 238.3867 118.8266 L 238.2737 118.8429 L 237.6145 118.9409 L 237.5016 118.9582 L 236.8434 119.0625 L 236.7307 119.0809 L 236.0735 119.1914 L 235.9609 119.2109 L 235.3048 119.3276 L 235.1925 119.3482 L 234.5375 119.4712 L 234.4253 119.4928 L 233.7716 119.6220 L 233.6596 119.6447 L 233.0071 119.7802 L 232.8954 119.8039 L 232.2442 119.9456 L 232.1327 119.9704 L 231.4829 120.1182 L 231.3717 120.1441 L 230.7233 120.2981 L 230.6123 120.3250 L 229.9654 120.4852 L 229.8547 120.5132 L 229.2094 120.6796 L 229.0989 120.7086 L 228.4552 120.8811 L 228.3450 120.9112 L 227.7030 121.0898 L 227.5931 121.1209 L 226.9528 121.3056 L 226.8432 121.3378 L 226.2047 121.5286 L 226.0954 121.5618 L 225.4587 121.7587 L 225.3497 121.7929 L 224.7150 121.9958 L 224.6063 122.0311 L 223.9735 122.2401 L 223.8652 122.2764 L 223.2344 122.4914 L 223.1265 122.5287 L 222.4978 122.7497 L 222.3902 122.7881 L 221.7636 123.0150 L 221.6564 123.0544 L 221.0320 123.2873 L 220.9252 123.3277 L 220.3030 123.5666 L 220.1966 123.6080 L 219.5768 123.8527 L 219.4707 123.8952 L 218.8532 124.1458 L 218.7476 124.1893 L 218.1325 124.4458 L 218.0273 124.4902 L 217.4147 124.7525 L 217.3099 124.7980 L 216.6998 125.0662 L 216.5955 125.1126 L 215.9880 125.3866 L 215.8841 125.4340 L 215.2792 125.7137 L 215.1758 125.7622 L 214.5736 126.0476 L 214.4706 126.0971 L 213.8712 126.3882 L 213.7687 126.4387 L 213.1721 126.7355 L 213.0700 126.7869 L 212.4763 127.0894 L 212.3747 127.1418 L 211.7839 127.4500 L 211.6828 127.5033 L 211.0949 127.8171 L 210.9944 127.8713 L 210.4095 128.1907 L 210.3095 128.2459 L 209.7277 128.5709 L 209.6282 128.6270 L 209.0495 128.9575 L 208.9506 129.0146 L 208.3751 129.3505 L 208.2767 129.4086 L 207.7044 129.7500 L 207.6066 129.8090 L 207.0375 130.1558 L 206.9403 130.2158 L 206.3746 130.5680 L 206.2779 130.6288 L 205.7156 130.9864 L 205.6195 131.0482 L 205.0606 131.4112 L 204.9651 131.4738 L 204.4097 131.8421 L 204.3148 131.9057 L 203.7629 132.2792 L 203.6686 132.3437 L 203.1203 132.7224 L 203.0266 132.7878 L 202.4819 133.1718 L 202.3889 133.2380 L 201.8479 133.6271 L 201.7555 133.6943 L 201.2182 134.0886 L 201.1264 134.1566 L 200.5930 134.5559 L 200.5018 134.6248 L 199.9722 135.0292 L 199.8817 135.0990 L 199.3559 135.5084 L 199.2661 135.5791 L 198.7443 135.9935 L 198.6552 136.0650 L 198.1373 136.4843 L 198.0488 136.5567 L 197.5350 136.9809 L 197.4472 137.0541 L 196.9374 137.4833 L 196.8504 137.5572 L 196.3447 137.9912 L 196.2583 138.0660 L 195.7568 138.5048 L 195.6712 138.5805 L 195.1738 139.0240 L 195.0889 139.1004 L 194.5958 139.5487 L 194.5117 139.6259 L 194.0229 140.0789 L 193.9394 140.1569 L 193.4550 140.6145 L 193.3723 140.6933 L 192.8922 141.1555 L 192.8103 141.2351 L 192.3346 141.7018 L 192.2534 141.7822 L 191.7822 142.2534 L 191.7018 142.3346 L 191.2351 142.8103 L 191.1555 142.8922 L 190.6933 143.3723 L 190.6145 143.4550 L 190.1569 143.9394 L 190.0789 144.0229 L 189.6259 144.5117 L 189.5487 144.5958 L 189.1004 145.0889 L 189.0240 145.1738 L 188.5805 145.6712 L 188.5048 145.7568 L 188.0660 146.2583 L 187.9912 146.3447 L 187.5572 146.8504 L 187.4833 146.9374 L 187.0541 147.4472 L 186.9809 147.5350 L 186.5567 148.0488 L 186.4843 148.1373 L 186.0650 148.6552 L 185.9935 148.7443 L 185.5791 149.2661 L 185.5084 149.3559 L 185.0990 149.8817 L 185.0292 149.9722 L 184.6248 150.5018 L 184.5559 150.5930 L 184.1566 151.1264 L 184.0886 151.2182 L 183.6943 151.7555 L 183.6271 151.8479 L 183.2380 152.3889 L 183.1718 152.4819 L 182.7878 153.0266 L 182.7224 153.1203 L 182.3437 153.6686 L 182.2792 153.7629 L 181.9057 154.3148 L 181.8421 154.4097 L 181.4738 154.9651 L 181.4112 155.0606 L 181.0482 155.6195 L 180.9864 155.7156 L 180.6288 156.2779 L 180.5680 156.3746 L 180.2158 156.9403 L 180.1558 157.0375 L 179.8090 157.6066 L 179.7500 157.7044 L 179.4086 158.2767 L 179.3505 158.3751 L 179.0146 158.9506 L 178.9575 159.0495 L 178.6270 159.6282 L 178.5709 159.7277 L 178.2459 160.3095 L 178.1907 160.4095 L 177.8713 160.9944 L 177.8171 161.0949 L 177.5033 161.6828 L 177.4500 161.7839 L 177.1418 162.3747 L 177.0894 162.4763 L 176.7869 163.0700 L 176.7355 163.1721 L 176.4387 163.7687 L 176.3882 163.8712 L 176.0971 164.4706 L 176.0476 164.5736 L 175.7622 165.1758 L 175.7137 165.2792 L 175.4340 165.8841 L 175.3866 165.9880 L 175.1126 166.5955 L 175.0662 166.6998 L 174.7980 167.3099 L 174.7525 167.4147 L 174.4902 168.0273 L 174.4458 168.1325 L 174.1893 168.7476 L 174.1458 168.8532 L 173.8952 169.4707 L 173.8527 169.5768 L 173.6080 170.1966 L 173.5666 170.3030 L 173.3277 170.9252 L 173.2873 171.0320 L 173.0544 171.6564 L 173.0150 171.7636 L 172.7881 172.3902 L 172.7497 172.4978 L 172.5287 173.1265 L 172.4914 173.2344 L 172.2764 173.8652 L 172.2401 173.9735 L 172.0311 174.6063 L 171.9958 174.7150 L 171.7929 175.3497 L 171.7587 175.4587 L 171.5618 176.0954 L 171.5286 176.2047 L 171.3378 176.8432 L 171.3056 176.9528 L 171.1209 177.5931 L 171.0898 177.7030 L 170.9112 178.3450 L 170.8811 178.4552 L 170.7086 179.0989 L 170.6796 179.2094 L 170.5132 179.8547 L 170.4852 179.9654 L 170.3250 180.6123 L 170.2981 180.7233 L 170.1441 181.3717 L 170.1182 181.4829 L 169.9704 182.1327 L 169.9456 182.2442 L 169.8039 182.8954 L 169.7802 183.0071 L 169.6447 183.6596 L 169.6220 183.7716 L 169.4928 184.4253 L 169.4712 184.5375 L 169.3482 185.1925 L 169.3276 185.3048 L 169.2109 185.9609 L 169.1914 186.0735 L 169.0809 186.7307 L 169.0625 186.8434 L 168.9582 187.5016 L 168.9409 187.6145 L 168.8429 188.2737 L 168.8266 188.3867 L 168.7350 189.0468 L 168.7198 189.1600 L 168.6344 189.8209 L 168.6203 189.9343 L 168.5411 190.5960 L 168.5281 190.7095 L 168.4553 191.3719 L 168.4434 191.4855 L 168.3769 192.1486 L 168.3660 192.2623 L 168.3058 192.9260 L 168.2960 193.0398 L 168.2422 193.7040 L 168.2335 193.8179 L 168.1859 194.4826 L 168.1783 194.5966 L 168.1371 195.2617 L 168.1306 195.3758 L 168.0957 196.0412 L 168.0903 196.1553 L 168.0618 196.8211 L 168.0574 196.9353 L 168.0352 197.6013 L 168.0319 197.7155 L 168.0161 198.3817 L 168.0139 198.4959 L 168.0044 199.1623 L 168.0033 199.2765 L 168.0001 199.9429 L 168.0000 200.0000 L 168.0000 288.0000 Z M 192.0000 288.0000 L 192.0000 200.0286 L 192.0028 199.4479 L 192.0106 198.8958 L 192.0238 198.3438 L 192.0422 197.7919 L 192.0658 197.2403 L 192.0947 196.6889 L 192.1289 196.1378 L 192.1683 195.5870 L 192.2129 195.0367 L 192.2628 194.4868 L 192.3179 193.9374 L 192.3782 193.3885 L 192.4437 192.8403 L 192.5145 192.2927 L 192.5905 191.7458 L 192.6717 191.1996 L 192.7580 190.6542 L 192.8496 190.1097 L 192.9464 189.5661 L 193.0483 189.0235 L 193.1553 188.4818 L 193.2676 187.9412 L 193.3849 187.4016 L 193.5074 186.8632 L 193.6351 186.3260 L 193.7678 185.7900 L 193.9056 185.2554 L 194.0485 184.7220 L 194.1965 184.1901 L 194.3495 183.6596 L 194.5076 183.1305 L 194.6707 182.6030 L 194.8389 182.0771 L 195.0120 181.5527 L 195.1901 181.0301 L 195.3732 180.5092 L 195.5612 179.9900 L 195.7541 179.4727 L 195.9520 178.9572 L 196.1548 178.4436 L 196.3624 177.9320 L 196.5750 177.4224 L 196.7923 176.9148 L 197.0145 176.4093 L 197.2415 175.9060 L 197.4732 175.4048 L 197.7098 174.9059 L 197.9510 174.4092 L 198.1970 173.9149 L 198.4477 173.4229 L 198.7030 172.9334 L 198.9630 172.4462 L 199.2276 171.9616 L 199.4968 171.4796 L 199.7706 171.0001 L 200.0490 170.5232 L 200.3319 170.0490 L 200.6193 169.5775 L 200.9111 169.1088 L 201.2074 168.6429 L 201.5081 168.1798 L 201.8133 167.7196 L 202.1227 167.2624 L 202.4366 166.8081 L 202.7547 166.3568 L 203.0771 165.9085 L 203.4038 165.4634 L 203.7347 165.0214 L 204.0698 164.5825 L 204.4090 164.1469 L 204.7524 163.7145 L 205.0999 163.2854 L 205.4514 162.8596 L 205.8070 162.4372 L 206.1666 162.0182 L 206.5302 161.6026 L 206.8977 161.1905 L 207.2691 160.7819 L 207.6444 160.3769 L 208.0235 159.9755 L 208.4065 159.5777 L 208.7932 159.1836 L 209.1836 158.7932 L 209.5777 158.4065 L 209.9755 158.0235 L 210.3769 157.6444 L 210.7819 157.2691 L 211.1905 156.8977 L 211.6026 156.5302 L 212.0182 156.1666 L 212.4372 155.8070 L 212.8596 155.4514 L 213.2854 155.0999 L 213.7145 154.7524 L 214.1469 154.4090 L 214.5825 154.0698 L 215.0214 153.7347 L 215.4634 153.4038 L 215.9085 153.0771 L 216.3568 152.7547 L 216.8081 152.4366 L 217.2624 152.1227 L 217.7196 151.8133 L 218.1798 151.5081 L 218.6429 151.2074 L 219.1088 150.9111 L 219.5775 150.6193 L 220.0490 150.3319 L 220.5232 150.0490 L 221.0001 149.7706 L 221.4796 149.4968 L 221.9616 149.2276 L 222.4462 148.9630 L 222.9334 148.7030 L 223.4229 148.4477 L 223.9149 148.1970 L 224.4092 147.9510 L 224.9059 147.7098 L 225.4048 147.4732 L 225.9060 147.2415 L 226.4093 147.0145 L 226.9148 146.7923 L 227.4224 146.5750 L 227.9320 146.3624 L 228.4436 146.1548 L 228.9572 145.9520 L 229.4727 145.7541 L 229.9900 145.5612 L 230.5092 145.3732 L 231.0301 145.1901 L 231.5527 145.0120 L 232.0771 144.8389 L 232.6030 144.6707 L 233.1305 144.5076 L 233.6596 144.3495 L 234.1901 144.1965 L 234.7220 144.0485 L 235.2554 143.9056 L 235.7900 143.7678 L 236.3260 143.6351 L 236.8632 143.5074 L 237.4016 143.3849 L 237.9412 143.2676 L 238.4818 143.1553 L 239.0235 143.0483 L 239.5661 142.9464 L 240.1097 142.8496 L 240.6542 142.7580 L 241.1996 142.6717 L 241.7458 142.5905 L 242.2927 142.5145 L 242.8403 142.4437 L 243.3885 142.3782 L 243.9374 142.3179 L 244.4868 142.2628 L 245.0367 142.2129 L 245.5870 142.1683 L 246.1378 142.1289 L 246.6889 142.0947 L 247.2403 142.0658 L 247.7919 142.0422 L 248.3438 142.0238 L 248.8958 142.0106 L 249.4479 142.0028 L 250.0000 142.0001 L 250.5521 142.0028 L 251.1042 142.0106 L 251.6562 142.0238 L 252.2081 142.0422 L 252.7597 142.0658 L 253.3111 142.0947 L 253.8622 142.1289 L 254.4130 142.1683 L 254.9633 142.2129 L 255.5132 142.2628 L 256.0626 142.3179 L 256.6115 142.3782 L 257.1597 142.4437 L 257.7073 142.5145 L 258.2542 142.5905 L 258.8004 142.6717 L 259.3458 142.7580 L 259.8903 142.8496 L 260.4339 142.9464 L 260.9765 143.0483 L 261.5182 143.1553 L 262.0588 143.2676 L 262.5984 143.3849 L 263.1368 143.5074 L 263.6740 143.6351 L 264.2100 143.7678 L 264.7446 143.9056 L 265.2780 144.0485 L 265.8099 144.1965 L 266.3404 144.3495 L 266.8695 144.5076 L 267.3970 144.6707 L 267.9229 144.8389 L 268.4473 145.0120 L 268.9699 145.1901 L 269.4908 145.3732 L 270.0100 145.5612 L 270.5273 145.7541 L 271.0428 145.9520 L 271.5564 146.1548 L 272.0680 146.3624 L 272.5776 146.5750 L 273.0852 146.7923 L 273.5907 147.0145 L 274.0940 147.2415 L 274.5952 147.4732 L 275.0941 147.7098 L 275.5908 147.9510 L 276.0851 148.1970 L 276.5771 148.4477 L 277.0666 148.7030 L 277.5538 148.9630 L 278.0384 149.2276 L 278.5204 149.4968 L 278.9999 149.7706 L 279.4768 150.0490 L 279.9510 150.3319 L 280.4225 150.6193 L 280.8912 150.9111 L 281.3571 151.2074 L 281.8202 151.5081 L 282.2804 151.8133 L 282.7376 152.1227 L 283.1919 152.4366 L 283.6432 152.7547 L 284.0915 153.0771 L 284.5366 153.4038 L 284.9786 153.7347 L 285.4175 154.0698 L 285.8531 154.4090 L 286.2855 154.7524 L 286.7146 155.0999 L 287.1404 155.4514 L 287.5628 155.8070 L 287.9818 156.1666 L 288.3974 156.5302 L 288.8095 156.8977 L 289.2181 157.2691 L 289.6231 157.6444 L 290.0245 158.0235 L 290.4223 158.4065 L 290.8164 158.7932 L 291.2068 159.1836 L 291.5935 159.5777 L 291.9765 159.9755 L 292.3556 160.3769 L 292.7309 160.7819 L 293.1023 161.1905 L 293.4698 161.6026 L 293.8334 162.0182 L 294.1930 162.4372 L 294.5486 162.8596 L 294.9001 163.2854 L 295.2476 163.7145 L 295.5910 164.1469 L 295.9302 164.5825 L 296.2653 165.0214 L 296.5962 165.4634 L 296.9229 165.9085 L 297.2453 166.3568 L 297.5634 166.8081 L 297.8773 167.2624 L 298.1867 167.7196 L 298.4919 168.1798 L 298.7926 168.6429 L 299.0889 169.1088 L 299.3807 169.5775 L 299.6681 170.0490 L 299.9510 170.5232 L 300.2294 171.0001 L 300.5032 171.4796 L 300.7724 171.9616 L 301.0370 172.4462 L 301.2970 172.9334 L 301.5523 173.4229 L 301.8030 173.9149 L 302.0490 174.4092 L 302.2902 174.9059 L 302.5268 175.4048 L 302.7585 175.9060 L 302.9855 176.4093 L 303.2077 176.9148 L 303.4250 177.4224 L 303.6376 177.9320 L 303.8452 178.4436 L 304.0480 178.9572 L 304.2459 179.4727 L 304.4388 179.9900 L 304.6268 180.5092 L 304.8099 181.0301 L 304.9880 181.5527 L 305.1611 182.0771 L 305.3293 182.6030 L 305.4924 183.1305 L 305.6505 183.6596 L 305.8035 184.1901 L 305.9515 184.7220 L 306.0944 185.2554 L 306.2322 185.7900 L 306.3649 186.3260 L 306.4926 186.8632 L 306.6151 187.4016 L 306.7324 187.9412 L 306.8447 188.4818 L 306.9517 189.0235 L 307.0536 189.5661 L 307.1504 190.1097 L 307.2420 190.6542 L 307.3283 191.1996 L 307.4095 191.7458 L 307.4855 192.2927 L 307.5563 192.8403 L 307.6218 193.3885 L 307.6821 193.9374 L 307.7372 194.4868 L 307.7871 195.0367 L 307.8317 195.5870 L 307.8711 196.1378 L 307.9053 196.6889 L 307.9342 197.2403 L 307.9578 197.7919 L 307.9762 198.3438 L 307.9894 198.8958 L 307.9972 199.4479 L 308.0000 200.0286 L 308.0000 288.0000 L 192.0000 288.0000 Z"/>
</svg>
