<?xml version="1.0" encoding="UTF-8" standalone="no"?>
<svg xmlns="http://www.w3.org/2000/svg" version="1.1" viewBox="0.00 0.00 1209.00 1301.00">
<path d="M 196.834 77.757 L 213.566 141.083" fill="none" stroke="#000000" stroke-width="12.740" stroke-linecap="round" stroke-linejoin="round"/>
<path d="M 308.352 150.816 L 344.988 101.844" fill="none" stroke="#000000" stroke-width="12.860" stroke-linecap="round" stroke-linejoin="round"/>
<path d="M 73.575 173.659 L 73.996 173.517 L 74.084 173.487 L 132.556 202.513 L 132.644 202.483 L 133.065 202.341" fill="none" stroke="#000000" stroke-width="12.788" stroke-linecap="round" stroke-linejoin="round"/>
<path d="M 228.226 182.382 L 230.092 181.518 L 231.058 181.092 L 233.040 180.374 L 233.127 180.344 L 235.246 179.911 L 236.082 179.802 L 239.133 179.457 L 239.879 179.387 L 242.177 179.214 L 244.080 179.105 L 245.216 179.063 L 248.201 179.006 L 248.255 179.006 L 251.296 179.065 L 252.238 179.099 L 254.340 179.223 L 256.192 179.363 L 257.391 179.483 L 260.061 179.792 L 260.448 179.846 L 263.512 180.326 L 263.847 180.384 L 266.580 180.927 L 267.568 181.139 L 269.607 181.637 L 272.898 182.515 L 275.826 183.388 L 278.293 184.194 L 279.218 184.525 L 282.311 185.724 L 283.689 186.306 L 285.108 186.949 L 287.712 188.238 L 289.038 188.932 L 290.487 189.738 L 291.885 190.531 L 293.465 191.484 L 294.566 192.160 L 296.547 193.447 L 297.110 193.818 L 299.549 195.511 L 299.675 195.602 L 301.387 196.882 L 301.890 197.275 L 303.045 198.208 L 304.144 199.137 L 304.696 199.613 L 306.344 201.097 L 306.347 201.100 L 307.995 202.662 L 308.583 203.242 L 309.644 204.318 L 310.319 205.027 L 311.277 206.081 L 312.075 206.990 L 312.892 207.983 L 314.581 210.091 L 315.255 210.949 L 316.150 212.183 L 317.600 214.228 L 318.244 215.159 L 318.928 216.225 L 320.141 218.166 L 320.967 219.531 L 321.255 220.041 L 322.245 221.863 L 323.145 223.586 L 323.369 224.037 L 324.831 227.218 L 325.431 228.613 L 326.333 230.896 L 327.174 233.185 L 327.658 234.643 L 328.578 237.655 L 328.801 238.464 L 329.606 241.680 L 329.760 242.360 L 330.430 245.674 L 330.547 246.330 L 331.064 249.671 L 331.157 250.380 L 331.513 253.668 L 331.586 254.529 L 331.791 257.662 L 331.799 257.869 L 331.882 261.194 L 331.885 261.655 L 331.839 264.484 L 331.800 265.644 L 331.680 267.740 L 331.538 269.629 L 331.406 270.963 L 331.096 273.609 L 331.019 274.154 L 330.516 277.313 L 330.468 277.582 L 329.890 280.440 L 329.646 281.543 L 329.157 283.538 L 328.640 285.493 L 328.317 286.610 L 327.447 289.430 L 327.372 289.658 L 326.306 292.678 L 326.057 293.346 L 325.130 295.676 L 324.475 297.241 L 323.849 298.656 L 322.700 301.131 L 322.461 301.618 L 322.248 302.034 L 321.709 303.041 L 321.089 304.172 L 320.890 304.530 L 320.361 305.441 L 319.526 306.863 L 319.329 307.197 L 318.567 308.437 L 317.719 309.806 L 317.487 310.169 L 316.248 312.091 L 316.072 312.359 L 314.377 314.851 L 314.254 315.026 L 312.615 317.268 L 312.266 317.730 L 310.783 319.607 L 310.310 320.185 L 308.871 321.856 L 308.406 322.378 L 306.877 324.008 L 305.297 325.640 L 304.837 326.095 L 302.738 328.103 L 302.075 328.718 L 300.587 330.038 L 298.725 331.636 L 298.392 331.909 L 296.138 333.697 L 295.248 334.380 L 293.835 335.414 L 291.656 336.955 L 291.489 337.067 L 289.082 338.631 L 287.946 339.343 L 286.630 340.125 L 284.134 341.554 L 284.134 341.554 L 281.579 342.884 L 280.215 343.566 L 278.980 344.147 L 276.337 345.337 L 276.205 345.394 L 273.639 346.427 L 272.101 347.018 L 270.899 347.445 L 268.115 348.386 L 267.916 348.450 L 265.281 349.221 L 263.647 349.671 L 262.407 349.979 L 259.491 350.655 L 259.304 350.695 L 256.531 351.219 L 254.886 351.503 L 253.532 351.701 L 250.498 352.098 L 250.400 352.110 L 247.423 352.375 L 245.872 352.490 L 244.370 352.568 L 242.248 352.629 L 239.421 352.655 L 238.679 352.639 L 235.145 352.491 L 234.548 352.454 L 231.649 352.183 L 229.693 351.958 L 228.190 351.739 L 224.848 351.178 L 224.769 351.162 L 221.394 350.413 L 220.014 350.075 L 218.060 349.535 L 215.184 348.671 L 214.764 348.532 L 211.518 347.374 L 210.362 346.934 L 208.314 346.086 L 205.550 344.872 L 205.145 344.681 L 203.695 343.957 L 202.050 343.086 L 201.735 342.911 L 199.687 341.710 L 199.032 341.308 L 197.502 340.325 L 196.076 339.389 L 194.787 338.505 L 193.127 337.361 L 192.295 336.757 L 191.734 336.345 L 190.235 335.192 L 190.094 335.080 L 188.642 333.897 L 188.155 333.490 L 186.946 332.443 L 186.445 332.000 L 185.159 330.808 L 184.940 330.602 L 183.608 329.271 L 183.311 328.953 L 182.351 327.910 L 181.426 326.852 L 179.368 324.466 L 176.439 320.900 L 175.298 319.387 L 173.622 317.067 L 173.484 316.858 L 171.796 314.164 L 171.089 312.976 L 170.179 311.300 L 168.864 308.741 L 168.631 308.264 L 167.447 305.699 L 167.154 305.054 L 166.161 302.742 L 165.726 301.677 L 164.353 298.128 L 163.927 296.966 L 163.061 294.409 L 162.906 293.919 L 161.995 290.834 L 161.963 290.714 L 161.198 287.638 L 161.063 287.032 L 160.517 284.318 L 160.346 283.359 L 159.796 279.820 L 159.780 279.702 L 159.375 276.057 L 159.313 275.354 L 159.119 272.423 L 159.053 270.914 L 159.009 268.798 L 159.013 266.504 L 159.047 265.178 L 159.191 262.128 L 159.232 261.560 L 159.573 257.941 L 159.590 257.788 L 160.080 254.321 L 160.215 253.490 L 160.743 250.698 L 161.051 249.235 L 161.564 247.070 L 162.094 245.024 L 162.548 243.436 L 163.341 240.858 L 163.697 239.796 L 164.789 236.738 L 165.017 236.146 L 166.433 232.661 L 167.151 231.007 L 168.254 228.621 L 169.530 226.021 L 170.260 224.616 L 170.775 223.678 L 172.109 221.343 L 172.506 220.680 L 173.524 219.057 L 174.964 216.868 L 175.011 216.798 L 175.841 215.626 L 176.631 214.523 L 177.368 213.504 L 177.418 213.436 L 178.075 212.580 L 178.737 211.732 L 179.361 210.950 L 179.948 210.235 L 179.960 210.221 L 180.541 209.569 L 182.674 207.271 L 183.382 206.541 L 185.476 204.447 L 186.303 203.656 L 188.358 201.759 L 189.345 200.889 L 191.328 199.209 L 192.515 198.249 L 194.393 196.798 L 195.821 195.746 L 197.558 194.529 L 199.270 193.388 L 200.830 192.405 L 202.869 191.185 L 204.213 190.429 L 206.508 189.208 L 207.700 188.587 L 208.517 188.185 L 210.830 187.049 L 211.278 186.836 L 213.476 185.855 L 214.977 185.233 L 216.375 184.690 L 218.826 183.858 L 219.384 183.681 L 221.146 183.215 L 222.851 182.838 L 222.924 182.824 L 224.851 182.542 L 226.986 182.367 L 227.080 182.366 L 228.226 182.382" fill="none" stroke="#000000" stroke-width="13.260" stroke-linecap="round" stroke-linejoin="round"/>
<path d="M 431.026 201.787 L 367.294 221.393" fill="none" stroke="#000000" stroke-width="12.880" stroke-linecap="round" stroke-linejoin="round"/>
<path d="M 590.419 357.954 L 590.455 357.940 L 595.646 356.002 L 597.162 355.468 L 599.487 354.702 L 600.916 354.271 L 601.973 353.974 L 604.582 353.303 L 606.214 352.918 L 607.327 352.693 L 609.355 352.321 L 612.596 351.834 L 614.217 351.611 L 616.013 351.398 L 619.323 350.979 L 621.204 350.748 L 624.301 350.424 L 628.293 350.129 L 629.168 350.080 L 634.836 349.884 L 635.492 349.870 L 636.973 349.863 L 638.645 349.878 L 640.199 349.907 L 640.525 349.918 L 642.626 350.002 L 644.957 350.109 L 645.178 350.120 L 647.522 350.276 L 649.869 350.440 L 650.324 350.474 L 653.279 350.702 L 653.484 350.715 L 657.082 350.919 L 660.566 351.085 L 660.845 351.096 L 663.938 351.144 L 667.194 351.171 L 668.317 351.174 L 670.332 351.130 L 673.349 351.048 L 675.793 350.971 L 676.292 350.944 L 679.338 350.746 L 682.387 350.491 L 683.286 350.399 L 685.391 350.136 L 686.925 349.915 L 688.352 349.680 L 690.639 349.257 L 691.271 349.125 L 694.151 348.470 L 694.370 348.416 L 696.990 347.703 L 698.072 347.387 L 699.851 346.818 L 701.701 346.170 L 705.238 344.824 L 705.287 344.803 L 708.616 343.281 L 710.610 342.288 L 711.943 341.569 L 713.495 340.693 L 715.031 339.820 L 715.797 339.382 L 716.441 338.987 L 717.723 338.195 L 718.891 337.467 L 719.940 336.806 L 720.869 336.212 L 720.947 336.162 L 721.633 335.684 L 723.588 334.285 L 724.136 333.877 L 725.390 332.877 L 727.167 331.379 L 728.950 329.783 L 730.032 328.743 L 732.235 326.513 L 732.721 325.988 L 735.231 323.142 L 735.326 323.031 L 737.551 320.230 L 738.238 319.332 L 739.701 317.303 L 741.006 315.430 L 742.160 313.680 L 743.349 311.151 L 743.529 310.745 L 744.236 306.159 L 744.264 305.918 L 744.204 305.868 L 740.872 304.358 L 739.665 303.786 L 736.701 303.274 L 735.421 303.207 L 729.952 302.826 L 729.862 302.818 L 724.511 302.227 L 723.999 302.162 L 719.100 301.418 L 718.201 301.266 L 713.723 300.397 L 712.460 300.129 L 708.384 299.164 L 706.769 298.753 L 703.092 297.722 L 701.723 297.314 L 701.125 297.128 L 700.213 296.819 L 698.556 296.240 L 696.735 295.589 L 695.556 295.158 L 694.751 294.843 L 692.605 293.990 L 690.283 293.055 L 690.030 292.952 L 687.734 291.955 L 685.907 291.129 L 684.176 290.304 L 681.711 289.057 L 680.514 288.428 L 677.495 286.757 L 676.804 286.364 L 673.313 284.285 L 673.096 284.153 L 669.183 281.737 L 667.469 280.666 L 665.115 279.222 L 662.011 277.310 L 661.142 276.792 L 657.220 274.461 L 656.627 274.124 L 652.374 271.818 L 651.233 271.250 L 647.346 269.438 L 645.735 268.755 L 643.041 267.686 L 642.210 267.374 L 640.278 266.724 L 637.501 265.849 L 636.944 265.687 L 634.693 265.113 L 631.861 264.457 L 631.553 264.393 L 628.958 263.948 L 626.048 263.509 L 625.981 263.501 L 622.989 263.204 L 620.444 262.994 L 620.018 262.973 L 617.062 262.878 L 614.782 262.844 L 614.122 262.851 L 611.581 262.925 L 611.196 262.945 L 608.422 263.135 L 608.286 263.147 L 605.390 263.459 L 605.271 263.474 L 602.509 263.882 L 602.130 263.945 L 599.643 264.412 L 598.998 264.545 L 596.790 265.048 L 595.877 265.273 L 593.951 265.791 L 592.767 266.131 L 591.125 266.639 L 589.681 267.114 L 588.476 267.534" fill="none" stroke="#000000" stroke-width="13.355" stroke-linecap="round" stroke-linejoin="round"/>
<path d="M 586.029 979.385 L 586.003 979.405 L 585.654 979.660 L 585.286 979.905 L 584.932 980.115 L 584.915 980.124 L 584.058 980.202 L 581.001 980.470 L 579.100 980.741 L 577.937 980.664 L 575.527 980.578 L 574.524 980.543 L 573.461 980.517 L 571.528 980.470 L 571.516 980.470 L 569.693 980.463 L 567.992 980.456 L 566.413 980.450 L 564.956 980.445 L 564.089 980.442 L 563.621 980.437 L 562.408 980.424 L 561.316 980.412 L 560.347 980.402 L 559.498 980.394 L 558.770 980.387 L 558.161 980.381 L 557.668 980.377 L 557.281 980.375 L 556.412 980.371 L 554.386 980.349 L 551.596 980.334 L 546.394 980.325 L 541.542 980.296 L 541.255 980.289 L 536.791 980.172 L 535.617 980.131 L 534.139 980.088 L 533.823 980.080 L 532.467 980.045 L 530.595 980.004 L 528.520 979.963 L 526.587 979.929 L 526.238 979.923 L 523.748 979.886 L 521.063 979.851 L 519.589 979.830 L 519.586 979.830 L 518.011 979.810 L 516.320 979.786 L 514.518 979.758 L 512.846 979.730 L 512.604 979.726 L 510.578 979.692 L 509.483 979.672 L 508.442 979.652 L 506.195 979.605 L 505.907 979.599 L 503.837 979.550 L 502.136 979.509 L 501.368 979.490 L 498.789 979.422 L 498.172 979.405 L 496.100 979.346 L 494.013 979.286 L 493.300 979.264 L 490.391 979.175 L 489.659 979.152 L 487.371 979.078 L 485.111 979.004 L 484.247 978.975 L 480.355 978.837 L 460.328 978.073 L 444.059 977.411 L 436.769 977.081 L 413.565 975.972 L 407.610 975.671 L 390.716 974.743 L 371.019 973.605 L 368.219 973.431 L 346.077 971.991 L 334.286 971.188 L 333.215 971.111 L 331.779 971.004 L 329.964 970.866 L 327.767 970.698 L 325.185 970.499 L 324.291 970.429 L 322.218 970.262 L 318.865 969.990 L 315.125 969.687 L 310.998 969.351 L 306.485 968.982 L 302.950 968.693 L 301.587 968.561 L 300.908 968.494 L 298.440 968.229 L 296.309 968.015 L 295.648 967.949 L 292.928 967.743 L 290.631 967.591 L 285.836 967.272 L 284.564 967.159 L 278.342 966.608 L 278.117 966.611 L 275.593 966.641 L 271.936 967.517 L 271.831 967.565 L 271.592 967.699 L 271.577 967.712 L 271.510 967.841 L 271.328 968.277 L 271.070 969.619 L 270.734 971.175 L 270.607 971.730 L 270.604 972.909 L 270.586 974.521 L 270.625 974.907 L 270.844 977.197 L 270.887 977.659 L 271.080 979.809 L 271.082 979.836 L 271.250 981.829 L 271.322 982.711 L 271.401 983.636 L 271.534 985.256 L 271.647 986.685 L 271.738 987.918 L 271.769 988.375 L 271.817 989.010 L 272.085 992.499 L 272.237 994.242 L 272.384 995.793 L 272.880 1000.339 L 273.054 1001.837 L 273.444 1004.912 L 273.672 1006.663 L 273.869 1008.106 L 274.345 1011.573 L 274.569 1013.220 L 274.600 1013.443 L 274.923 1015.735 L 275.717 1019.987 L 276.783 1025.528 L 277.005 1026.977 L 277.484 1030.002 L 278.224 1034.197 L 278.296 1034.582 L 278.330 1034.757 L 278.428 1035.216 L 278.623 1036.107 L 278.873 1037.236 L 279.177 1038.593 L 279.357 1039.393 L 279.548 1040.173 L 279.991 1041.970 L 280.431 1043.748 L 280.489 1043.992 L 280.572 1044.337 L 280.719 1044.950 L 280.927 1045.822 L 281.198 1046.957 L 281.459 1048.051 L 281.525 1048.355 L 281.889 1050.024 L 282.310 1051.957 L 282.418 1052.455 L 282.783 1054.135 L 283.403 1056.954 L 283.935 1059.247 L 284.144 1060.088 L 284.493 1061.460 L 285.577 1065.495 L 285.735 1066.069 L 286.746 1069.655 L 287.442 1072.088 L 287.995 1073.964 L 289.235 1078.124 L 289.320 1078.400 L 291.106 1084.152 L 292.188 1087.515 L 293.037 1090.150 L 295.029 1096.093 L 295.301 1096.871 L 297.135 1102.034 L 297.141 1102.053 L 298.525 1105.774 L 299.007 1107.108 L 299.885 1109.432 L 300.841 1112.012 L 302.488 1116.261 L 302.631 1116.621 L 302.778 1116.999 L 302.971 1117.513 L 303.235 1118.234 L 303.561 1119.139 L 303.945 1120.217 L 304.385 1121.464 L 304.864 1122.829 L 304.881 1122.876 L 305.492 1124.544 L 306.043 1125.985 L 307.352 1129.254 L 307.771 1130.293 L 309.026 1133.211 L 310.200 1136.007 L 310.768 1137.302 L 314.267 1145.405 L 314.943 1146.953 L 314.966 1147.007 L 315.137 1147.412 L 315.413 1148.065 L 315.797 1148.973 L 316.289 1150.138 L 316.891 1151.560 L 317.601 1153.239 L 317.633 1153.315 L 318.483 1155.257 L 319.276 1157.001 L 320.468 1159.527 L 320.983 1160.543 L 321.787 1162.097 L 322.547 1163.574 L 322.683 1163.839" fill="none" stroke="#000000" stroke-width="13.911" stroke-linecap="round" stroke-linejoin="round"/>
<path d="M 586.029 979.385 L 587.087 979.815 L 587.948 979.980 L 590.859 980.462 L 590.917 980.460 L 592.805 980.521 L 593.336 980.568 L 599.713 980.482 L 605.905 980.398 L 611.778 980.317 L 611.947 980.314 L 617.332 980.221 L 622.566 980.130 L 627.481 980.043 L 629.870 980.000 L 632.076 979.953 L 636.351 979.861 L 640.307 979.775 L 643.943 979.694 L 647.259 979.618 L 647.793 979.606 L 650.254 979.540 L 652.927 979.467 L 655.279 979.400 L 657.306 979.340 L 659.013 979.287 L 664.940 979.093 L 665.716 979.067 L 670.758 978.882 L 676.459 978.668 L 682.045 978.455 L 683.638 978.392 L 687.515 978.228 L 692.869 977.997 L 698.107 977.767 L 701.560 977.611 L 703.229 977.531 L 708.235 977.285 L 713.125 977.039 L 717.899 976.795 L 719.482 976.712 L 722.558 976.541 L 727.099 976.284 L 731.525 976.027 L 735.835 975.772 L 737.401 975.677 L 740.037 975.509 L 743.414 975.293 L 746.644 975.088 L 747.688 975.022 L 749.722 974.887 L 752.649 974.694 L 755.424 974.513 L 758.049 974.342 L 758.112 974.338 L 760.523 974.176 L 762.831 974.022 L 768.312 973.648 L 768.677 973.621 L 773.898 973.232 L 779.377 972.805 L 779.596 972.788 L 785.384 972.306 L 790.212 971.886 L 797.229 971.259 L 801.183 970.890 L 809.306 970.113 L 812.290 969.817 L 823.534 968.673 L 833.837 967.600 L 834.918 967.485 L 846.075 966.278 L 846.440 966.238 L 858.102 964.950 L 858.140 964.946 L 869.899 963.559 L 876.521 962.763 L 881.830 962.083 L 893.895 960.510 L 894.785 960.392 L 906.095 958.846 L 918.450 957.132 L 919.336 957.005 L 920.450 956.840 L 921.782 956.638 L 923.339 956.399 L 925.125 956.121 L 927.144 955.805 L 929.395 955.450 L 931.374 955.136 L 931.880 955.051 L 934.595 954.592 L 936.468 954.274 L 937.541 954.075 L 940.717 953.486 L 941.529 953.335 L 944.125 952.846 L 946.738 952.353 L 947.770 952.170 L 951.654 951.479 L 952.910 951.255 L 955.844 951.133 L 956.010 951.126 L 959.416 951.870 L 959.579 951.939 L 960.142 952.219 L 960.427 952.386 L 960.485 952.426 L 960.505 952.450 L 960.519 952.478 L 960.562 952.588 L 960.595 952.755 L 960.686 953.334 L 960.792 954.181 L 960.901 955.278 L 961.004 956.612 L 961.033 957.111 L 960.806 958.245 L 960.768 958.442 L 960.717 958.717 L 960.652 959.075 L 960.565 959.547 L 960.465 960.097 L 960.452 960.137 L 960.234 960.823 L 959.978 961.627 L 959.684 962.549 L 959.353 963.589 L 958.985 964.747 L 958.579 966.024 L 958.135 967.419 L 957.654 968.932 L 957.226 970.280 L 957.136 970.565 L 956.585 972.317 L 956.010 974.148 L 954.201 979.782 L 953.563 981.790 L 951.036 989.445 L 950.992 989.581 L 948.400 997.387 L 947.763 999.315 L 945.892 1004.937 L 945.518 1006.064 L 943.452 1012.184 L 943.186 1012.974 L 941.087 1019.116 L 940.788 1019.987 L 940.560 1020.646 L 939.988 1022.278 L 939.372 1024.026 L 938.711 1025.890 L 938.289 1027.073 L 938.002 1027.867 L 937.241 1029.956 L 936.435 1032.159 L 935.584 1034.476 L 934.689 1036.907 L 933.749 1039.451 L 933.071 1041.283 L 932.760 1042.107 L 931.715 1044.871 L 930.625 1047.749 L 929.490 1050.739 L 928.310 1053.841 L 927.697 1055.448 L 927.080 1057.044 L 924.731 1063.085 L 923.889 1065.226 L 921.586 1071.016 L 920.739 1073.121 L 918.251 1079.238 L 917.635 1080.738 L 914.724 1087.745 L 914.583 1088.081 L 913.210 1091.322 L 911.823 1094.580 L 911.580 1095.148 L 910.551 1097.520 L 909.401 1100.149 L 908.613 1101.934 L 908.373 1102.470 L 907.459 1104.488 L 906.661 1106.219 L 906.009 1107.599 L 905.624 1108.411 L 904.760 1110.210 L 903.640 1112.603 L 902.714 1114.637 L 901.488 1117.299 L 901.418 1117.452 L 900.051 1120.428 L 899.310 1122.035 L 898.604 1123.541 L 898.120 1124.567 L 897.054 1126.781 L 896.843 1127.219 L 895.399 1130.145 L 893.666 1133.647 L 891.859 1137.288 L 891.052 1138.909 L 889.971 1141.045 L 886.888 1147.078 L 885.245 1150.251 L 883.716 1153.150 L 880.443 1159.274 L 879.382 1161.236 L 877.062 1165.444 L 873.588 1171.669 L 873.482 1171.856 L 871.976 1174.486 L 870.522 1177.003 L 869.981 1177.928 L 869.103 1179.414 L 867.723 1181.724 L 866.385 1183.935 L 866.220 1184.205 L 865.081 1186.044 L 864.599 1186.811 L 865.342 1189.687 L 866.275 1192.909 L 866.547 1193.860 L 866.438 1194.219" fill="none" stroke="#000000" stroke-width="13.754" stroke-linecap="round" stroke-linejoin="round"/>
<path d="M 121.463 302.834 L 63.737 322.486" fill="none" stroke="#000000" stroke-width="12.840" stroke-linecap="round" stroke-linejoin="round"/>
<path d="M 411.126 348.017 L 410.993 347.593 L 410.948 347.450 L 358.312 320.050 L 358.267 319.907 L 358.134 319.483" fill="none" stroke="#000000" stroke-width="12.788" stroke-linecap="round" stroke-linejoin="round"/>
<path d="M 890.276 364.859 L 890.302 364.821 L 890.378 364.726 L 890.500 364.595 L 890.596 364.504 L 890.612 364.494 L 890.939 364.291 L 891.388 364.036 L 891.935 363.755 L 892.954 363.269 L 894.504 362.603 L 894.776 362.495 L 896.756 361.778 L 897.110 361.659 L 898.699 361.178 L 899.730 360.887 L 900.443 360.711 L 901.122 360.553 L 901.635 360.440 L 902.366 360.296 L 904.256 359.990 L 905.011 359.889 L 906.901 359.705 L 907.659 359.653 L 909.619 359.587 L 910.307 359.583 L 912.408 359.644 L 912.955 359.675 L 915.264 359.885 L 915.601 359.924 L 918.184 360.316 L 918.247 360.327 L 920.892 360.887 L 921.161 360.953 L 923.540 361.597 L 924.148 361.782 L 925.398 362.201 L 926.178 362.491 L 926.524 362.632 L 928.755 363.658 L 929.089 363.824 L 931.317 365.078 L 931.582 365.239 L 934.064 366.912 L 934.139 366.967 L 936.463 368.837 L 936.777 369.109 L 938.728 370.962 L 939.199 371.440 L 940.806 373.232 L 941.409 373.948 L 943.209 376.303 L 943.477 376.583 L 945.125 378.483 L 945.973 379.063 L 948.761 381.167 L 949.242 380.899 L 950.517 379.667 L 951.974 378.285 L 952.758 377.556 L 953.164 376.906 L 954.065 375.499 L 954.342 375.078 L 954.822 374.113 L 955.514 372.772 L 955.727 372.377 L 956.211 371.499 L 956.650 370.739 L 956.882 370.358 L 957.538 369.314 L 957.852 368.852 L 958.530 367.855 L 958.988 367.227 L 961.608 363.693 L 961.767 363.487 L 963.447 361.416 L 964.505 360.154 L 965.226 359.336 L 966.056 358.423 L 967.101 357.332 L 967.585 356.843 L 969.080 355.427 L 971.106 353.577 L 971.136 353.550 L 973.217 351.835 L 975.004 350.419 L 975.362 350.155 L 977.575 348.590 L 979.170 347.510 L 979.822 347.105 L 982.121 345.741 L 983.550 344.937 L 984.448 344.468 L 985.931 343.737 L 986.819 343.325 L 988.316 342.673 L 989.221 342.305 L 990.762 341.724 L 991.580 341.440 L 993.272 340.923 L 993.584 340.837 L 995.695 340.349 L 995.848 340.316 L 998.221 339.884 L 998.461 339.840 L 999.703 339.652 L 1001.102 339.428 L 1001.109 339.428 L 1003.512 339.188 L 1004.145 339.164 L 1005.566 339.239 L 1006.141 339.306 L 1007.503 339.543 L 1007.814 339.618 L 1008.720 339.797 L 1009.320 339.881 L 1009.331 339.883" fill="none" stroke="#000000" stroke-width="13.145" stroke-linecap="round" stroke-linejoin="round"/>
<path d="M 184.148 378.438 L 184.274 378.835 L 184.418 379.287 L 157.762 430.933 L 157.906 431.385 L 158.032 431.782" fill="none" stroke="#000000" stroke-width="11.989" stroke-linecap="round" stroke-linejoin="round"/>
<path d="M 299.392 442.720 L 299.359 442.652 L 299.343 442.621 L 299.147 442.133 L 299.071 441.957 L 298.893 441.461 L 298.668 440.865 L 298.595 440.649 L 298.223 439.605 L 298.144 439.382 L 296.951 435.970 L 296.036 433.540 L 295.647 432.461 L 294.509 429.295 L 293.813 427.351 L 293.456 426.336 L 292.494 423.582 L 291.624 421.082 L 291.609 421.040 L 290.801 418.710 L 290.071 416.593 L 289.421 414.692 L 289.420 414.689 L 288.764 412.787 L 288.040 410.669 L 287.246 408.334 L 287.233 408.296 L 286.383 405.785 L 285.452 403.022 L 285.111 402.003 L 284.466 400.040 L 283.421 396.842 L 283.066 395.753 L 282.296 393.273 L 281.144 389.848 L 281.069 389.627 L 280.723 388.579 L 280.646 388.358 L 280.459 387.754 L 280.293 387.249 L 280.245 387.067 L 280.100 386.559 L 280.094 386.525 L 280.078 386.450" fill="none" stroke="#000000" stroke-width="12.798" stroke-linecap="round" stroke-linejoin="round"/>
<path d="M 583.535 414.780 L 583.543 414.736 L 583.834 414.069 L 583.955 413.384 L 587.410 408.689 L 589.120 409.542 L 590.738 410.344 L 592.951 411.454 L 594.304 412.133 L 597.679 413.846 L 600.233 415.161 L 600.861 415.490 L 603.847 417.079 L 606.647 418.595 L 607.305 418.958 L 609.254 420.060 L 610.813 420.962 L 611.681 421.474 L 614.385 423.115 L 615.071 423.542 L 618.539 425.763 L 618.952 426.034 L 622.072 428.143 L 623.441 429.090 L 625.673 430.676 L 627.871 432.272 L 629.342 433.369 L 632.244 435.576 L 633.074 436.224 L 636.565 438.998 L 636.869 439.246 L 640.760 442.470 L 640.838 442.537 L 645.041 446.217 L 645.408 446.547 L 649.158 450.072 L 649.668 450.560 L 651.420 452.250 L 652.356 453.171 L 653.504 454.280 L 654.989 455.749 L 655.398 456.160 L 657.196 458.016 L 657.756 458.585 L 660.664 461.679 L 662.473 463.675 L 664.209 465.588 L 665.043 466.519 L 667.531 469.390 L 667.553 469.416 L 670.648 473.179 L 673.651 476.877 L 675.681 479.411 L 676.527 480.498 L 679.256 484.056 L 681.875 487.525 L 683.564 489.798 L 684.359 490.900 L 687.368 495.121 L 690.201 499.119 L 691.196 500.532 L 692.836 502.933 L 695.290 506.553 L 697.582 509.965 L 698.655 511.579 L 699.697 513.183 L 700.249 514.044 L 701.619 516.219 L 701.732 516.400 L 703.128 518.677 L 703.349 519.040 L 704.485 520.918 L 705.326 522.296 L 707.183 525.338 L 707.190 525.350 L 708.998 528.195 L 709.961 529.709 L 710.699 530.862 L 711.244 531.712 L 712.267 533.366 L 712.469 533.694 L 713.680 535.722 L 714.984 537.901 L 715.096 538.088 L 716.212 539.978 L 716.706 540.838 L 717.339 541.981 L 718.088 543.364 L 719.331 545.686 L 720.155 547.787 L 720.360 548.256 L 720.697 550.125 L 721.147 552.235 L 721.162 552.306" fill="none" stroke="#000000" stroke-width="13.409" stroke-linecap="round" stroke-linejoin="round"/>
<path d="M 721.162 552.306 L 720.909 552.480 L 719.593 552.989 L 717.095 554.430 L 716.833 554.508 L 714.931 555.077 L 714.531 555.198 L 712.814 555.509 L 711.504 555.748 L 710.502 555.933 L 709.347 556.148 L 708.005 556.401 L 707.319 556.531 L 705.420 556.895 L 705.321 556.915 L 703.650 557.242 L 702.453 557.480 L 702.011 557.568 L 700.503 557.875 L 699.379 558.109 L 699.080 558.173 L 695.423 558.940 L 691.368 559.815 L 690.121 560.091 L 683.154 561.592 L 681.296 561.990 L 672.617 563.872 L 666.501 565.264 L 664.724 565.660 L 663.969 565.832 L 662.651 566.143 L 660.344 566.697 L 657.800 567.315 L 657.533 567.381 L 655.016 568.000 L 651.991 568.750 L 651.189 568.950 L 648.723 569.567 L 645.213 570.450 L 644.982 570.509 L 641.458 571.401 L 638.912 572.049 L 637.460 572.419 L 633.218 573.505 L 632.976 573.567 L 628.731 574.659 L 627.173 575.061 L 623.999 575.881 L 621.505 576.527 L 619.024 577.172 L 616.028 577.951 L 613.808 578.551 L 610.322 579.495 L 608.265 580.080 L 607.965 580.170 L 607.491 580.314 L 606.756 580.537 L 605.751 580.842 L 604.475 581.230 L 604.469 581.232 L 602.931 581.709 L 601.115 582.271 L 599.137 582.885 L 594.436 584.256 L 594.313 584.288" fill="none" stroke="#000000" stroke-width="13.154" stroke-linecap="round" stroke-linejoin="round"/>
<path d="M 721.162 552.306 L 722.395 553.035 L 723.546 553.786 L 723.676 553.877 L 725.505 556.237 L 726.166 557.089 L 727.083 558.747 L 728.337 561.010 L 729.413 562.949 L 730.314 564.567 L 730.365 564.659 L 731.039 565.870 L 731.601 566.872 L 731.990 567.556 L 734.071 571.169 L 737.737 577.564 L 739.027 579.825 L 741.312 583.876 L 744.805 590.098 L 745.751 591.791 L 748.204 596.237 L 751.525 602.284 L 752.194 603.509 L 754.744 608.241 L 758.294 614.837 L 758.383 615.003 L 759.136 616.403 L 759.974 617.946 L 760.871 619.592 L 761.791 621.273 L 761.822 621.329 L 763.845 625.009 L 765.244 627.553 L 765.969 628.871 L 768.612 633.700 L 770.253 636.696 L 771.886 639.719 L 772.246 640.385 L 773.167 642.106 L 774.065 643.806 L 775.040 645.624 L 775.398 646.290 L 776.808 648.829 L 778.225 651.332 L 779.570 653.703 L 781.776 657.673 L 782.049 658.367 L 782.840 660.518 L 782.841 660.527 L 783.053 663.216 L 783.256 665.092 L 783.232 665.259 L 783.225 665.402" fill="none" stroke="#000000" stroke-width="13.289" stroke-linecap="round" stroke-linejoin="round"/>
<path d="M 783.225 665.402 L 783.790 665.700 L 784.793 666.429 L 785.851 667.156 L 786.204 667.425 L 786.365 667.589 L 786.827 668.106 L 787.501 668.937 L 787.961 669.509 L 788.697 670.751 L 789.019 671.261 L 789.901 672.906 L 792.142 676.842 L 793.212 678.664 L 794.125 680.216 L 794.827 681.427 L 795.313 682.303 L 795.625 682.886 L 796.054 683.679 L 796.535 684.559 L 797.069 685.529 L 797.658 686.592 L 798.301 687.750 L 799.001 689.003 L 799.757 690.352 L 800.570 691.798 L 801.440 693.341 L 802.366 694.982 L 803.350 696.721 L 804.391 698.557 L 805.490 700.492 L 806.646 702.526 L 807.858 704.655 L 809.328 707.237 L 810.731 709.699 L 812.066 712.039 L 813.332 714.259 L 814.531 716.358 L 815.661 718.336 L 816.724 720.193 L 817.719 721.930 L 818.646 723.546 L 819.506 725.042 L 820.298 726.419 L 821.024 727.676 L 821.683 728.815 L 822.276 729.836 L 822.804 730.742 L 823.245 731.493 L 825.569 735.493 L 827.755 739.360 L 828.786 741.198 L 829.774 742.937 L 831.571 746.030 L 833.324 748.966 L 834.250 750.494 L 835.173 752.011 L 837.045 755.183 L 838.935 758.504 L 840.868 761.886 L 841.698 763.294 L 841.716 763.722 L 841.875 766.474 L 842.019 767.629" fill="none" stroke="#000000" stroke-width="13.285" stroke-linecap="round" stroke-linejoin="round"/>
<path d="M 783.225 665.402 L 781.463 666.100 L 779.139 667.208 L 777.494 667.528 L 776.199 667.778 L 774.139 667.925 L 770.901 668.155 L 769.342 668.266 L 767.771 668.397 L 763.528 668.755 L 761.769 668.910 L 757.581 669.292 L 755.959 669.432 L 751.355 669.862 L 744.448 670.509 L 743.762 670.580 L 738.405 671.183 L 736.052 671.460 L 735.246 671.560 L 732.000 671.973 L 727.753 672.522 L 723.687 673.048 L 722.914 673.148 L 719.791 673.564 L 716.065 674.061 L 712.509 674.536 L 709.774 674.902 L 709.122 674.992 L 705.905 675.435 L 702.857 675.856 L 699.979 676.253 L 697.269 676.628 L 696.646 676.715 L 694.729 676.988 L 692.357 677.327 L 690.155 677.643 L 688.120 677.935 L 686.254 678.204 L 684.551 678.451 L 683.531 678.600 L 682.712 678.723 L 680.667 679.035 L 678.426 679.383 L 675.988 679.765 L 673.350 680.183 L 670.514 680.636 L 670.442 680.648 L 667.479 681.136 L 664.244 681.673 L 660.808 682.246 L 657.374 682.821 L 657.172 682.856 L 653.337 683.516 L 649.302 684.213 L 645.065 684.947 L 644.321 685.076 L 640.630 685.733 L 635.994 686.559 L 631.245 687.408 L 631.173 687.421 L 628.335 687.918 L 627.441 688.073 L 625.307 688.428 L 623.369 688.754 L 619.065 689.452 L 618.833 689.489 L 614.687 690.173 L 612.093 690.651 L 612.069 690.656 L 609.368 691.265 L 606.608 691.903 L 605.519 692.145 L 605.220 692.212 L 603.950 692.474 L 602.382 692.780 L 602.308 692.793 L 600.883 693.045 L 599.589 693.279 L 599.337 693.326 L 598.426 693.475 L 597.401 693.650 L 597.255 693.675 L 596.397 694.225 L 596.286 694.309 L 595.950 694.555 L 595.555 694.908" fill="none" stroke="#000000" stroke-width="13.224" stroke-linecap="round" stroke-linejoin="round"/>
<path d="M 596.467 814.219 L 596.500 814.196 L 597.317 813.670 L 597.545 813.537 L 606.242 811.598 L 610.489 810.629 L 619.443 808.595 L 623.614 807.639 L 627.557 806.740 L 628.178 806.600 L 631.257 805.912 L 634.711 805.146 L 637.920 804.440 L 640.885 803.793 L 643.607 803.205 L 645.877 802.721 L 646.076 802.680 L 663.610 799.030 L 681.352 795.401 L 685.707 794.526 L 699.114 791.887 L 705.482 790.656 L 715.274 788.808 L 716.900 788.507 L 724.938 787.050 L 732.974 785.615 L 734.717 785.305 L 740.740 784.256 L 748.246 782.954 L 752.553 782.211 L 755.492 781.714 L 755.893 781.646 L 759.373 781.071 L 762.484 780.567 L 766.669 779.892 L 769.219 779.491 L 775.695 778.479 L 781.717 777.544 L 781.912 777.514 L 782.595 777.410 L 783.431 777.285 L 784.412 777.139 L 785.541 776.973 L 786.820 776.785 L 788.250 776.577 L 788.992 776.468 L 789.831 776.346 L 791.563 776.094 L 792.472 775.962 L 793.448 775.820 L 795.484 775.523 L 795.807 775.476 L 797.672 775.203 L 798.967 775.013 L 800.011 774.858 L 801.928 774.574 L 802.503 774.488 L 804.661 774.163 L 805.145 774.088 L 807.080 773.790 L 807.940 773.662 L 810.244 773.318 L 810.929 773.225 L 813.511 772.888 L 816.939 772.482 L 818.346 772.330 L 820.605 772.108 L 821.633 772.005 L 822.923 771.863 L 824.407 771.688 L 825.859 771.510 L 826.098 771.482 L 828.006 771.252 L 830.133 770.989 L 832.482 770.692 L 833.427 770.571 L 838.613 769.915 L 841.559 767.898 L 842.019 767.629" fill="none" stroke="#000000" stroke-width="13.180" stroke-linecap="round" stroke-linejoin="round"/>
<path d="M 842.019 767.629 L 843.358 768.280 L 843.807 768.472 L 844.614 768.966 L 845.269 769.377 L 845.790 769.714 L 846.014 769.865 L 846.189 770.046 L 847.034 771.220 L 847.782 772.202 L 848.419 773.357 L 848.764 773.935 L 849.506 775.449 L 850.508 777.291 L 850.871 777.919 L 851.758 779.411 L 851.794 779.471 L 852.752 780.966 L 853.096 781.491 L 854.548 783.700 L 855.805 785.608 L 856.089 786.055 L 857.692 788.574 L 858.750 790.233 L 859.384 791.240 L 861.161 794.055 L 861.586 794.727 L 863.048 797.004 L 864.491 799.250 L 865.040 800.089 L 867.145 803.305 L 869.346 806.664 L 871.642 810.167 L 874.034 813.812 L 876.522 817.601 L 879.105 821.532 L 879.688 822.419 L 881.825 825.621 L 883.058 827.446 L 884.361 829.343 L 887.028 833.182 L 887.421 833.750 L 889.747 837.043 L 892.432 840.947 L 894.980 844.668 L 895.213 844.998 L 897.808 848.710 L 898.845 850.156 L 900.841 852.992 L 902.553 855.370 L 904.050 857.414 L 905.076 858.835 L 906.170 860.403 L 906.266 860.543 L 908.049 863.074 L 908.780 864.078 L 909.957 865.698 L 911.404 867.689 L 911.593 867.959 L 912.981 869.899 L 913.005 869.933 L 914.338 871.803 L 914.641 872.220 L 916.181 874.398 L 916.186 874.404 L 916.573 874.912 L 917.674 876.140 L 917.984 876.566 L 919.433 878.556 L 919.451 878.609 L 920.227 880.792 L 920.893 882.673 L 921.069 883.173 L 921.141 884.473 L 921.148 884.603 L 920.524 885.043 L 917.871 886.846 L 914.523 887.947 L 913.145 888.170 L 912.528 888.264 L 911.705 888.388 L 910.645 888.545 L 909.339 888.737 L 907.785 888.965 L 905.981 889.228 L 903.936 889.526 L 902.435 889.747 L 901.687 889.858 L 901.045 889.953 L 899.761 890.145 L 898.585 890.325 L 897.519 890.491 L 896.563 890.645 L 895.724 890.784 L 894.896 890.927 L 888.898 891.911 L 882.935 892.784 L 882.518 892.842 L 877.192 893.573 L 871.686 894.346 L 863.384 895.550 L 855.154 896.728 L 844.328 898.261 L 838.708 899.046 L 825.337 900.894 L 822.388 901.296 L 806.411 903.449 L 806.194 903.478 L 790.125 905.587 L 787.550 905.920 L 774.182 907.628 L 768.749 908.313 L 759.692 909.443 L 758.365 909.607 L 750.832 910.530 L 742.673 911.523 L 742.176 911.582 L 738.079 912.070 L 733.722 912.581 L 733.381 912.621 L 725.469 913.527 L 723.741 913.723 L 717.418 914.431 L 713.833 914.828 L 709.572 915.296 L 703.757 915.928 L 701.929 916.127 L 694.490 916.926 L 687.256 917.695 L 683.475 918.092 L 680.226 918.437 L 673.463 919.146 L 673.401 919.153 L 666.782 919.848 L 663.643 920.174 L 660.495 920.498 L 660.367 920.510 L 657.169 920.823 L 654.153 921.108 L 653.684 921.152 L 650.037 921.481 L 648.143 921.647 L 646.228 921.811 L 645.654 921.859 L 643.041 922.071 L 642.256 922.133 L 640.300 922.283 L 638.122 922.447 L 637.431 922.497 L 634.436 922.712 L 633.824 922.755 L 631.313 922.926 L 629.363 923.056 L 628.063 923.140 L 624.738 923.352 L 624.687 923.355 L 621.184 923.568 L 619.950 923.642 L 617.555 923.781 L 614.997 923.927 L 613.799 923.994 L 609.918 924.207 L 609.881 924.208 L 605.909 924.417 L 604.601 924.485 L 601.775 924.627 L 599.157 924.757 L 597.514 924.836 L 596.393 924.890 L 596.067 925.088 L 595.720 925.336" fill="none" stroke="#000000" stroke-width="13.230" stroke-linecap="round" stroke-linejoin="round"/>
<path d="M 1139.279 422.556 L 1138.820 422.300 L 1137.767 421.788 L 1136.670 421.300 L 1136.593 421.274 L 1135.389 420.917 L 1134.963 420.807 L 1134.167 420.693 L 1132.935 420.562 L 1131.688 420.474 L 1130.928 420.447 L 1130.411 420.463 L 1129.088 420.547 L 1127.258 420.722 L 1127.138 420.742 L 1125.252 421.111 L 1123.676 421.467 L 1123.425 421.543 L 1121.669 422.127 L 1120.334 422.615 L 1119.951 422.776 L 1118.278 423.537 L 1116.964 424.177 L 1116.619 424.358 L 1115.041 425.233 L 1113.807 425.974 L 1111.690 427.325 L 1110.725 427.996 L 1108.394 429.708 L 1107.657 430.286 L 1105.181 432.383 L 1105.098 432.461 L 1102.828 434.671 L 1101.904 435.639 L 1100.629 437.033 L 1100.570 437.102 L 1099.359 438.579 L 1098.611 439.540 L 1098.231 440.058 L 1097.195 441.554 L 1096.216 443.053 L 1095.289 444.565 L 1095.285 444.572 L 1094.433 446.111 L 1093.174 448.549 L 1092.341 449.753 L 1091.532 451.004 L 1090.437 451.963 L 1088.050 454.354 L 1087.976 454.395 L 1087.271 454.857 L 1085.961 453.907 L 1083.678 452.367 L 1083.565 452.233 L 1081.820 450.286 L 1081.541 449.991 L 1080.229 448.205 L 1079.680 447.507 L 1078.488 446.089 L 1077.330 444.806 L 1077.000 444.465 L 1076.101 443.589 L 1074.743 442.344 L 1073.254 441.042 L 1073.199 440.996 L 1071.386 439.545 L 1071.320 439.493 L 1069.353 438.058 L 1069.229 437.972 L 1067.218 436.667 L 1067.015 436.546 L 1065.106 435.483 L 1064.655 435.253 L 1062.918 434.426 L 1062.153 434.092 L 1060.644 433.481 L 1059.514 433.062 L 1058.278 432.638 L 1056.743 432.158 L 1055.815 431.890 L 1053.761 431.352 L 1053.252 431.237 L 1050.946 430.769 L 1050.618 430.719 L 1048.464 430.444 L 1048.087 430.408 L 1046.408 430.338 L 1045.244 430.328 L 1044.412 430.368 L 1042.471 430.529 L 1042.428 430.534 L 1040.586 430.865 L 1039.662 431.065 L 1038.746 431.322 L 1036.965 431.892 L 1036.940 431.901 L 1035.111 432.685 L 1034.365 433.026 L 1033.724 433.364 L 1032.559 434.008 L 1032.082 434.293 L 1031.698 434.530 L 1031.119 434.931 L 1030.743 435.231 L 1030.718 435.255 L 1030.435 435.501 L 1030.090 435.857 L 1030.061 435.966 L 1030.056 435.992 L 1029.979 436.296 L 1029.970 436.348" fill="none" stroke="#000000" stroke-width="12.974" stroke-linecap="round" stroke-linejoin="round"/>
<path d="M 533.220 459.847 L 533.495 460.104 L 534.151 461.334 L 536.755 466.167 L 536.852 466.777 L 537.347 469.830 L 537.339 474.567 L 537.347 477.552 L 537.349 477.995 L 537.378 481.185 L 537.405 483.052 L 537.421 484.162 L 537.497 488.704 L 537.500 488.893 L 537.566 493.542 L 537.579 494.588 L 537.641 500.776 L 537.653 502.546 L 537.693 511.252 L 537.715 519.754 L 537.714 521.762 L 537.655 536.465 L 537.612 542.780 L 537.590 544.881 L 537.489 553.444 L 537.372 562.251 L 537.350 563.831 L 537.216 571.393 L 537.129 576.121 L 537.039 580.965 L 536.964 584.925 L 536.943 585.940 L 536.844 590.652 L 536.836 591.055 L 536.731 596.050 L 536.725 596.324 L 536.625 601.107 L 536.611 601.757 L 536.526 605.824 L 536.494 607.365 L 536.435 610.199 L 536.374 613.161 L 536.352 614.234 L 536.276 617.928 L 536.251 619.157 L 536.208 621.282 L 536.147 624.295 L 536.126 625.362 L 536.094 626.967 L 536.049 629.300 L 536.011 631.293 L 536.002 631.789 L 535.981 632.949 L 535.957 634.269 L 535.942 635.263 L 535.933 635.915 L 535.928 636.425 L 535.916 637.215 L 535.899 638.314 L 535.897 638.451 L 535.877 639.715 L 535.849 641.416 L 535.816 643.414 L 535.777 645.706 L 535.776 645.710 L 535.732 648.303 L 535.682 651.193 L 535.654 652.837 L 535.627 654.380 L 535.567 657.864 L 535.532 659.846 L 535.501 661.644 L 535.430 665.722 L 535.412 666.731 L 535.354 670.096 L 535.295 673.494 L 535.273 674.767 L 535.187 679.735 L 535.180 680.134 L 535.096 684.999 L 535.067 686.650 L 535.000 690.560 L 534.958 693.043 L 534.900 696.418 L 534.851 699.314 L 534.796 702.572 L 534.747 705.461 L 534.687 709.023 L 534.645 711.485 L 534.574 715.771 L 534.547 717.386 L 534.457 722.816 L 534.452 723.165 L 534.359 728.820 L 534.337 730.157 L 534.269 734.352 L 534.214 737.794 L 534.183 739.764 L 534.085 745.729 L 533.950 753.960 L 533.846 760.332 L 533.809 762.488 L 533.659 771.312 L 533.504 780.433 L 533.491 781.165 L 533.338 789.850 L 533.167 799.564 L 533.119 802.259 L 532.990 809.271 L 532.817 818.607 L 532.724 823.614 L 532.648 827.574 L 532.481 836.169 L 532.321 844.395 L 532.304 845.231 L 532.163 852.249 L 532.010 859.734 L 531.863 866.847 L 531.857 867.109 L 531.719 873.590 L 531.581 879.962 L 531.449 885.964 L 531.376 889.249 L 531.323 891.595 L 531.201 896.855 L 531.086 901.743 L 530.977 906.261 L 530.874 910.442 L 530.848 911.717 L 530.839 912.014 L 530.815 913.523 L 530.816 913.809 L 530.786 914.947 L 530.784 916.144 L 530.789 916.946 L 530.660 917.629 L 530.388 918.914 L 530.162 919.800 L 529.963 920.243 L 529.764 920.617 L 529.631 920.827 L 529.533 920.956 L 529.409 921.094 L 529.293 921.205 L 529.155 921.264 L 528.680 921.431 L 527.847 921.663 L 527.406 921.765 L 526.499 921.962 L 525.294 922.210 L 525.008 922.267 L 523.818 922.287 L 522.087 922.307 L 520.111 922.321 L 518.759 922.327 L 517.892 922.324 L 515.442 922.311 L 514.030 922.298 L 509.626 922.223 L 505.567 922.115 L 501.461 921.976 L 498.870 921.877 L 492.090 921.601 L 487.496 921.403 L 485.198 921.294 L 478.193 920.946 L 473.540 920.703 L 471.076 920.564 L 463.848 920.140 L 459.594 919.881 L 456.506 919.679 L 449.046 919.177 L 445.659 918.938 L 435.358 918.166 L 431.735 917.881 L 421.968 917.067 L 417.822 916.705 L 408.881 915.883 L 403.921 915.405 L 396.096 914.616 L 390.034 913.978 L 383.613 913.271 L 376.162 912.416 L 371.430 911.850 L 362.305 910.714 L 359.548 910.357 L 348.466 908.866 L 347.972 908.797 L 336.153 907.097 L 334.644 906.876 L 324.067 905.268 L 320.838 904.767 L 311.708 903.304 L 307.045 902.544 L 298.292 901.072 L 295.396 900.206 L 293.556 899.115 L 292.864 898.688 L 292.410 898.388 L 292.108 898.171 L 292.084 898.152 L 291.851 897.822 L 291.772 897.688 L 291.731 897.554 L 291.730 897.430 L 291.767 896.832 L 291.898 895.720 L 292.164 894.020 L 292.286 893.303 L 292.682 892.401 L 293.443 890.668 L 293.494 890.552 L 294.459 888.930 L 294.928 888.144 L 295.555 887.087 L 295.735 886.786 L 296.322 885.791 L 296.696 885.148 L 296.708 885.126 L 297.906 883.040 L 299.170 880.842 L 299.421 880.406 L 300.501 878.531 L 301.899 876.109 L 302.099 875.764 L 303.365 873.574 L 304.707 871.257 L 304.898 870.928 L 306.499 868.171 L 307.245 866.887 L 308.168 865.303 L 309.714 862.652 L 309.905 862.324 L 311.712 859.234 L 312.111 858.552 L 313.589 856.033 L 314.437 854.587 L 316.684 850.770 L 317.337 849.658 L 320.952 843.500 L 324.435 837.562 L 327.786 831.845 L 328.870 829.993 L 330.993 826.340 L 334.064 821.053 L 337.003 815.986 L 339.812 811.139 L 340.943 809.184 L 342.481 806.507 L 345.013 802.093 L 347.415 797.899 L 349.688 793.925 L 351.830 790.172 L 352.887 788.317 L 353.838 786.635 L 355.710 783.316 L 357.456 780.212 L 364.651 767.362 L 376.204 746.566 L 376.315 746.363 L 384.901 730.685 L 387.832 725.295 L 393.525 714.739 L 399.197 704.155 L 402.049 698.791 L 410.428 682.939 L 410.450 682.899 L 412.614 678.767 L 414.653 674.873 L 416.540 671.267 L 418.274 667.949 L 418.707 667.122 L 419.853 664.918 L 421.279 662.174 L 422.553 659.719 L 423.677 657.550 L 426.798 651.520 L 428.537 648.151 L 433.221 639.076 L 434.725 636.165 L 437.731 630.330 L 442.069 621.915 L 442.476 621.126 L 446.240 613.832 L 448.886 608.709 L 450.247 606.083 L 454.091 598.670 L 455.376 596.195 L 457.773 591.591 L 461.290 584.846 L 461.951 583.578 L 464.644 578.435 L 467.830 572.356 L 468.616 570.860 L 470.853 566.611 L 473.708 561.198 L 475.374 558.044 L 476.396 556.116 L 478.918 551.367 L 481.267 546.951 L 482.235 545.135 L 483.094 543.527 L 484.817 540.302 L 486.435 537.272 L 487.949 534.439 L 489.185 532.125 L 489.358 531.801 L 490.666 529.361 L 491.868 527.116 L 492.966 525.067 L 493.959 523.213 L 494.846 521.556 L 495.630 520.094 L 496.214 519.004 L 496.308 518.827 L 496.882 517.757 L 497.351 516.883 L 497.715 516.205 L 497.976 515.717 L 498.685 514.399 L 501.086 509.934 L 503.414 505.609 L 504.648 503.321 L 505.677 501.428 L 507.875 497.392 L 509.999 493.496 L 511.303 491.108 L 512.056 489.742 L 514.047 486.133 L 515.964 482.664 L 517.807 479.335 L 517.940 479.096 L 519.588 476.152 L 521.294 473.110 L 522.926 470.208 L 524.484 467.446 L 525.144 466.278 L 526.224 464.970 L 527.615 463.291 L 528.277 462.876 L 529.061 462.387 L 530.013 461.800 L 531.149 461.105 L 532.464 460.305 L 533.220 459.847" fill="none" stroke="#000000" stroke-width="13.092" stroke-linecap="round" stroke-linejoin="round"/>
<path d="M 103.167 1202.954 L 103.215 1202.923 L 103.628 1202.712 L 103.734 1202.653 L 104.661 1202.181 L 104.675 1202.173 L 105.490 1201.719 L 106.188 1201.328 L 113.151 1197.428 L 114.961 1196.437 L 120.653 1193.455 L 123.880 1191.806 L 128.063 1189.767 L 132.851 1187.496 L 135.361 1186.364 L 138.994 1184.785 L 141.905 1183.578 L 142.646 1183.287 L 146.092 1181.999 L 146.357 1181.906 L 150.128 1180.644 L 150.274 1180.598 L 153.963 1179.510 L 154.460 1179.372 L 157.860 1178.503 L 158.652 1178.314 L 161.821 1177.631 L 162.850 1177.426 L 165.822 1176.903 L 167.058 1176.711 L 169.194 1176.429 L 171.282 1176.200 L 172.568 1176.091 L 175.522 1175.904 L 175.960 1175.887 L 179.363 1175.829 L 179.776 1175.831 L 182.768 1175.918 L 184.042 1175.981 L 186.169 1176.142 L 188.319 1176.348 L 189.556 1176.499 L 192.607 1176.934 L 192.924 1176.988 L 196.259 1177.620 L 196.902 1177.756 L 199.556 1178.385 L 201.205 1178.811 L 202.809 1179.269 L 205.515 1180.101 L 206.012 1180.267 L 209.153 1181.388 L 209.819 1181.641 L 210.985 1182.116 L 212.220 1182.639 L 212.245 1182.651 L 213.618 1183.286 L 215.128 1184.000 L 215.196 1184.033 L 216.766 1184.829 L 218.162 1185.548 L 218.549 1185.752 L 220.476 1186.781 L 221.028 1187.078 L 222.521 1187.879 L 223.678 1188.496 L 224.932 1189.162 L 226.059 1189.750 L 227.664 1190.585 L 228.170 1190.844 L 230.010 1191.783 L 230.748 1192.157 L 231.583 1192.575 L 232.894 1193.225 L 233.983 1193.756 L 234.167 1193.843 L 236.391 1194.866 L 236.597 1194.956 L 238.940 1195.945 L 238.947 1195.948 L 241.222 1196.800 L 243.417 1197.585 L 244.090 1197.814 L 245.542 1198.249 L 247.586 1198.823 L 249.447 1199.309 L 249.543 1199.332 L 251.428 1199.728 L 252.284 1199.890 L 254.316 1200.232 L 255.092 1200.346 L 257.184 1200.610 L 257.923 1200.687 L 260.030 1200.862 L 260.770 1200.907 L 262.855 1200.987 L 263.623 1200.999 L 265.660 1200.984 L 266.478 1200.960 L 268.447 1200.851 L 269.326 1200.783 L 271.216 1200.585 L 272.161 1200.465 L 273.968 1200.182 L 274.978 1200.001 L 276.700 1199.637 L 277.703 1199.401 L 279.050 1199.054 L 279.414 1198.956 L 280.439 1198.655 L 281.927 1198.204 L 282.112 1198.146 L 283.513 1197.675 L 284.805 1197.232 L 285.206 1197.085 L 287.000 1196.415 L 287.501 1196.225 L 288.899 1195.662 L 290.208 1195.128 L 290.966 1194.800 L 292.011 1194.330 L 292.914 1193.901 L 293.187 1193.765 L 294.431 1193.118 L 295.650 1192.466 L 295.770 1192.400 L 297.207 1191.596 L 298.756 1190.712 L 299.351 1190.367 L 300.422 1189.748 L 301.307 1189.230 L 302.166 1188.727 L 303.407 1188.005 L 305.662 1186.695 L 305.723 1186.660 L 308.340 1185.183 L 309.248 1184.670 L 309.781 1184.382 L 311.328 1183.543 L 312.868 1182.708 L 312.983 1182.649 L 314.885 1181.674 L 316.610 1180.831 L 318.460 1179.933 L 319.152 1179.627 L 321.058 1178.738 L 322.396 1178.309 L 322.944 1178.151 L 325.952 1177.164 L 326.604 1176.926 L 329.060 1176.105 L 331.000 1175.392 L 331.992 1175.058 L 332.469 1174.909 L 332.722 1174.847 L 333.119 1174.776 L 334.505 1174.605 L 336.475 1174.214 L 338.314 1173.908 L 341.511 1173.431 L 341.966 1173.372 L 344.694 1173.100 L 347.454 1172.874 L 347.859 1172.854 L 351.009 1172.755 L 352.938 1172.728 L 354.144 1172.751 L 357.263 1172.865 L 358.413 1172.928 L 360.369 1173.099 L 363.463 1173.427 L 363.875 1173.478 L 366.541 1173.897 L 369.320 1174.384 L 369.614 1174.446 L 372.670 1175.140 L 374.699 1175.639 L 375.723 1175.918 L 376.571 1176.165 L 378.508 1176.760 L 378.759 1176.841 L 380.554 1177.452 L 381.783 1177.885 L 382.717 1178.232 L 384.747 1179.007 L 384.998 1179.111 L 387.386 1180.118 L 389.096 1180.853 L 389.898 1181.224 L 392.596 1182.490 L 393.409 1182.890 L 395.557 1183.979 L 397.849 1185.256 L 398.278 1185.493 L 400.013 1186.500 L 401.412 1187.311 L 402.408 1187.882 L 402.663 1188.030 L 403.061 1188.268 L 403.651 1188.626 L 403.880 1188.767 L 404.413 1189.086 L 405.045 1189.468 L 405.336 1189.640 L 406.319 1190.226 L 406.418 1190.284 L 407.658 1191.014 L 407.770 1191.080 L 409.097 1191.852 L 409.559 1192.117 L 412.976 1194.122 L 413.835 1194.654 L 416.493 1196.240 L 418.475 1197.426 L 418.937 1197.690 L 421.402 1199.042 L 423.126 1199.948 L 423.962 1200.364 L 426.596 1201.620 L 427.829 1202.182 L 429.270 1202.797 L 431.950 1203.884 L 432.597 1204.132 L 434.612 1204.844 L 437.219 1205.705 L 437.452 1205.776 L 440.456 1206.606 L 442.408 1207.104 L 443.688 1207.390 L 446.908 1208.043 L 447.454 1208.142 L 449.997 1208.531 L 450.120 1208.547 L 452.711 1208.829 L 453.325 1208.883 L 455.571 1209.035 L 456.520 1209.080 L 458.538 1209.133 L 459.705 1209.140 L 461.571 1209.112 L 462.881 1209.063 L 464.628 1208.961 L 466.049 1208.842 L 467.674 1208.670 L 469.208 1208.461 L 470.567 1208.247 L 472.356 1207.929 L 472.920 1207.816 L 475.069 1207.374 L 475.502 1207.282 L 477.107 1206.906 L 478.651 1206.531 L 479.038 1206.429 L 480.861 1205.932 L 481.806 1205.664 L 482.584 1205.427 L 484.207 1204.913 L 484.965 1204.662 L 485.831 1204.357 L 488.076 1203.490 L 490.298 1202.569 L 491.527 1202.008 L 494.514 1200.555 L 494.990 1200.314 L 498.470 1198.472 L 498.514 1198.449 L 502.108 1196.506 L 502.455 1196.314 L 503.844 1195.541 L 505.442 1194.620 L 507.166 1193.599 L 509.003 1192.488 L 509.423 1192.232 L 511.351 1191.062 L 513.454 1189.794 L 515.343 1188.663 L 516.769 1187.818 L 517.017 1187.677 L 518.483 1186.857 L 519.715 1186.179 L 520.695 1185.652 L 521.007 1185.490 L 521.421 1185.287 L 524.582 1183.814 L 525.340 1183.478 L 527.811 1182.452 L 529.698 1181.709 L 531.105 1181.196 L 534.076 1180.172 L 534.465 1180.050 L 537.898 1179.034 L 538.478 1178.873 L 541.402 1178.148 L 542.900 1177.803 L 544.975 1177.386 L 547.341 1176.952 L 548.598 1176.757 L 551.011 1176.431 L 551.807 1176.340 L 553.445 1176.201 L 555.915 1176.040 L 556.299 1176.022 L 558.361 1175.986 L 560.806 1176.008 L 563.496 1176.109 L 565.322 1176.238 L 568.619 1176.562 L 569.843 1176.721 L 573.736 1177.333 L 574.369 1177.450 L 578.789 1178.398 L 578.897 1178.424 L 583.425 1179.648 L 583.720 1179.735 L 587.956 1181.117 L 588.476 1181.301 L 590.904 1182.232 L 591.944 1182.653 L 593.978 1183.528 L 595.604 1184.265 L 599.434 1186.078 L 600.008 1186.359 L 602.948 1187.845 L 603.369 1188.061 L 605.661 1189.277 L 608.106 1190.588 L 609.211 1191.185 L 610.211 1191.726 L 611.551 1192.454 L 612.255 1192.845 L 614.197 1193.921 L 616.050 1194.946 L 617.815 1195.922 L 619.490 1196.847 L 619.844 1197.042 L 621.078 1197.720 L 622.074 1198.267 L 622.577 1198.541 L 623.990 1199.306 L 624.195 1199.416 L 625.316 1200.015 L 626.189 1200.479 L 626.554 1200.670 L 627.703 1201.270 L 628.060 1201.455 L 628.764 1201.815 L 629.732 1202.307 L 629.811 1202.347 L 630.611 1202.742 L 631.393 1203.126 L 631.448 1203.153 L 632.022 1203.425 L 632.984 1203.864 L 634.419 1204.496 L 636.094 1205.202 L 638.615 1206.188 L 639.915 1206.670 L 642.931 1207.692 L 643.532 1207.883 L 647.050 1208.876 L 647.362 1208.957 L 651.292 1209.894 L 651.874 1210.027 L 655.436 1210.758 L 656.442 1210.952 L 659.406 1211.446 L 661.067 1211.695 L 663.222 1211.958 L 665.752 1212.216 L 666.905 1212.298 L 670.470 1212.469 L 670.484 1212.469 L 673.995 1212.440 L 676.557 1212.343 L 677.519 1212.280 L 682.549 1211.824 L 682.562 1211.822 L 687.577 1211.119 L 688.461 1210.976 L 692.533 1210.198 L 694.294 1209.824 L 697.431 1209.061 L 700.050 1208.366 L 702.269 1207.708 L 705.731 1206.602 L 707.049 1206.139 L 711.338 1204.531 L 711.769 1204.355 L 716.459 1202.329 L 716.796 1202.178 L 717.477 1201.859 L 718.651 1201.297 L 719.948 1200.667 L 720.189 1200.548 L 721.361 1199.963 L 722.891 1199.191 L 723.274 1198.995 L 724.531 1198.342 L 726.284 1197.423 L 728.158 1196.433 L 729.026 1195.973 L 730.669 1195.088 L 731.948 1194.400 L 732.894 1193.887 L 734.826 1192.838 L 734.995 1192.746 L 736.467 1191.943 L 737.815 1191.207 L 738.282 1190.951 L 738.868 1190.630 L 739.614 1190.218 L 740.043 1189.980 L 740.122 1189.936 L 741.841 1188.995 L 745.653 1186.963 L 746.578 1186.498 L 751.327 1184.236 L 751.359 1184.222 L 756.159 1182.204 L 757.155 1181.810 L 761.069 1180.381 L 763.022 1179.715 L 766.059 1178.772 L 768.949 1177.943 L 771.133 1177.383 L 774.926 1176.497 L 776.292 1176.221 L 780.949 1175.382 L 781.506 1175.300 L 785.894 1174.765 L 787.016 1174.662 L 790.274 1174.468 L 793.115 1174.376 L 794.667 1174.378 L 799.059 1174.493 L 799.228 1174.502 L 803.426 1174.856 L 805.283 1175.052 L 807.753 1175.380 L 808.394 1175.478 L 811.447 1176.002 L 812.013 1176.109 L 814.498 1176.628 L 816.126 1176.999 L 817.544 1177.361 L 819.061 1177.778 L 820.574 1178.241 L 822.235 1178.783 L 823.584 1179.260 L 825.689 1180.048 L 826.577 1180.402 L 829.393 1181.585 L 829.556 1181.658 L 832.513 1183.039 L 835.094 1184.302 L 835.444 1184.484 L 836.497 1185.047 L 837.597 1185.645 L 838.773 1186.294 L 840.028 1186.995 L 840.632 1187.335 L 841.354 1187.765 L 842.753 1188.604 L 844.233 1189.499 L 845.797 1190.450 L 846.063 1190.613 L 847.424 1191.489 L 849.129 1192.593 L 850.918 1193.756 L 851.385 1194.061 L 852.763 1195.022 L 853.933 1195.840 L 854.694 1196.339 L 856.734 1197.679 L 856.889 1197.781 L 858.897 1199.020 L 859.938 1199.665 L 861.050 1200.310 L 861.716 1200.678 L 862.399 1201.019 L 863.500 1201.541 L 864.412 1201.882 L 864.755 1202.043 L 867.028 1203.111 L 868.454 1203.763 L 871.404 1204.968 L 872.085 1205.230 L 873.465 1205.706 L 875.571 1206.385 L 875.766 1206.443 L 877.756 1206.971 L 879.474 1207.379 L 880.092 1207.511 L 883.159 1208.087 L 884.346 1208.286 L 886.776 1208.638 L 888.595 1208.871 L 890.287 1209.050 L 892.830 1209.287 L 893.701 1209.349 L 895.311 1209.437 L 897.033 1209.495 L 897.055 1209.496 L 898.836 1209.488 L 900.726 1209.450 L 901.268 1209.433 L 902.707 1209.355 L 904.784 1209.219 L 905.461 1209.167 L 906.959 1209.022 L 909.259 1208.778 L 909.638 1208.734 L 913.080 1208.256 L 913.799 1208.145 L 916.872 1207.611 L 917.948 1207.407 L 920.619 1206.850 L 922.088 1206.522 L 924.364 1205.970 L 926.215 1205.480 L 930.337 1204.311 L 931.599 1203.930 L 934.448 1202.988 L 938.561 1201.554 L 938.724 1201.495 L 942.652 1199.948 L 945.706 1198.693 L 946.775 1198.226 L 948.299 1197.543 L 949.982 1196.779 L 951.801 1195.946 L 952.575 1195.587 L 953.741 1195.020 L 955.805 1194.008 L 957.999 1192.925 L 959.374 1192.242 L 960.314 1191.756 L 962.766 1190.479 L 964.075 1189.801 L 965.576 1189.031 L 966.066 1188.782 L 967.249 1188.183 L 969.097 1187.254 L 970.622 1186.492 L 971.126 1186.251 L 973.348 1185.195 L 975.141 1184.345 L 975.754 1184.069 L 978.402 1182.877 L 979.714 1182.301 L 982.049 1181.325 L 984.353 1180.405 L 985.756 1179.874 L 989.058 1178.687 L 989.483 1178.543 L 993.232 1177.341 L 993.822 1177.163 L 997.004 1176.268 L 998.635 1175.838 L 1000.795 1175.313 L 1003.481 1174.709 L 1004.605 1174.479 L 1008.351 1173.781 L 1008.437 1173.767 L 1012.291 1173.196 L 1013.237 1173.073 L 1016.166 1172.752 L 1018.126 1172.572 L 1020.060 1172.436 L 1023.007 1172.278 L 1023.974 1172.248 L 1027.874 1172.192 L 1027.906 1172.192 L 1031.856 1172.292 L 1032.718 1172.328 L 1035.821 1172.532 L 1037.532 1172.672 L 1039.841 1172.918 L 1042.331 1173.240 L 1043.808 1173.465 L 1046.138 1173.883 L 1047.841 1174.223 L 1049.858 1174.679 L 1051.890 1175.181 L 1053.469 1175.611 L 1055.943 1176.341 L 1056.973 1176.670 L 1059.987 1177.705 L 1060.374 1177.848 L 1063.675 1179.145 L 1064.003 1179.282 L 1066.879 1180.560 L 1067.973 1181.075 L 1070.083 1182.125 L 1071.805 1182.997 L 1071.910 1183.051 L 1072.100 1183.149 L 1072.381 1183.295 L 1072.767 1183.495 L 1073.259 1183.749 L 1073.858 1184.060 L 1074.565 1184.426 L 1075.379 1184.849 L 1076.300 1185.326 L 1076.808 1185.590 L 1077.332 1185.856 L 1078.473 1186.437 L 1079.723 1187.072 L 1081.080 1187.763 L 1082.546 1188.508 L 1083.339 1188.911 L 1084.123 1189.302 L 1085.755 1190.114 L 1089.583 1191.973 L 1089.621 1191.990 L 1093.395 1193.688 L 1095.743 1194.689 L 1097.246 1195.305 L 1098.451 1195.772 L 1101.168 1196.764 L 1101.219 1196.782 L 1104.029 1197.689 L 1105.168 1198.033 L 1106.873 1198.513 L 1109.238 1199.132 L 1109.752 1199.255 L 1112.670 1199.903 L 1113.379 1200.047 L 1115.626 1200.460 L 1117.413 1200.755 L 1117.726 1200.792 L 1117.859 1200.798 L 1118.003 1200.795 L 1118.161 1200.781 L 1118.218 1200.772 L 1118.326 1200.760" fill="none" stroke="#000000" stroke-width="12.986" stroke-linecap="round" stroke-linejoin="round"/>
<path d="M 1094.924 1267.866 L 1094.788 1267.925 L 1094.678 1267.962 L 1094.640 1267.976 L 1094.553 1268.001 L 1094.524 1268.006 L 1094.521 1268.006 L 1094.471 1268.004 L 1094.350 1267.986 L 1094.276 1267.978 L 1093.680 1267.855 L 1093.589 1267.836 L 1091.722 1267.339 L 1089.494 1266.658 L 1088.386 1266.278 L 1087.252 1265.866 L 1085.062 1264.994 L 1083.037 1264.155 L 1081.508 1263.489 L 1078.227 1262.057 L 1077.686 1261.820 L 1075.151 1260.656 L 1072.261 1259.326 L 1072.236 1259.315 L 1069.629 1258.089 L 1069.560 1258.057 L 1067.130 1256.923 L 1067.035 1256.879 L 1064.797 1255.845 L 1064.685 1255.794 L 1062.628 1254.853 L 1062.572 1254.828 L 1060.610 1253.968 L 1058.745 1253.170 L 1057.902 1252.820 L 1057.017 1252.473 L 1055.464 1251.887 L 1053.284 1251.089 L 1052.131 1250.694 L 1049.109 1249.669 L 1048.682 1249.526 L 1046.353 1248.801 L 1044.095 1248.110 L 1043.872 1248.047 L 1041.652 1247.435 L 1039.695 1246.912 L 1039.507 1246.864 L 1037.972 1246.509 L 1036.456 1246.185 L 1034.890 1245.891 L 1030.786 1245.216 L 1030.259 1245.144 L 1025.614 1244.614 L 1025.090 1244.566 L 1020.954 1244.301 L 1019.378 1244.236 L 1016.279 1244.191 L 1013.655 1244.212 L 1011.585 1244.285 L 1007.924 1244.495 L 1006.870 1244.583 L 1002.187 1245.082 L 1002.131 1245.089 L 997.372 1245.828 L 996.449 1245.992 L 992.587 1246.779 L 990.722 1247.199 L 987.759 1247.940 L 983.426 1249.106 L 981.458 1249.679 L 976.244 1251.289 L 975.421 1251.563 L 969.665 1253.583 L 969.167 1253.768 L 964.126 1255.761 L 962.279 1256.511 L 960.004 1257.453 L 956.065 1259.075 L 954.362 1259.772 L 952.360 1260.568 L 948.890 1261.938 L 946.715 1262.789 L 945.655 1263.186 L 942.650 1264.301 L 939.883 1265.314 L 939.195 1265.562 L 937.325 1266.198 L 935.392 1266.837 L 933.328 1267.495 L 931.714 1267.992 L 931.149 1268.152 L 928.846 1268.786 L 926.426 1269.432 L 924.154 1270.022 L 923.886 1270.086 L 921.216 1270.708 L 920.409 1270.892 L 918.369 1271.326 L 916.595 1271.680 L 913.467 1272.257 L 912.743 1272.376 L 908.837 1272.956 L 908.541 1272.995 L 904.868 1273.405 L 903.634 1273.523 L 900.857 1273.729 L 898.746 1273.844 L 895.133 1273.961 L 893.879 1273.970 L 889.501 1273.906 L 889.032 1273.887 L 884.207 1273.585 L 883.934 1273.562 L 879.407 1273.060 L 878.429 1272.929 L 874.632 1272.320 L 872.983 1272.018 L 869.884 1271.367 L 867.591 1270.831 L 865.167 1270.198 L 862.251 1269.368 L 860.480 1268.814 L 856.948 1267.624 L 855.826 1267.217 L 853.048 1266.139 L 851.214 1265.390 L 849.041 1264.449 L 846.630 1263.369 L 844.934 1262.568 L 842.129 1261.217 L 840.723 1260.526 L 839.201 1259.777 L 836.441 1258.433 L 833.777 1257.153 L 831.946 1256.286 L 831.206 1255.943 L 828.726 1254.809 L 827.331 1254.182 L 826.339 1253.749 L 824.044 1252.766 L 822.563 1252.145 L 821.875 1251.870 L 818.891 1250.722 L 818.199 1250.472 L 815.184 1249.450 L 814.554 1249.250 L 811.461 1248.340 L 810.902 1248.188 L 807.721 1247.394 L 807.243 1247.285 L 803.967 1246.613 L 803.575 1246.542 L 800.199 1245.998 L 799.898 1245.956 L 796.419 1245.548 L 796.209 1245.528 L 792.629 1245.265 L 792.508 1245.259 L 788.829 1245.148 L 788.792 1245.147 L 785.062 1245.196 L 785.022 1245.197 L 781.315 1245.404 L 781.208 1245.412 L 777.552 1245.772 L 777.390 1245.791 L 773.769 1246.301 L 773.568 1246.333 L 769.968 1246.991 L 769.742 1247.037 L 766.147 1247.845 L 765.915 1247.902 L 762.267 1248.874 L 762.053 1248.934 L 760.184 1249.506 L 758.174 1250.136 L 756.720 1250.604 L 756.280 1250.758 L 754.510 1251.394 L 752.853 1252.005 L 751.497 1252.521 L 751.312 1252.595 L 749.898 1253.184 L 748.576 1253.754 L 746.780 1254.548 L 746.466 1254.690 L 744.846 1255.447 L 742.785 1256.424 L 741.596 1256.995 L 740.602 1257.487 L 738.299 1258.637 L 735.870 1259.862 L 733.317 1261.161 L 732.394 1261.634 L 730.556 1262.577 L 728.011 1263.848 L 724.997 1265.323 L 723.811 1265.866 L 719.811 1267.619 L 719.328 1267.820 L 715.769 1269.188 L 713.607 1269.970 L 711.677 1270.612 L 707.848 1271.801 L 707.540 1271.888 L 703.352 1272.982 L 702.051 1273.295 L 699.129 1273.918 L 696.228 1274.477 L 694.877 1274.702 L 690.600 1275.330 L 690.385 1275.357 L 686.300 1275.772 L 684.507 1275.919 L 681.988 1276.057 L 679.235 1276.153 L 677.668 1276.162 L 673.972 1276.112 L 673.348 1276.086 L 669.036 1275.822 L 668.738 1275.798 L 664.741 1275.367 L 663.537 1275.212 L 660.467 1274.741 L 658.371 1274.376 L 656.210 1273.947 L 655.544 1273.802 L 654.599 1273.583 L 653.400 1273.295 L 653.254 1273.259 L 651.971 1272.914 L 650.317 1272.460 L 648.441 1271.938 L 648.196 1271.869 L 646.358 1271.312 L 644.117 1270.627 L 643.185 1270.331 L 641.456 1269.750 L 641.345 1269.711 L 639.647 1269.080 L 638.530 1268.649 L 637.746 1268.331 L 635.750 1267.499 L 635.611 1267.439 L 633.662 1266.569 L 632.570 1266.071 L 631.473 1265.556 L 629.182 1264.461 L 627.721 1263.751 L 626.800 1263.298 L 624.530 1262.173 L 623.049 1261.441 L 622.392 1261.114 L 620.369 1260.111 L 618.489 1259.179 L 618.461 1259.166 L 616.666 1258.283 L 614.985 1257.459 L 613.978 1256.966 L 613.418 1256.697 L 611.965 1256.000 L 610.628 1255.361 L 609.455 1254.802 L 609.408 1254.781 L 608.301 1254.271 L 607.315 1253.820 L 606.452 1253.428 L 605.717 1253.097 L 605.116 1252.831 L 604.849 1252.714 L 604.641 1252.628 L 601.916 1251.512 L 600.077 1250.771 L 599.362 1250.498 L 596.989 1249.609 L 595.121 1248.925 L 594.809 1248.818 L 592.818 1248.151 L 591.423 1247.701 L 591.032 1247.583 L 589.454 1247.129 L 588.107 1246.764 L 587.714 1246.667 L 583.998 1245.821 L 583.491 1245.716 L 580.285 1245.128 L 578.721 1244.875 L 576.578 1244.577 L 573.851 1244.257 L 572.876 1244.165 L 569.176 1243.898 L 568.938 1243.886 L 565.479 1243.799 L 564.044 1243.794 L 561.786 1243.847 L 559.230 1243.964 L 558.096 1244.050 L 554.553 1244.397 L 554.412 1244.415 L 550.742 1244.982 L 550.022 1245.109 L 547.088 1245.721 L 544.302 1246.365 L 543.439 1246.589 L 539.802 1247.612 L 538.736 1247.936 L 536.168 1248.792 L 533.358 1249.796 L 532.147 1250.267 L 528.272 1251.872 L 528.116 1251.940 L 526.994 1252.458 L 525.681 1253.083 L 524.560 1253.629 L 524.227 1253.798 L 522.645 1254.616 L 520.955 1255.506 L 520.930 1255.520 L 519.098 1256.536 L 517.138 1257.638 L 515.037 1258.832 L 514.086 1259.374 L 512.321 1260.401 L 509.884 1261.816 L 507.734 1263.061 L 507.300 1263.311 L 505.861 1264.120 L 504.269 1265.010 L 503.182 1265.614 L 502.950 1265.736 L 501.875 1266.297 L 501.026 1266.730 L 499.064 1267.685 L 496.858 1268.704 L 494.911 1269.562 L 492.626 1270.511 L 490.732 1271.255 L 488.317 1272.143 L 486.524 1272.757 L 483.930 1273.580 L 482.286 1274.057 L 479.464 1274.806 L 478.020 1275.148 L 474.918 1275.803 L 473.725 1276.019 L 470.292 1276.553 L 469.402 1276.663 L 465.605 1277.036 L 465.055 1277.073 L 460.685 1277.257 L 460.272 1277.264 L 456.294 1277.216 L 454.989 1277.166 L 451.879 1276.957 L 449.746 1276.758 L 447.438 1276.474 L 444.547 1276.042 L 442.970 1275.759 L 439.397 1275.020 L 438.459 1274.798 L 434.297 1273.706 L 433.854 1273.576 L 429.445 1272.176 L 429.247 1272.109 L 425.156 1270.580 L 424.257 1270.223 L 420.887 1268.781 L 419.633 1268.218 L 416.546 1266.767 L 414.927 1265.976 L 412.039 1264.529 L 407.262 1262.069 L 405.509 1261.151 L 404.766 1260.766 L 402.093 1259.367 L 401.139 1258.880 L 400.867 1258.745 L 399.982 1258.322 L 398.674 1257.713 L 397.201 1257.040 L 396.291 1256.631 L 395.547 1256.313 L 393.705 1255.534 L 391.862 1254.764 L 391.675 1254.691 L 389.812 1253.960 L 389.397 1253.805 L 387.832 1253.239 L 385.728 1252.531 L 382.222 1251.425 L 381.432 1251.195 L 378.901 1250.516 L 378.296 1250.371 L 375.793 1249.811 L 375.109 1249.675 L 372.630 1249.225 L 371.921 1249.110 L 369.501 1248.761 L 368.739 1248.665 L 366.371 1248.412 L 365.563 1248.342 L 363.240 1248.183 L 362.396 1248.141 L 360.108 1248.074 L 359.239 1248.066 L 356.978 1248.090 L 356.091 1248.117 L 353.850 1248.232 L 352.953 1248.296 L 350.727 1248.503 L 349.823 1248.605 L 347.610 1248.905 L 346.701 1249.045 L 344.502 1249.438 L 343.583 1249.620 L 341.406 1250.105 L 340.467 1250.333 L 338.324 1250.907 L 337.293 1251.204 L 335.252 1251.823 L 334.733 1251.991 L 332.334 1252.782 L 332.184 1252.832 L 330.160 1253.555 L 329.118 1253.936 L 328.209 1254.287 L 326.483 1254.972 L 326.064 1255.143 L 324.990 1255.603 L 323.737 1256.162 L 322.653 1256.669 L 322.539 1256.725 L 319.573 1258.191 L 319.059 1258.444 L 316.698 1259.624 L 314.092 1260.921 L 312.213 1261.850 L 311.752 1262.077 L 309.673 1263.091 L 308.886 1263.470 L 307.848 1263.961 L 306.270 1264.697 L 305.671 1264.971 L 304.896 1265.312 L 302.591 1266.284 L 300.788 1267.003 L 299.678 1267.416 L 296.623 1268.474 L 296.222 1268.602 L 292.757 1269.628 L 292.447 1269.713 L 289.295 1270.488 L 288.261 1270.719 L 285.837 1271.193 L 284.071 1271.498 L 282.382 1271.744 L 279.878 1272.051 L 278.927 1272.141 L 275.686 1272.376 L 275.470 1272.385 L 272.009 1272.462 L 271.496 1272.461 L 268.544 1272.378 L 267.313 1272.315 L 265.072 1272.139 L 263.139 1271.943 L 261.592 1271.743 L 258.976 1271.347 L 258.102 1271.190 L 254.825 1270.527 L 254.601 1270.476 L 251.092 1269.590 L 250.691 1269.479 L 247.573 1268.534 L 246.574 1268.209 L 244.023 1267.307 L 242.508 1266.743 L 242.470 1266.729 L 240.733 1266.012 L 238.709 1265.156 L 238.459 1265.049 L 236.452 1264.157 L 236.019 1263.961 L 233.960 1263.032 L 233.795 1262.957 L 231.717 1262.008 L 231.232 1261.787 L 229.781 1261.118 L 228.272 1260.422 L 227.988 1260.289 L 226.337 1259.522 L 225.036 1258.917 L 224.826 1258.821 L 223.452 1258.190 L 223.024 1257.994 L 222.216 1257.635 L 221.119 1257.147 L 220.885 1257.043 L 220.161 1256.731 L 219.346 1256.380 L 218.675 1256.092 L 218.662 1256.086 L 218.150 1255.873 L 217.783 1255.721 L 217.633 1255.659 L 216.343 1255.150 L 214.573 1254.471 L 213.926 1254.236 L 211.459 1253.364 L 211.410 1253.348 L 208.791 1252.497 L 208.263 1252.330 L 205.988 1251.652 L 204.979 1251.373 L 201.604 1250.503 L 200.978 1250.352 L 198.127 1249.769 L 195.896 1249.349 L 194.555 1249.145 L 190.934 1248.649 L 190.832 1248.637 L 187.775 1248.392 L 185.779 1248.287 L 184.607 1248.265 L 181.392 1248.290 L 180.753 1248.311 L 178.141 1248.484 L 175.770 1248.698 L 174.864 1248.811 L 171.576 1249.296 L 170.844 1249.421 L 168.292 1249.942 L 165.985 1250.465 L 165.020 1250.717 L 161.778 1251.636 L 161.201 1251.812 L 158.582 1252.705 L 156.503 1253.461 L 155.435 1253.887 L 152.356 1255.190 L 151.899 1255.395 L 149.362 1256.622 L 147.404 1257.621 L 146.451 1258.143 L 143.641 1259.760 L 143.030 1260.130 L 140.900 1261.504 L 138.787 1262.909 L 138.042 1263.435 L 135.481 1265.269 L 134.636 1265.886 L 133.255 1266.950 L 131.496 1268.338 L 131.213 1268.581 L 131.179 1268.614" fill="none" stroke="#000000" stroke-width="12.937" stroke-linecap="round" stroke-linejoin="round"/>
<path d="M 807.827 1068.474 L 808.279 1070.828 L 808.418 1071.799 L 808.652 1074.271 L 808.695 1075.171 L 808.694 1077.740 L 808.655 1078.558 L 808.405 1081.200 L 808.301 1081.930 L 807.788 1084.616 L 807.634 1085.258 L 806.850 1087.953 L 806.659 1088.511 L 805.603 1091.177 L 805.385 1091.658 L 804.059 1094.257 L 803.822 1094.672 L 802.237 1097.162 L 801.982 1097.523 L 800.155 1099.865 L 799.881 1100.184 L 797.836 1102.341 L 797.537 1102.628 L 795.304 1104.568 L 794.971 1104.830 L 792.584 1106.526 L 792.206 1106.767 L 789.704 1108.197 L 789.267 1108.419 L 786.690 1109.570 L 786.184 1109.766 L 783.572 1110.632 L 782.986 1110.793 L 780.377 1111.375 L 779.706 1111.489 L 777.134 1111.794 L 776.377 1111.845 L 773.873 1111.886 L 773.033 1111.856 L 770.622 1111.649 L 769.710 1111.523 L 767.411 1111.085 L 766.442 1110.848 L 764.267 1110.198 L 763.263 1109.841 L 761.220 1108.995 L 760.205 1108.513 L 758.298 1107.484 L 757.298 1106.878 L 755.530 1105.679 L 754.572 1104.956 L 752.943 1103.593 L 752.050 1102.767 L 750.562 1101.245 L 749.758 1100.335 L 748.414 1098.656 L 747.713 1097.685 L 746.521 1095.850 L 745.934 1094.843 L 744.903 1092.854 L 744.437 1091.837 L 743.579 1089.698 L 743.232 1088.695 L 742.562 1086.412 L 742.329 1085.447 L 741.865 1083.031 L 741.735 1082.121 L 741.495 1079.589 L 741.456 1078.750 L 741.456 1076.120 L 741.492 1075.362 L 741.748 1072.661 L 741.844 1071.987 L 742.367 1069.247 L 742.509 1068.658 L 743.307 1065.913 L 743.482 1065.403 L 744.556 1062.691 L 744.755 1062.252 L 746.101 1059.614 L 746.317 1059.236 L 747.924 1056.712 L 748.157 1056.381 L 750.005 1054.012 L 750.258 1053.718 L 752.323 1051.539 L 752.603 1051.271 L 754.854 1049.315 L 755.171 1049.066 L 757.572 1047.360 L 757.938 1047.126 L 760.451 1045.690 L 760.879 1045.473 L 763.462 1044.320 L 763.965 1044.124 L 766.577 1043.259 L 767.166 1043.096 L 769.769 1042.516 L 770.449 1042.400 L 773.008 1042.097 L 773.782 1042.045 L 776.266 1042.005 L 777.128 1042.035 L 779.514 1042.240 L 780.454 1042.370 L 782.723 1042.802 L 783.725 1043.046 L 785.865 1043.686 L 786.905 1044.056 L 788.910 1044.887 L 789.965 1045.388 L 791.831 1046.394 L 792.872 1047.025 L 794.599 1048.197 L 795.599 1048.951 L 797.186 1050.279 L 798.119 1051.142 L 799.568 1052.624 L 800.411 1053.577 L 801.717 1055.210 L 802.454 1056.230 L 803.613 1058.014 L 804.230 1059.074 L 805.233 1061.008 L 805.726 1062.082 L 806.560 1064.163 L 806.928 1065.225 L 807.579 1067.447 L 807.827 1068.474" fill="none" stroke="#000000" stroke-width="12.788" stroke-linecap="round" stroke-linejoin="round"/>
<path d="M 409.258 1086.567 L 409.120 1085.297 L 408.992 1083.218 L 408.973 1081.866 L 409.040 1079.860 L 409.154 1078.441 L 409.400 1076.524 L 409.659 1075.057 L 410.070 1073.239 L 410.483 1071.746 L 411.046 1070.035 L 411.617 1068.544 L 412.320 1066.943 L 413.048 1065.480 L 413.881 1063.991 L 414.760 1062.586 L 415.718 1061.209 L 416.735 1059.889 L 417.814 1058.623 L 418.952 1057.414 L 420.151 1056.259 L 421.387 1055.184 L 422.709 1054.143 L 424.016 1053.217 L 425.464 1052.297 L 426.814 1051.532 L 428.390 1050.742 L 429.752 1050.142 L 431.457 1049.494 L 432.805 1049.059 L 434.635 1048.569 L 435.942 1048.290 L 437.891 1047.976 L 439.136 1047.842 L 441.192 1047.724 L 442.358 1047.717 L 444.504 1047.814 L 445.580 1047.918 L 447.791 1048.246 L 448.773 1048.444 L 451.019 1049.014 L 451.908 1049.288 L 454.156 1050.108 L 454.957 1050.447 L 457.171 1051.517 L 457.890 1051.910 L 460.033 1053.223 L 460.680 1053.665 L 462.716 1055.209 L 463.300 1055.698 L 465.194 1057.452 L 465.723 1057.991 L 467.446 1059.930 L 467.925 1060.524 L 469.451 1062.617 L 469.883 1063.272 L 471.193 1065.486 L 471.576 1066.210 L 472.656 1068.511 L 472.986 1069.310 L 473.829 1071.663 L 474.098 1072.541 L 474.702 1074.911 L 474.899 1075.871 L 475.268 1078.228 L 475.381 1079.267 L 475.523 1081.581 L 475.539 1082.694 L 475.464 1084.941 L 475.370 1086.117 L 475.092 1088.278 L 474.876 1089.502 L 474.410 1091.562 L 474.063 1092.815 L 473.423 1094.761 L 472.940 1096.023 L 472.139 1097.847 L 471.519 1099.093 L 470.569 1100.791 L 469.815 1101.996 L 468.725 1103.564 L 467.846 1104.704 L 466.624 1106.139 L 465.634 1107.190 L 464.283 1108.491 L 463.200 1109.433 L 461.724 1110.594 L 460.570 1111.412 L 458.971 1112.428 L 457.770 1113.109 L 456.050 1113.972 L 454.826 1114.510 L 452.990 1115.209 L 451.767 1115.604 L 449.820 1116.125 L 448.620 1116.381 L 446.574 1116.710 L 445.415 1116.835 L 443.285 1116.957 L 442.180 1116.963 L 439.986 1116.864 L 438.946 1116.764 L 436.712 1116.432 L 435.740 1116.237 L 433.496 1115.667 L 432.594 1115.389 L 430.370 1114.578 L 429.534 1114.224 L 427.366 1113.176 L 426.592 1112.753 L 424.512 1111.479 L 423.794 1110.988 L 421.836 1109.504 L 421.169 1108.944 L 419.361 1107.271 L 418.742 1106.640 L 417.112 1104.806 L 416.539 1104.095 L 415.106 1102.130 L 414.583 1101.335 L 413.362 1099.272 L 412.893 1098.386 L 411.894 1096.258 L 411.488 1095.276 L 410.715 1093.117 L 410.384 1092.036 L 409.834 1089.876 L 409.591 1088.698 L 409.258 1086.567" fill="none" stroke="#000000" stroke-width="12.757" stroke-linecap="round" stroke-linejoin="round"/>
<path d="M 580.031 1080.827 L 580.187 1079.530 L 580.502 1077.656 L 580.793 1076.314 L 581.266 1074.546 L 581.702 1073.177 L 582.317 1071.524 L 582.903 1070.151 L 583.645 1068.618 L 584.383 1067.265 L 585.242 1065.855 L 586.127 1064.548 L 587.092 1063.262 L 588.117 1062.027 L 589.181 1060.864 L 590.331 1059.725 L 591.490 1058.684 L 592.746 1057.664 L 593.998 1056.745 L 595.338 1055.862 L 596.683 1055.068 L 598.081 1054.336 L 599.520 1053.671 L 600.948 1053.098 L 602.481 1052.569 L 603.911 1052.157 L 605.538 1051.776 L 606.943 1051.522 L 608.658 1051.301 L 610.015 1051.197 L 611.811 1051.151 L 613.101 1051.184 L 614.964 1051.326 L 616.171 1051.482 L 618.083 1051.827 L 619.198 1052.088 L 621.137 1052.647 L 622.155 1052.998 L 624.094 1053.777 L 625.015 1054.203 L 626.924 1055.205 L 627.751 1055.694 L 629.600 1056.915 L 630.339 1057.458 L 632.095 1058.888 L 632.752 1059.479 L 634.385 1061.102 L 634.967 1061.741 L 636.450 1063.535 L 636.963 1064.222 L 638.272 1066.163 L 638.718 1066.900 L 639.833 1068.958 L 640.215 1069.749 L 641.123 1071.893 L 641.436 1072.743 L 642.129 1074.941 L 642.370 1075.853 L 642.844 1078.073 L 643.005 1079.048 L 643.263 1081.260 L 643.335 1082.295 L 643.382 1084.472 L 643.355 1085.564 L 643.202 1087.681 L 643.065 1088.820 L 642.722 1090.856 L 642.467 1092.032 L 641.949 1093.970 L 641.568 1095.166 L 640.889 1096.994 L 640.378 1098.191 L 639.549 1099.900 L 638.907 1101.078 L 637.943 1102.661 L 637.173 1103.798 L 636.083 1105.250 L 635.193 1106.324 L 633.986 1107.643 L 632.987 1108.633 L 631.670 1109.815 L 630.578 1110.702 L 629.155 1111.745 L 627.991 1112.513 L 626.466 1113.413 L 625.252 1114.049 L 623.627 1114.800 L 622.386 1115.298 L 620.666 1115.890 L 619.421 1116.249 L 617.612 1116.673 L 616.386 1116.895 L 614.496 1117.138 L 613.308 1117.229 L 611.349 1117.280 L 610.216 1117.251 L 608.205 1117.097 L 607.138 1116.959 L 605.095 1116.591 L 604.101 1116.358 L 602.051 1115.767 L 601.133 1115.451 L 599.105 1114.635 L 598.263 1114.246 L 596.285 1113.208 L 595.515 1112.753 L 593.620 1111.501 L 592.918 1110.986 L 591.134 1109.533 L 590.496 1108.959 L 588.852 1107.325 L 588.273 1106.690 L 586.794 1104.900 L 586.271 1104.200 L 584.978 1102.281 L 584.512 1101.513 L 583.419 1099.496 L 583.013 1098.653 L 582.131 1096.570 L 581.791 1095.649 L 581.124 1093.532 L 580.859 1092.529 L 580.406 1090.410 L 580.227 1089.325 L 579.983 1087.233 L 579.902 1086.069 L 579.858 1084.028 L 579.889 1082.793 L 580.031 1080.827" fill="none" stroke="#000000" stroke-width="12.622" stroke-linecap="round" stroke-linejoin="round"/>
<path d="M 177.956 656.404 L 177.840 656.414 L 177.008 656.503 L 175.990 656.625 L 174.979 656.760 L 174.617 656.872 L 173.042 657.327 L 171.450 657.913 L 169.433 658.548 L 168.205 658.897 L 166.428 659.315 L 164.984 659.613 L 163.396 659.875 L 161.777 660.095 L 160.342 660.243 L 158.566 660.376 L 157.266 660.443 L 155.323 660.487 L 154.161 660.497 L 152.010 660.454 L 151.018 660.427 L 148.304 660.277 L 147.820 660.229 L 147.420 660.178 L 146.800 660.089 L 146.579 660.054 L 146.002 659.917 L 145.042 659.679 L 143.926 659.394 L 142.727 659.081 L 142.662 659.060 L 141.274 658.611 L 139.811 658.132 L 138.950 657.837 L 138.037 657.476 L 136.391 656.778 L 135.145 656.212 L 134.803 656.040 L 133.285 655.226 L 131.809 654.384 L 131.371 654.118 L 130.392 653.478 L 129.536 652.885 L 129.030 652.509 L 127.812 651.553 L 127.722 651.477 L 126.474 650.370 L 126.195 650.108 L 125.281 649.193 L 124.684 648.561 L 124.141 647.947 L 123.282 646.919 L 123.055 646.628 L 122.024 645.234 L 121.991 645.187 L 121.060 643.755 L 120.820 643.365 L 120.154 642.198 L 119.731 641.411 L 119.317 640.559 L 117.970 637.598 L 117.856 637.307 L 116.734 634.187 L 116.555 633.634 L 115.915 631.217 L 115.540 629.562 L 115.343 628.404 L 115.068 626.307 L 114.983 625.391 L 114.938 624.251 L 114.928 622.183 L 114.954 621.150 L 115.038 620.058 L 115.262 617.845 L 115.378 616.876 L 115.604 615.543 L 116.154 612.566 L 116.600 610.639 L 117.217 608.289 L 117.327 607.911 L 117.443 607.573 L 117.684 606.886 L 117.961 606.108 L 118.272 605.248 L 118.279 605.229 L 118.681 604.259 L 119.129 603.183 L 119.424 602.479 L 119.644 602.006 L 120.359 600.478 L 120.843 599.552 L 121.854 597.753 L 122.517 596.775 L 123.641 595.201 L 124.437 594.186 L 125.172 593.293 L 126.422 591.785 L 126.452 591.749 L 127.578 590.466 L 128.505 589.419 L 128.612 589.304 L 129.188 588.694 L 129.557 588.322 L 129.983 587.899 L 130.412 587.492 L 130.907 587.032 L 131.190 586.779 L 131.940 586.136 L 131.969 586.113 L 133.185 585.172 L 134.383 584.273 L 134.523 584.176 L 136.010 583.167 L 136.916 582.570 L 137.523 582.199 L 139.545 581.045 L 140.356 580.620 L 142.278 579.721 L 143.296 579.288 L 145.105 578.602 L 146.428 578.153 L 148.013 577.676 L 149.708 577.230 L 150.996 576.934 L 153.086 576.527 L 154.183 576.346 L 155.069 576.248 L 155.926 576.181 L 156.518 576.143 L 156.844 576.131 L 157.924 576.100 L 159.196 576.069 L 159.930 576.054 L 160.672 576.057 L 162.357 576.069 L 163.904 576.083 L 164.521 576.047 L 165.963 576.018 L 167.003 575.826 L 168.850 575.542 L 169.009 575.511 L 169.016 575.498 L 169.327 574.673 L 170.142 572.598 L 170.177 572.438 L 170.644 570.637 L 170.742 570.117 L 171.176 568.223 L 171.266 567.874 L 171.659 566.553 L 171.935 565.721 L 172.703 563.646 L 172.987 562.950 L 173.589 561.566 L 174.750 559.181 L 175.422 557.811 L 175.794 557.135 L 176.920 555.067 L 177.455 554.111 L 178.364 552.622 L 179.695 550.589 L 179.826 550.402 L 181.395 548.290 L 182.172 547.311 L 183.048 546.249 L 184.794 544.260 L 184.858 544.191 L 186.675 542.338 L 187.542 541.502 L 188.696 540.473 L 190.427 539.010 L 190.878 538.659 L 193.443 536.757 L 194.274 536.194 L 196.456 534.786 L 197.541 534.121 L 198.844 533.369 L 200.590 532.368 L 200.914 532.195 L 202.795 531.201 L 203.384 530.894 L 204.485 530.372 L 205.663 529.822 L 205.983 529.684 L 207.307 529.127 L 208.188 528.771 L 208.491 528.650 L 209.567 528.250 L 213.767 526.859 L 215.268 526.354 L 215.968 526.140 L 217.701 525.670 L 220.967 524.885 L 221.459 524.782 L 225.234 524.080 L 226.700 523.842 L 228.969 523.544 L 232.464 523.169 L 232.667 523.154 L 233.252 523.125 L 234.104 523.098 L 235.099 523.077 L 236.288 523.057 L 236.338 523.056 L 237.689 523.071 L 239.310 523.093 L 239.971 523.103 L 241.154 523.151 L 243.286 523.240 L 243.577 523.255 L 246.152 523.453 L 247.164 523.555 L 248.919 523.776 L 250.729 524.054 L 251.537 524.198 L 253.943 524.710 L 254.264 524.787 L 257.772 525.720 L 259.979 526.366 L 261.280 526.773 L 262.984 527.352 L 264.777 528.001 L 265.954 528.459 L 268.258 529.426 L 268.913 529.718 L 271.708 531.076 L 271.859 531.154 L 274.786 532.798 L 275.048 532.960 L 277.284 534.438 L 277.520 534.606 L 279.422 536.021 L 279.430 536.027 L 281.079 537.334 L 281.559 537.718 L 282.671 538.661 L 283.690 539.551 L 284.236 540.051 L 285.790 541.542 L 285.791 541.543 L 287.327 543.176 L 287.778 543.691 L 288.843 544.966 L 290.328 546.888 L 291.497 548.498 L 291.901 549.097 L 292.907 550.668 L 293.312 551.367 L 294.150 552.896 L 294.566 553.732 L 295.290 555.274 L 295.676 556.176 L 296.327 557.795 L 296.656 558.686 L 297.260 560.441 L 297.518 561.252 L 298.074 563.143 L 298.267 563.870 L 298.968 566.750 L 299.444 569.306 L 299.549 570.269 L 300.109 572.181 L 300.816 575.295 L 300.838 575.421 L 300.929 575.447 L 302.183 575.324 L 304.578 575.118 L 306.205 575.056 L 307.130 574.862 L 309.554 574.464 L 311.488 574.225 L 311.965 574.183 L 314.373 574.062 L 315.330 574.045 L 316.772 574.075 L 319.107 574.195 L 319.160 574.200 L 321.527 574.482 L 322.816 574.673 L 323.868 574.870 L 326.176 575.367 L 326.466 575.437 L 328.435 575.996 L 330.060 576.504 L 330.647 576.712 L 332.796 577.538 L 333.604 577.874 L 334.878 578.460 L 336.896 579.459 L 337.073 579.554 L 338.852 580.596 L 339.322 580.895 L 341.383 582.341 L 342.185 582.960 L 343.299 583.905 L 345.161 585.638 L 345.190 585.667 L 346.897 587.544 L 347.845 588.641 L 348.444 589.410 L 349.780 591.232 L 350.185 591.823 L 350.957 593.087 L 352.065 595.040 L 352.163 595.226 L 353.083 597.208 L 353.781 598.821 L 354.089 599.645 L 355.044 602.369 L 355.108 602.568 L 355.841 605.293 L 356.120 606.508 L 356.399 608.090 L 356.715 610.387 L 356.754 610.845 L 356.882 613.594 L 356.888 614.370 L 356.809 616.366 L 356.656 618.375 L 356.557 619.195 L 356.101 622.108 L 356.053 622.364 L 355.413 625.103 L 355.093 626.302 L 354.464 628.312 L 353.820 630.163 L 353.325 631.407 L 352.232 633.917 L 352.000 634.391 L 350.485 637.250 L 350.351 637.483 L 348.790 639.978 L 348.076 641.043 L 346.959 642.592 L 345.629 644.317 L 344.990 645.088 L 342.990 647.348 L 342.884 647.459 L 340.625 649.682 L 340.152 650.117 L 338.228 651.758 L 337.137 652.630 L 335.703 653.685 L 333.956 654.886 L 333.051 655.456 L 330.615 656.882 L 330.278 657.061 L 327.383 658.485 L 327.162 658.585 L 324.381 659.735 L 324.131 659.829 L 321.239 660.837 L 321.081 660.887 L 318.318 661.696 L 317.974 661.790 L 315.361 662.432 L 314.816 662.554 L 312.415 663.032 L 311.608 663.175 L 309.484 663.499 L 308.349 663.648 L 306.569 663.838 L 305.041 663.967 L 303.671 664.051 L 301.651 664.129 L 300.791 664.138 L 298.311 664.106 L 297.927 664.088 L 295.080 663.888 L 294.967 663.877 L 292.253 663.527 L 291.653 663.434 L 289.446 663.016 L 288.373 662.784 L 286.659 662.353 L 285.130 661.926 L 283.891 661.537 L 281.927 660.862 L 281.142 660.564 L 278.768 659.590 L 278.410 659.431 L 275.523 658.050 L 274.599 657.547 L 274.341 657.456 L 272.946 656.902 L 271.407 656.252 L 270.626 655.911 L 270.599 655.908 L 270.474 655.938 L 270.382 655.967 L 270.192 656.200 L 269.073 657.631 L 267.741 659.179 L 267.684 659.274 L 266.371 661.067 L 265.549 662.060 L 265.070 662.622 L 264.156 663.615 L 263.734 664.057 L 262.967 664.810 L 262.009 665.705 L 261.504 666.152 L 261.175 666.435 L 260.836 666.723 L 260.052 667.371 L 259.160 668.095 L 258.457 668.656 L 258.160 668.885 L 257.048 669.732 L 256.239 670.341 L 255.825 670.630 L 254.579 671.486 L 253.727 672.043 L 251.133 673.631 L 250.990 673.714 L 248.474 675.040 L 247.301 675.626 L 245.830 676.293 L 243.450 677.315 L 243.266 677.386 L 240.823 678.274 L 239.459 678.733 L 238.577 678.996 L 235.365 679.850 L 234.844 679.970 L 231.226 680.692 L 230.969 680.734 L 227.085 681.254 L 226.974 681.265 L 222.962 681.532 L 222.888 681.535 L 220.519 681.535 L 218.744 681.489 L 217.986 681.439 L 215.380 681.202 L 214.576 681.110 L 212.705 680.810 L 210.413 680.389 L 209.957 680.282 L 207.151 679.558 L 206.392 679.346 L 204.284 678.672 L 202.580 678.092 L 201.424 677.665 L 198.992 676.683 L 198.205 676.333 L 195.521 674.999 L 195.247 674.848 L 192.479 673.154 L 192.198 672.964 L 189.895 671.228 L 189.061 670.538 L 187.478 669.070 L 186.206 667.780 L 185.208 666.674 L 184.766 666.141 L 183.459 664.463 L 183.118 663.997 L 182.228 662.673 L 180.948 660.649 L 180.855 660.484 L 180.107 659.322 L 179.860 658.866 L 179.278 658.125 L 178.271 656.781 L 177.980 656.425 L 177.956 656.404" fill="none" stroke="#000000" stroke-width="13.197" stroke-linecap="round" stroke-linejoin="round"/>
<path d="M 908.174 591.750 L 907.541 591.782 L 905.461 591.949 L 905.137 591.918 L 903.330 591.798 L 902.863 591.734 L 900.611 591.494 L 900.356 591.474 L 898.342 591.380 L 898.092 591.375 L 896.061 591.402 L 895.830 591.412 L 893.769 591.561 L 893.563 591.581 L 891.397 591.864 L 891.284 591.883 L 889.068 592.326 L 888.995 592.344 L 886.804 592.959 L 886.702 592.993 L 884.671 593.723 L 884.336 593.857 L 882.691 594.547 L 882.646 594.566 L 881.199 595.230 L 880.710 595.467 L 878.838 596.419 L 878.585 596.551 L 877.031 597.462 L 876.302 597.893 L 875.336 598.528 L 875.115 598.684 L 874.225 599.345 L 873.337 600.043 L 872.289 600.941 L 871.556 601.599 L 870.479 602.648 L 869.872 603.269 L 868.821 604.430 L 868.279 605.059 L 867.309 606.277 L 866.119 607.850 L 865.905 608.157 L 864.631 610.089 L 864.219 610.751 L 863.474 612.066 L 862.571 613.760 L 862.417 614.080 L 861.490 616.151 L 861.189 616.875 L 860.677 618.272 L 860.066 620.085 L 859.964 620.439 L 859.382 622.667 L 859.214 623.384 L 858.918 624.950 L 858.622 626.762 L 858.559 627.289 L 858.329 629.687 L 858.296 630.141 L 858.213 632.111 L 858.193 633.506 L 858.194 633.604 L 858.259 635.148 L 858.368 636.663 L 858.382 636.794 L 858.617 638.539 L 858.812 639.748 L 858.944 640.388 L 859.395 642.332 L 859.511 642.785 L 860.001 644.360 L 860.477 645.785 L 860.719 646.396 L 861.737 648.748 L 862.185 649.647 L 863.314 651.677 L 863.840 652.524 L 865.246 654.564 L 865.669 655.132 L 866.940 656.666 L 867.678 657.495 L 868.768 658.600 L 869.876 659.643 L 870.736 660.373 L 872.287 661.593 L 872.835 661.981 L 874.939 663.355 L 875.051 663.421 L 877.383 664.675 L 877.933 664.945 L 879.322 665.570 L 879.806 665.775 L 880.817 666.163 L 882.279 666.673 L 884.222 667.293 L 884.891 667.479 L 887.277 668.078 L 887.793 668.191 L 889.523 668.497 L 891.502 668.756 L 891.582 668.764 L 893.962 668.869 L 895.307 668.888 L 896.245 668.871 L 897.070 668.831 L 898.529 668.726 L 898.861 668.693 L 900.598 668.472 L 900.808 668.439 L 902.270 668.169 L 903.075 667.996 L 903.869 667.801 L 905.321 667.395 L 906.043 667.172 L 907.598 666.806 L 908.425 666.587 L 909.895 666.458 L 911.011 666.350 L 911.826 666.280 L 911.905 666.275 L 912.011 666.286 L 912.395 666.738 L 913.164 667.652 L 914.132 668.810 L 914.217 668.908 L 915.110 670.402 L 915.482 670.979 L 916.097 672.086 L 917.094 673.746 L 917.372 674.173 L 918.193 675.336 L 919.131 676.570 L 919.375 676.866 L 920.661 678.316 L 921.072 678.749 L 922.042 679.689 L 923.175 680.716 L 923.497 680.984 L 924.557 681.812 L 925.438 682.469 L 925.703 682.649 L 926.975 683.484 L 927.838 684.033 L 928.375 684.344 L 929.923 685.217 L 930.359 685.457 L 931.632 686.091 L 933.074 686.795 L 933.496 686.984 L 935.609 687.917 L 935.647 687.933 L 938.117 688.884 L 938.341 688.964 L 940.581 689.658 L 941.214 689.837 L 943.043 690.273 L 944.152 690.509 L 945.551 690.748 L 947.060 690.971 L 948.151 691.108 L 948.860 691.182 L 950.455 691.340 L 950.886 691.379 L 951.955 691.459 L 953.362 691.552 L 953.769 691.575 L 954.683 691.610 L 955.926 691.641 L 956.647 691.647 L 957.102 691.642 L 958.253 691.604 L 959.428 691.532 L 962.132 691.303 L 962.791 691.232 L 964.758 690.951 L 967.315 690.523 L 967.316 690.523 L 969.795 689.947 L 971.785 689.432 L 972.216 689.301 L 974.567 688.522 L 976.171 687.943 L 976.865 687.658 L 979.102 686.668 L 980.440 686.034 L 981.291 685.581 L 983.427 684.370 L 984.490 683.731 L 985.522 683.058 L 986.549 682.350 L 987.564 681.612 L 988.493 680.901 L 989.560 680.042 L 990.386 679.342 L 991.436 678.407 L 991.501 678.341 L 991.747 678.082 L 992.469 677.304 L 992.908 676.733 L 994.101 675.664 L 995.991 673.660 L 996.067 673.612 L 996.279 673.502 L 996.659 673.461 L 996.781 673.459 L 996.939 673.514 L 997.554 673.792 L 999.083 674.634 L 1000.335 675.311 L 1000.457 675.364 L 1001.769 676.232 L 1004.607 677.868 L 1005.308 678.236 L 1007.702 679.384 L 1008.801 679.859 L 1010.884 680.673 L 1012.369 681.189 L 1014.150 681.737 L 1015.992 682.232 L 1017.497 682.578 L 1019.652 682.995 L 1020.914 683.193 L 1023.333 683.488 L 1024.391 683.580 L 1027.022 683.721 L 1027.912 683.737 L 1030.706 683.701 L 1031.463 683.664 L 1034.375 683.436 L 1035.024 683.362 L 1038.021 682.933 L 1038.578 682.834 L 1041.636 682.198 L 1042.104 682.085 L 1045.212 681.235 L 1045.583 681.120 L 1048.742 680.045 L 1048.996 679.949 L 1052.216 678.631 L 1052.325 678.582 L 1055.495 677.056 L 1055.624 676.988 L 1058.638 675.269 L 1058.930 675.084 L 1061.017 673.672 L 1061.626 673.232 L 1063.017 672.132 L 1064.502 670.883 L 1064.935 670.487 L 1066.750 668.722 L 1067.240 668.218 L 1068.457 666.847 L 1068.600 666.676 L 1070.014 664.842 L 1070.015 664.841 L 1071.429 662.758 L 1071.441 662.739 L 1072.750 660.559 L 1072.778 660.508 L 1073.943 658.310 L 1074.007 658.179 L 1075.021 655.997 L 1075.078 655.863 L 1075.964 653.658 L 1075.978 653.621 L 1076.640 651.662 L 1076.789 651.178 L 1077.158 649.822 L 1077.440 648.671 L 1077.600 647.902 L 1077.930 646.107 L 1077.959 645.905 L 1078.214 643.826 L 1078.248 643.490 L 1078.362 641.668 L 1078.391 640.982 L 1078.431 639.433 L 1078.439 638.141 L 1078.447 637.121 L 1078.430 635.498 L 1078.416 634.820 L 1078.312 632.819 L 1078.288 632.503 L 1078.028 630.385 L 1077.974 630.074 L 1077.611 628.353 L 1077.325 627.271 L 1076.993 626.229 L 1076.368 624.431 L 1075.169 621.547 L 1075.078 621.363 L 1073.916 619.079 L 1073.724 618.717 L 1072.677 616.943 L 1072.366 616.447 L 1071.397 614.991 L 1070.956 614.377 L 1070.092 613.244 L 1069.416 612.436 L 1068.773 611.710 L 1067.728 610.655 L 1067.303 610.250 L 1065.922 609.026 L 1065.359 608.558 L 1064.048 607.503 L 1063.384 607.003 L 1062.105 606.086 L 1061.485 605.671 L 1060.083 604.794 L 1059.625 604.528 L 1057.973 603.647 L 1057.749 603.537 L 1055.781 602.665 L 1055.778 602.664 L 1053.631 601.898 L 1053.504 601.858 L 1051.169 601.208 L 1051.117 601.195 L 1048.789 600.673 L 1048.215 600.562 L 1046.369 600.217 L 1045.375 600.060 L 1043.902 599.838 L 1042.699 599.689 L 1041.280 599.525 L 1040.363 599.457 L 1039.521 599.425 L 1038.588 599.432 L 1038.106 599.445 L 1035.286 599.699 L 1034.882 599.691 L 1032.779 599.797 L 1031.435 599.599 L 1029.479 599.464 L 1029.295 599.000 L 1029.272 598.869 L 1028.750 596.529 L 1028.476 595.494 L 1028.403 594.326 L 1028.294 593.244 L 1028.274 592.185 L 1028.207 590.975 L 1028.122 590.048 L 1028.060 589.558 L 1027.779 587.920 L 1027.442 586.291 L 1027.322 585.809 L 1026.479 582.817 L 1026.435 582.669 L 1025.377 579.512 L 1025.216 579.078 L 1024.197 576.494 L 1024.135 576.351 L 1023.043 574.066 L 1022.619 573.246 L 1021.735 571.692 L 1020.841 570.221 L 1020.280 569.382 L 1018.803 567.300 L 1018.686 567.151 L 1016.939 565.035 L 1016.486 564.510 L 1015.070 563.040 L 1014.036 562.011 L 1013.188 561.211 L 1011.101 559.365 L 1010.005 558.472 L 1008.799 557.520 L 1006.186 555.609 L 1005.840 555.373 L 1003.473 553.864 L 1003.174 553.687 L 1001.003 552.466 L 1000.894 552.411 L 998.538 551.260 L 998.363 551.178 L 996.140 550.265 L 995.662 550.078 L 993.719 549.388 L 991.298 548.576 L 989.857 548.122 L 988.873 547.829 L 986.836 547.262 L 986.434 547.158 L 983.980 546.570 L 983.732 546.515 L 981.505 546.077 L 980.522 545.902 L 979.009 545.677 L 977.205 545.441 L 976.492 545.371 L 973.953 545.169 L 973.776 545.158 L 971.390 545.099 L 970.375 545.092 L 968.809 545.111 L 967.063 545.163 L 966.206 545.190 L 963.968 545.300 L 963.580 545.322 L 961.168 545.502 L 960.911 545.525 L 958.818 545.749 L 957.874 545.868 L 956.528 546.065 L 954.840 546.346 L 954.293 546.453 L 952.116 546.921 L 951.801 546.996 L 950.000 547.486 L 948.754 547.852 L 947.939 548.126 L 945.903 548.860 L 945.830 548.888 L 944.380 549.471 L 943.365 549.887 L 942.793 550.129 L 941.019 550.900 L 940.949 550.932 L 939.060 551.811 L 938.691 551.994 L 936.593 553.075 L 935.174 553.837 L 934.642 554.146 L 933.110 555.077 L 932.861 555.240 L 931.245 556.342 L 931.206 556.370 L 929.826 557.424 L 928.192 558.752 L 926.337 560.332 L 925.405 561.190 L 923.162 563.357 L 922.808 563.728 L 920.360 566.422 L 920.259 566.542 L 918.478 568.845 L 917.692 569.955 L 916.622 571.607 L 915.441 573.585 L 914.885 574.612 L 913.488 577.426 L 913.311 577.822 L 911.955 581.196 L 911.851 581.493 L 910.863 584.696 L 910.416 586.481 L 909.869 588.156 L 909.803 588.397 L 908.991 590.101 L 908.485 591.283 L 908.273 591.605 L 908.174 591.750" fill="none" stroke="#000000" stroke-width="13.025" stroke-linecap="round" stroke-linejoin="round"/>
<path d="M 574.079 268.268 L 574.087 268.415 L 574.085 268.478 L 574.089 268.617 L 574.076 268.825 L 574.074 269.019 L 574.051 269.391 L 574.010 270.457 L 573.910 272.026 L 573.778 273.482 L 573.456 276.159 L 573.428 276.384 L 573.515 277.671 L 573.561 282.332 L 573.563 282.955 L 573.572 286.186 L 573.564 289.590 L 573.554 293.810 L 573.559 296.044 L 573.573 299.464 L 573.597 301.563 L 573.618 302.478 L 573.700 305.101 L 573.725 305.671 L 573.822 307.478 L 573.935 309.889 L 574.054 312.255 L 574.165 314.719 L 574.175 314.944 L 574.227 317.342 L 574.276 320.123 L 574.308 322.360 L 574.314 323.059 L 574.332 326.151 L 574.342 329.399 L 574.342 329.683 L 574.371 332.894 L 574.425 335.519 L 574.489 337.135 L 574.540 338.194 L 574.646 339.947 L 574.805 342.603 L 574.842 343.225 L 574.931 345.043 L 575.038 347.266 L 575.075 348.052 L 575.100 349.275 L 575.117 350.212 L 575.109 351.069 L 575.090 352.652 L 575.084 353.057 L 575.122 353.718 L 575.101 353.849 L 575.109 353.974 L 575.286 356.763 L 575.649 358.687 L 575.707 358.983 L 576.021 360.460 L 576.138 361.078 L 576.179 361.398 L 576.202 361.718 L 576.206 362.060 L 576.191 362.443 L 576.150 362.879 L 576.079 363.376 L 576.040 363.575 L 575.725 365.255 L 575.544 368.679 L 575.842 369.903 L 575.892 373.074 L 575.906 373.743 L 575.975 377.200 L 576.015 378.789 L 576.066 381.151 L 576.135 383.711 L 576.159 384.929 L 576.248 388.403 L 576.250 388.536 L 576.303 390.678 L 576.326 391.976 L 576.345 392.753 L 576.359 393.184 L 576.388 393.891 L 576.435 394.904 L 576.452 395.249 L 576.507 396.198 L 576.562 397.107 L 576.362 397.775 L 576.044 398.846 L 575.850 399.640 L 575.513 401.027 L 575.365 401.772 L 575.081 403.214 L 574.925 404.212 L 574.870 404.550 L 574.719 405.834 L 574.638 407.084 L 574.631 408.449 L 574.764 409.965 L 574.819 410.660 L 575.262 412.865 L 575.862 414.857 L 576.098 415.499 L 576.496 416.570 L 576.980 417.784 L 577.041 418.214 L 577.233 418.704 L 577.302 420.876 L 577.580 426.406 L 577.627 427.193 L 577.683 428.233 L 577.740 429.407 L 577.799 430.722 L 577.861 432.181 L 577.925 433.789 L 577.991 435.545 L 578.061 437.447 L 578.242 442.481 L 578.432 447.708 L 578.631 453.132 L 578.839 458.753 L 579.056 464.571 L 579.282 470.587 L 579.516 476.800 L 579.760 483.211 L 580.013 489.818 L 580.275 496.623 L 580.546 503.625 L 580.826 510.825 L 581.115 518.221 L 581.413 525.815 L 581.720 533.606 L 582.036 541.608 L 582.153 544.714 L 582.271 548.104 L 582.390 551.710 L 582.513 555.458 L 583.082 571.145 L 583.164 573.168 L 583.253 575.441 L 583.277 576.101 L 582.809 577.937 L 582.559 578.913 L 582.307 580.638 L 582.109 581.978 L 582.037 583.536 L 581.965 585.069 L 582.066 586.632 L 582.078 586.812 L 582.372 588.357 L 582.790 589.916 L 583.717 593.392 L 583.761 593.554 L 583.816 595.541 L 583.890 598.056 L 583.981 600.945 L 584.086 604.206 L 584.207 607.837 L 584.343 611.839 L 584.495 616.211 L 584.662 620.962 L 584.929 628.794 L 585.185 636.858 L 585.431 645.144 L 585.665 653.653 L 585.889 662.385 L 586.102 671.340 L 586.304 680.518 L 586.398 685.155 L 586.382 685.201 L 585.460 688.432 L 585.163 689.926 L 584.937 691.066 L 584.683 693.660 L 584.682 693.723 L 584.668 695.430 L 584.790 697.146 L 584.864 697.626 L 585.057 698.880 L 585.469 700.636 L 586.024 702.418 L 586.642 704.037 L 586.662 705.726 L 586.772 714.185 L 586.885 722.873 L 587.086 740.466 L 587.157 749.178 L 587.199 757.662 L 587.208 761.019 L 587.217 764.215 L 587.225 767.271 L 587.233 770.199 L 587.240 773.008 L 587.247 775.708 L 587.260 780.819 L 587.273 785.613 L 587.284 790.169 L 587.309 798.883 L 587.327 804.780 L 587.115 805.339 L 586.461 807.303 L 586.376 807.599 L 585.852 809.420 L 585.545 810.883 L 585.424 812.155 L 585.406 812.341 L 585.374 814.358 L 585.463 816.256 L 585.545 816.950 L 585.692 818.186 L 586.086 820.175 L 586.618 822.061 L 586.670 822.245 L 587.386 824.178 L 587.380 824.759 L 587.353 827.227 L 587.351 827.569 L 587.329 830.497 L 587.327 830.794 L 587.316 833.555 L 587.311 834.556 L 587.308 836.752 L 587.306 838.514 L 587.308 840.103 L 587.308 842.667 L 587.320 847.016 L 587.327 848.686 L 587.336 851.550 L 587.346 854.730 L 587.350 857.019 L 587.349 858.031 L 587.343 861.465 L 587.332 865.032 L 587.331 865.096 L 587.308 868.732 L 587.279 872.566 L 587.276 872.917 L 587.238 876.532 L 587.192 880.483 L 587.190 880.631 L 587.128 884.862 L 587.082 887.793 L 587.057 889.226 L 586.974 893.723 L 586.952 894.849 L 586.876 898.352 L 586.803 901.615 L 586.774 903.114 L 586.674 908.008 L 586.568 913.034 L 586.512 915.614 L 586.261 916.325 L 585.870 917.452 L 585.223 919.822 L 584.775 922.126 L 584.522 924.392 L 584.493 926.611 L 584.716 928.816 L 585.168 930.909 L 585.178 930.959 L 585.814 932.977 L 586.506 934.760 L 586.452 945.656 L 586.402 953.166 L 586.331 960.899 L 586.249 964.013 L 586.113 967.126 L 585.870 973.565 L 585.939 974.635 L 585.756 976.292 L 586.029 979.385" fill="none" stroke="#000000" stroke-width="13.706" stroke-linecap="round" stroke-linejoin="round"/>
</svg>