<?xml version="1.0" encoding="UTF-8" standalone="no"?>
<svg xmlns="http://www.w3.org/2000/svg" version="1.1" viewBox="0.00 0.00 523.00 487.00">
<path d="M 158.858 213.239 L 158.650 213.424 L 158.392 213.651 L 149.713 221.210 L 143.361 226.709 L 136.702 232.730 L 132.486 236.607 L 131.955 237.083 L 131.910 237.122 L 128.975 239.666 L 125.356 242.842 L 118.585 248.985 L 118.503 249.059 L 117.842 249.653 L 117.710 249.773 L 113.159 253.928 L 112.923 254.139 L 108.419 258.130 L 106.874 259.461 L 106.259 260.028 L 104.433 261.790 L 104.281 261.923 L 103.687 262.422 L 102.431 263.436 L 102.138 263.797 L 102.091 263.831 L 101.369 264.482" fill="none" stroke="#000000" stroke-width="22.329" stroke-linecap="round" stroke-linejoin="round"/>
<path d="M 158.858 213.239 L 159.019 210.218 L 159.406 207.415 L 160.019 204.829 L 160.858 202.461 L 160.991 202.145 L 162.614 199.099 L 164.718 196.517 L 166.352 194.881 L 166.389 194.844 L 172.067 189.120 L 177.368 183.861 L 184.210 176.844 L 195.239 165.748 L 195.367 165.620 L 199.588 161.466 L 199.976 161.071 L 202.646 158.262 L 204.695 155.634 L 204.750 155.548 L 205.648 153.977 L 205.750 153.777 L 207.197 150.168 L 208.127 146.023 L 208.442 142.398" fill="none" stroke="#000000" stroke-width="17.707" stroke-linecap="round" stroke-linejoin="round"/>
<path d="M 158.858 213.239 L 161.772 213.400 L 164.510 213.330 L 167.071 213.028 L 169.457 212.494 L 169.768 212.406 L 172.972 211.188 L 175.784 209.457 L 178.113 207.687 L 178.170 207.644 L 197.475 193.104 L 219.175 176.824 L 232.769 166.646 L 243.471 158.739 L 243.638 158.617 L 246.595 156.488 L 248.898 155.094 L 250.747 154.303 L 252.729 153.698 L 252.971 153.637 L 257.246 152.988 L 262.028 153.052 L 262.047 153.053 L 263.711 153.227" fill="none" stroke="#000000" stroke-width="18.847" stroke-linecap="round" stroke-linejoin="round"/>
<path d="M 208.442 142.398 L 205.615 142.137 L 202.947 142.099 L 202.703 142.109 L 202.449 142.120 L 199.979 142.343 L 197.671 142.785 L 195.525 143.445 L 193.542 144.325 L 193.428 144.384 L 191.103 145.847 L 190.966 145.951 L 180.327 153.953 L 180.173 154.068 L 169.875 161.630 L 167.482 163.103 L 167.387 163.152 L 166.787 163.445 L 163.944 164.475 L 160.810 165.113 L 157.387 165.357 L 153.674 165.209" fill="none" stroke="#000000" stroke-width="19.388" stroke-linecap="round" stroke-linejoin="round"/>
<path d="M 208.442 142.398 L 215.782 136.102 L 216.370 135.602 L 216.461 135.525 L 243.371 112.818 L 251.554 105.988 L 252.787 104.942 L 256.754 101.523 L 263.295 96.104 L 263.998 95.623 L 264.139 95.552" fill="none" stroke="#000000" stroke-width="21.380" stroke-linecap="round" stroke-linejoin="round"/>
<path d="M 263.711 153.227 L 263.649 154.198 L 263.631 154.428 L 263.320 157.178 L 262.818 159.733 L 262.124 162.092 L 261.239 164.256 L 261.139 164.469 L 259.508 167.266 L 257.470 169.646 L 245.828 180.924 L 244.215 182.519 L 244.202 182.529 L 244.195 182.536 L 243.661 182.978 L 242.622 183.915 L 236.203 190.215 L 235.433 190.925 L 233.882 192.265 L 233.718 192.405 L 226.403 199.513 L 226.310 199.596 L 224.507 201.187 L 223.856 201.794 L 223.403 202.240 L 223.288 202.351 L 216.272 209.121 L 216.259 209.133 L 208.541 216.564 L 201.981 223.048 L 198.900 225.984 L 198.875 226.008 L 196.900 227.883 L 194.145 230.435 L 193.541 231.024 L 191.091 233.538 L 188.908 236.304 L 187.239 239.593 L 187.134 239.857 L 186.380 242.072 L 185.808 244.471 L 185.416 247.055 L 185.206 249.824" fill="none" stroke="#000000" stroke-width="16.877" stroke-linecap="round" stroke-linejoin="round"/>
<path d="M 263.711 153.227 L 269.723 148.249 L 269.812 148.176 L 272.876 145.659 L 281.414 138.742 L 290.452 131.301 L 293.201 129.077 L 305.289 119.148 L 306.224 118.370 L 317.625 109.078 L 319.028 107.879 L 319.550 107.384 L 319.807 107.188 L 319.850 107.181 L 320.006 107.145 L 320.038 107.141" fill="none" stroke="#000000" stroke-width="22.276" stroke-linecap="round" stroke-linejoin="round"/>
<path d="M 153.674 165.209 L 150.499 168.163 L 150.181 168.455 L 145.548 172.642 L 144.550 173.681 L 144.414 173.822 L 144.129 174.114 L 142.864 175.334 L 139.852 178.058 L 139.757 178.145 L 119.551 196.601 L 113.462 202.095 L 110.249 204.878 L 108.597 206.504 L 108.167 206.914 L 107.863 207.113 L 107.356 207.438 L 106.705 207.785 L 106.629 207.857 L 106.435 208.007" fill="none" stroke="#000000" stroke-width="23.822" stroke-linecap="round" stroke-linejoin="round"/>
<path d="M 118.418 308.498 L 119.010 307.969 L 119.538 307.534 L 119.872 307.286 L 120.115 307.071 L 122.093 305.454 L 125.070 302.736 L 130.106 298.251 L 134.705 294.316 L 144.766 285.484 L 154.502 276.867 L 156.649 274.737 L 166.178 266.360 L 166.229 266.315 L 169.670 263.305 L 171.093 262.070 L 171.100 262.065 L 185.206 249.824" fill="none" stroke="#000000" stroke-width="23.673" stroke-linecap="round" stroke-linejoin="round"/>
<path d="M 185.206 249.824 L 186.718 249.952 L 186.756 249.954 L 191.881 249.914 L 194.216 249.595 L 196.398 249.079 L 196.760 248.973 L 199.960 247.716 L 202.757 245.934 L 209.291 240.787 L 216.946 234.782 L 238.284 218.504 L 238.340 218.461 L 242.773 215.109 L 250.036 209.636 L 252.157 208.274 L 252.261 208.218 L 254.410 207.230 L 256.749 206.496 L 259.280 206.016 L 262.001 205.789 L 262.248 205.780 L 264.975 205.797 L 267.869 206.034" fill="none" stroke="#000000" stroke-width="19.140" stroke-linecap="round" stroke-linejoin="round"/>
<path d="M 212.222 278.802 L 210.881 279.972 L 210.761 280.076 L 209.343 281.301 L 190.704 297.557 L 173.808 312.747 L 164.560 321.105 L 159.763 325.348 L 154.234 330.388 L 150.765 333.608 L 150.298 334.028 L 147.841 336.172 L 147.805 336.203 L 146.143 337.638 L 143.780 339.846 L 142.670 340.885 L 141.968 341.484 L 141.816 341.669 L 141.623 341.980 L 141.608 342.030" fill="none" stroke="#000000" stroke-width="20.346" stroke-linecap="round" stroke-linejoin="round"/>
<path d="M 212.222 278.802 L 212.725 274.399 L 212.785 274.062 L 213.341 271.571 L 214.085 269.274 L 215.018 267.170 L 216.138 265.261 L 216.292 265.033 L 218.496 262.366 L 218.506 262.356 L 218.887 261.992 L 225.905 255.504 L 227.102 254.470 L 227.111 254.462 L 227.132 254.444 L 228.738 253.035 L 229.089 252.718 L 234.075 248.094 L 243.574 239.073 L 246.513 236.370 L 246.587 236.303 L 259.298 224.752 L 260.143 223.928 L 261.867 222.124 L 261.950 222.036 L 261.955 222.031 L 263.771 219.747 L 265.253 217.105 L 265.345 216.909 L 266.294 214.533 L 267.031 211.928 L 267.556 209.095 L 267.869 206.034" fill="none" stroke="#000000" stroke-width="17.219" stroke-linecap="round" stroke-linejoin="round"/>
<path d="M 212.222 278.802 L 212.958 278.876 L 213.255 278.904 L 214.736 279.012 L 215.079 279.031 L 217.705 279.071 L 220.170 278.901 L 222.475 278.520 L 224.620 277.929 L 224.750 277.885 L 227.482 276.703 L 229.897 275.106 L 236.788 269.602 L 242.009 265.606 L 242.099 265.538 L 243.984 264.115 L 267.140 246.986 L 267.234 246.917 L 284.623 234.243 L 292.653 228.484 L 292.746 228.418 L 305.895 219.122 L 318.651 210.259 L 321.372 208.717 L 321.448 208.683 L 324.218 207.687 L 327.259 207.084 L 330.572 206.875 L 334.157 207.058 L 336.012 207.309" fill="none" stroke="#000000" stroke-width="17.673" stroke-linecap="round" stroke-linejoin="round"/>
<path d="M 267.869 206.034 L 271.917 202.647 L 271.971 202.602 L 280.483 195.513 L 288.923 188.454 L 290.649 187.000 L 290.805 186.869 L 295.639 182.853 L 302.980 176.845 L 303.084 176.760 L 310.570 170.694 L 326.109 158.376 L 342.304 145.800 L 346.634 142.503 L 351.875 138.433 L 358.005 133.512 L 358.672 133.219 L 358.723 133.192 L 359.091 132.786 L 359.328 132.446" fill="none" stroke="#000000" stroke-width="27.327" stroke-linecap="round" stroke-linejoin="round"/>
<path d="M 336.012 207.309 L 335.226 212.402 L 335.160 212.686 L 334.286 215.689 L 333.131 218.375 L 331.694 220.744 L 329.975 222.797 L 329.938 222.835 L 329.518 223.248 L 327.425 225.235 L 326.939 225.678 L 324.036 228.220 L 320.878 231.005 L 313.600 237.614 L 313.566 237.645 L 292.046 257.079 L 292.007 257.114 L 291.331 257.728 L 274.658 272.882 L 274.568 272.964 L 269.197 277.918 L 265.310 281.505 L 256.109 289.746 L 250.261 295.066 L 249.897 295.407 L 249.887 295.417 L 247.756 297.933 L 246.070 300.925 L 245.796 301.573 L 245.680 301.858 L 245.372 302.664 L 245.355 302.710 L 244.206 307.046 L 243.662 312.017" fill="none" stroke="#000000" stroke-width="16.626" stroke-linecap="round" stroke-linejoin="round"/>
<path d="M 336.012 207.309 L 356.383 191.604 L 372.764 179.347 L 375.245 177.470 L 379.182 174.624 L 385.697 169.910 L 389.994 166.768 L 390.688 166.291 L 393.585 164.144 L 393.737 164.016 L 393.953 163.858 L 394.077 163.754" fill="none" stroke="#000000" stroke-width="20.628" stroke-linecap="round" stroke-linejoin="round"/>
<path d="M 175.537 371.376 L 175.793 371.175 L 176.579 370.496 L 177.068 370.082 L 181.911 365.767 L 182.805 365.012 L 188.934 359.686 L 193.285 355.772 L 202.369 347.745 L 204.837 345.536 L 216.521 335.252 L 219.647 332.549 L 219.736 332.473 L 228.499 324.959 L 243.662 312.017" fill="none" stroke="#000000" stroke-width="23.774" stroke-linecap="round" stroke-linejoin="round"/>
<path d="M 243.662 312.017 L 245.986 312.186 L 246.372 312.202 L 249.770 312.180 L 250.034 312.163 L 253.103 311.798 L 255.920 311.088 L 255.970 311.072 L 258.746 309.909 L 261.223 308.338 L 270.184 301.506 L 270.609 301.194 L 270.626 301.181 L 278.548 295.382 L 284.768 290.914 L 284.773 290.910 L 293.791 284.437 L 293.806 284.426 L 296.144 282.744 L 296.286 282.643 L 309.722 273.184 L 309.730 273.178 L 316.016 268.758 L 337.502 253.977 L 340.093 252.234 L 340.762 251.738 L 343.436 250.037 L 346.440 248.844 L 346.650 248.782 L 349.513 248.160 L 352.621 247.915 L 355.974 248.049 L 359.573 248.560" fill="none" stroke="#000000" stroke-width="17.342" stroke-linecap="round" stroke-linejoin="round"/>
<path d="M 359.573 248.560 L 359.238 250.857 L 359.192 251.118 L 358.094 255.536 L 356.466 259.343 L 356.449 259.375 L 355.419 261.076 L 354.251 262.620 L 353.738 263.227 L 352.236 264.796 L 350.986 265.945 L 350.517 266.359 L 340.507 274.899 L 340.502 274.903 L 340.492 274.911 L 330.621 283.528 L 325.452 288.083 L 314.109 297.986 L 314.003 298.079 L 302.835 307.994 L 301.999 308.675 L 301.962 308.705 L 300.846 309.620 L 299.104 311.269 L 298.454 311.980 L 298.265 312.189 L 296.205 315.067 L 294.618 318.467 L 294.527 318.713 L 293.391 322.725 L 292.743 327.278" fill="none" stroke="#000000" stroke-width="17.175" stroke-linecap="round" stroke-linejoin="round"/>
<path d="M 359.573 248.560 L 362.393 246.438 L 368.902 241.662 L 381.721 232.184 L 396.539 221.481 L 403.184 216.852 L 406.293 214.645 L 411.091 211.254 L 413.329 209.567 L 414.181 208.962 L 414.461 208.797 L 414.632 208.717" fill="none" stroke="#000000" stroke-width="21.522" stroke-linecap="round" stroke-linejoin="round"/>
<path d="M 218.088 389.222 L 232.706 376.975 L 243.555 367.736 L 246.281 365.434 L 255.757 357.561 L 255.770 357.550 L 264.685 350.153 L 267.375 347.945 L 267.536 347.811 L 274.984 341.601 L 275.244 341.387 L 285.815 332.780 L 292.743 327.278" fill="none" stroke="#000000" stroke-width="27.309" stroke-linecap="round" stroke-linejoin="round"/>
<path d="M 292.743 327.278 L 296.756 327.668 L 300.453 327.604 L 300.721 327.582 L 304.400 326.990 L 304.412 326.988 L 306.532 326.334 L 308.502 325.462 L 308.606 325.407 L 310.396 324.337 L 316.560 320.114 L 326.604 313.225 L 326.790 313.099 L 333.843 308.401 L 334.557 307.928 L 334.591 307.906 L 345.132 300.969 L 355.450 293.994 L 358.621 292.311 L 360.885 291.589 L 361.018 291.556 L 364.880 290.957 L 369.150 290.999 L 369.469 291.024 L 370.434 291.116 L 370.452 291.118 L 371.925 291.308 L 372.832 291.462" fill="none" stroke="#000000" stroke-width="18.680" stroke-linecap="round" stroke-linejoin="round"/>
<path d="M 372.832 291.462 L 372.301 295.104 L 371.463 298.390 L 371.393 298.607 L 370.243 301.534 L 370.047 301.946 L 368.115 305.159 L 365.658 307.786 L 363.456 309.676 L 357.576 314.601 L 352.721 318.887 L 352.665 318.937 L 351.289 320.140 L 351.216 320.204 L 347.428 323.556 L 347.213 323.743 L 345.124 325.529 L 343.611 326.902 L 343.595 326.917 L 342.245 328.147 L 342.220 328.169 L 338.588 331.463 L 338.419 331.614 L 336.980 332.883 L 332.269 336.925 L 331.523 337.608 L 331.386 337.742 L 329.855 339.467 L 329.688 339.684 L 327.822 342.694 L 327.692 342.956 L 326.795 345.037 L 326.070 347.313 L 326.060 347.350 L 325.474 350.015 L 325.087 352.906" fill="none" stroke="#000000" stroke-width="16.386" stroke-linecap="round" stroke-linejoin="round"/>
<path d="M 372.832 291.462 L 379.703 286.439 L 380.215 286.063 L 393.642 276.371 L 399.552 272.168 L 400.069 271.791 L 406.928 266.917 L 419.526 258.073 L 419.627 258.003 L 421.303 256.841 L 423.623 255.177 L 424.319 254.702 L 424.349 254.678 L 424.644 254.469 L 424.667 254.455 L 424.725 254.433" fill="none" stroke="#000000" stroke-width="19.254" stroke-linecap="round" stroke-linejoin="round"/>
<path d="M 269.320 396.587 L 269.348 396.561 L 269.448 396.483 L 269.586 396.358 L 269.692 396.218 L 272.014 394.514 L 275.580 391.747 L 281.484 386.916 L 284.969 384.176 L 293.948 377.036 L 303.709 369.364 L 303.940 369.185 L 308.165 365.942 L 308.339 365.807 L 310.106 364.427 L 322.971 354.496 L 325.053 352.931 L 325.069 352.920 L 325.087 352.906" fill="none" stroke="#000000" stroke-width="23.411" stroke-linecap="round" stroke-linejoin="round"/>
<path d="M 325.087 352.906 L 330.026 353.437 L 332.312 353.413 L 334.475 353.194 L 334.722 353.157 L 338.439 352.225 L 340.135 351.502 L 341.723 350.608 L 345.846 347.974 L 361.960 337.669 L 364.472 336.349 L 364.597 336.296 L 366.726 335.551 L 369.012 335.049 L 371.455 334.791 L 374.055 334.776 L 374.317 334.786 L 378.834 335.271" fill="none" stroke="#000000" stroke-width="19.623" stroke-linecap="round" stroke-linejoin="round"/>
<path d="M 378.834 335.271 L 378.511 338.442 L 377.937 341.364 L 377.113 344.037 L 376.038 346.459 L 375.929 346.667 L 374.509 348.969 L 372.803 350.987 L 368.834 355.013 L 368.759 355.090 L 363.821 360.163 L 363.633 360.359 L 358.230 366.089 L 358.129 366.196 L 353.424 371.299 L 353.021 371.754 L 349.618 375.454 L 349.064 376.298 L 349.037 376.478 L 349.048 376.575 L 349.112 376.895" fill="none" stroke="#000000" stroke-width="17.443" stroke-linecap="round" stroke-linejoin="round"/>
<path d="M 378.834 335.271 L 378.904 335.213 L 385.379 330.078 L 392.713 324.442 L 400.402 318.685 L 401.000 318.222 L 405.279 314.978 L 410.081 311.336 L 410.433 311.079 L 410.640 310.930 L 411.017 310.661 L 412.395 309.618 L 412.823 309.319 L 413.066 309.112 L 413.648 308.458 L 413.844 308.179 L 413.894 308.116" fill="none" stroke="#000000" stroke-width="19.342" stroke-linecap="round" stroke-linejoin="round"/>
<path d="M 123.784 370.005 L 123.071 369.206 L 121.856 367.894 L 121.341 367.322 L 118.610 364.202 L 115.730 360.961 L 114.116 359.044 L 113.611 358.426 L 113.106 357.789 L 112.709 357.276 L 110.474 354.314 L 109.215 352.659 L 104.728 346.407 L 104.518 346.110 L 103.132 344.123 L 99.607 338.766 L 99.356 338.377 L 97.434 335.345 L 95.241 331.679 L 94.949 331.178 L 92.766 327.345 L 91.594 325.161 L 91.296 324.590 L 88.582 319.232 L 88.500 319.069 L 88.336 318.713 L 85.937 313.389 L 85.701 312.851 L 84.698 310.489 L 83.555 307.607 L 83.318 306.987 L 81.411 301.808 L 81.342 301.619 L 81.334 301.595 L 80.041 297.730 L 79.957 297.473 L 79.273 295.360 L 78.032 291.221 L 77.879 290.689 L 77.537 289.460 L 76.228 284.331 L 76.102 283.814 L 74.591 277.370 L 74.468 276.821 L 74.453 276.749 L 73.337 270.252 L 73.251 269.724 L 72.581 265.301 L 72.271 263.061 L 72.206 262.559 L 71.886 259.883 L 71.489 255.782 L 71.443 255.250 L 71.359 254.163 L 71.037 248.359 L 71.014 247.861 L 70.972 246.733 L 70.886 240.870 L 70.885 240.107 L 70.896 239.316 L 71.123 232.868 L 71.160 232.100 L 71.187 231.683 L 71.852 224.063 L 72.039 222.363 L 72.051 222.254 L 72.623 217.232 L 72.729 216.416 L 72.787 216.080 L 73.814 210.418 L 73.907 209.928 L 74.129 208.820 L 76.343 199.032 L 76.671 197.750 L 76.963 196.700 L 79.059 189.700 L 79.137 189.443 L 79.142 189.430 L 80.620 185.080 L 80.649 184.993 L 81.849 181.501 L 82.001 181.090 L 82.446 179.968 L 83.736 176.914 L 85.028 173.847 L 85.725 172.343 L 85.734 172.323 L 87.832 167.808 L 88.039 167.372 L 88.349 166.755 L 88.929 165.639 L 91.745 160.362 L 94.195 155.989 L 94.584 155.318 L 94.637 155.230 L 97.801 150.175 L 98.965 148.395 L 99.520 147.578 L 101.100 145.346 L 107.412 137.013 L 107.846 136.456 L 109.111 134.874 L 112.948 130.258 L 113.055 130.131 L 113.777 129.351 L 117.542 125.443 L 124.550 118.416 L 124.718 118.252 L 125.078 117.908 L 128.021 115.151 L 128.763 114.482 L 129.744 113.629 L 130.885 112.712 L 134.129 110.030 L 134.131 110.028 L 137.921 106.897 L 138.954 106.085 L 140.522 104.914 L 143.639 102.675 L 146.935 100.433 L 148.761 99.213 L 149.345 98.833 L 150.943 97.824 L 156.875 94.147 L 158.944 92.956 L 159.644 92.566 L 160.691 92.005 L 160.799 91.946 L 164.918 89.713 L 168.942 87.532 L 169.727 87.123 L 169.952 87.011 L 173.660 85.332 L 178.772 83.047 L 179.641 82.677 L 179.965 82.545 L 184.328 80.824 L 188.896 79.132 L 190.972 78.376 L 191.770 78.100 L 195.131 76.996 L 201.235 75.093 L 203.623 74.401 L 204.406 74.187 L 206.928 73.537 L 214.014 71.853 L 216.839 71.227 L 217.585 71.072 L 222.953 70.040 L 230.551 68.719 L 231.225 68.611 L 231.399 68.585 L 239.341 67.558 L 240.466 67.438 L 241.108 67.378 L 246.817 66.906 L 250.321 66.687 L 250.972 66.654 L 257.335 66.410 L 260.172 66.355 L 260.829 66.351 L 267.767 66.387 L 270.010 66.459 L 270.568 66.482 L 276.135 66.776 L 277.399 66.868 L 277.910 66.910 L 284.466 67.513 L 284.734 67.543 L 285.206 67.600 L 292.010 68.484 L 292.492 68.551 L 292.662 68.576 L 299.295 69.696 L 299.796 69.786 L 300.720 69.960 L 306.580 71.188 L 307.032 71.286 L 308.652 71.655 L 313.804 72.939 L 314.260 73.057 L 316.450 73.644 L 321.027 74.975 L 321.480 75.112 L 324.137 75.935 L 328.222 77.296 L 328.932 77.543 L 331.706 78.554 L 335.431 79.999 L 335.663 80.090 L 338.735 81.314 L 339.713 81.727 L 341.943 82.618 L 343.450 83.273 L 345.685 84.328 L 346.999 84.981 L 350.309 86.620 L 352.505 87.682 L 355.404 89.157 L 356.362 89.669 L 359.249 91.287 L 362.680 93.297 L 363.151 93.579 L 365.872 95.249 L 369.443 97.534 L 369.911 97.840 L 372.386 99.496 L 376.148 102.121 L 376.562 102.415 L 378.792 104.033 L 382.767 107.033 L 383.266 107.419 L 384.916 108.725 L 388.732 111.975 L 388.906 112.122 L 391.811 114.555 L 391.975 114.691 L 393.244 115.737 L 393.803 116.211 L 394.051 116.427 L 403.207 125.253 L 403.351 125.392 L 404.135 126.240 L 408.006 130.609 L 408.481 131.160 L 411.635 134.922 L 414.805 138.882 L 415.163 139.338 L 415.310 139.530 L 418.771 144.209 L 420.712 146.927 L 421.159 147.573 L 422.007 148.837 L 424.957 153.408 L 426.464 155.866 L 426.808 156.444 L 430.848 163.415 L 431.921 165.389 L 432.226 165.967 L 436.116 173.552 L 437.096 175.607 L 437.422 176.316 L 440.772 183.891 L 440.816 184.000 L 441.091 184.698 L 444.569 193.921 L 444.794 194.539 L 444.852 194.721 L 446.260 199.166 L 446.471 199.792 L 446.831 200.841 L 447.096 201.660 L 447.359 202.524 L 448.728 207.293 L 449.590 210.492 L 449.735 211.053 L 450.418 213.824 L 451.602 218.999 L 451.719 219.534 L 451.904 220.426 L 453.172 227.111 L 453.234 227.471 L 453.330 228.065 L 454.205 233.892 L 454.483 235.969 L 454.554 236.547 L 455.023 240.758 L 455.374 244.438 L 455.425 245.040 L 455.612 247.625 L 455.881 252.901 L 455.905 253.512 L 455.995 256.723 L 456.004 261.363 L 455.998 261.977 L 455.920 265.670 L 455.727 269.610 L 455.696 270.239 L 455.590 271.948 L 455.563 272.331 L 455.396 274.512 L 455.050 277.818 L 454.989 278.348 L 454.372 283.286 L 454.290 283.818 L 454.206 284.334 L 453.255 289.799 L 453.160 290.315 L 452.685 292.758 L 452.005 295.762 L 451.886 296.267 L 450.543 301.702 L 450.431 302.141 L 450.416 302.193 L 448.801 307.603 L 448.653 308.084 L 447.576 311.457 L 446.861 313.487 L 446.695 313.945 L 444.683 319.338 L 444.330 320.234 L 444.124 320.729 L 443.516 322.097 L 442.805 323.483 L 442.729 323.643 L 442.279 324.639 L 442.252 324.724 L 442.020 325.462 L 441.904 325.820 L 441.771 326.221 L 440.600 328.550 L 440.271 329.131 L 440.148 329.346 L 439.681 330.289 L 438.549 332.467 L 436.389 336.385 L 436.123 336.854 L 434.587 339.512 L 432.609 342.728 L 432.321 343.186 L 428.979 348.379 L 428.635 348.878 L 428.327 349.316 L 424.404 354.777 L 424.075 355.225 L 422.893 356.799 L 420.162 360.162 L 419.989 360.377 L 419.931 360.450 L 419.567 360.898 L 418.229 362.508 L 416.307 364.810 L 415.276 365.957 L 414.902 366.365 L 414.371 366.932 L 414.293 367.015 L 411.688 369.820 L 411.365 370.173 L 410.423 371.225 L 410.275 371.389 L 410.021 371.653 L 407.157 374.595 L 405.345 376.307 L 404.944 376.678 L 403.209 378.251 L 403.117 378.336 L 400.196 381.010 L 399.781 381.383 L 399.490 381.638 L 399.464 381.661 L 396.779 384.024 L 394.853 385.537 L 394.825 385.560 L 394.404 385.889 L 394.358 385.925 L 389.942 389.400 L 389.310 389.877 L 388.863 390.207 L 385.693 392.496 L 383.562 393.961 L 383.119 394.259 L 381.214 395.514 L 377.654 397.848 L 377.186 398.148 L 376.345 398.675 L 373.172 400.558 L 371.502 401.492 L 371.039 401.745 L 365.158 404.884 L 364.709 405.118 L 361.208 406.903 L 358.676 408.123 L 358.082 408.400 L 356.534 409.101 L 352.507 410.830 L 348.182 412.623 L 347.434 412.920 L 344.640 413.981 L 340.310 415.597 L 337.464 416.556 L 336.436 416.889 L 335.626 417.137 L 334.196 417.550 L 333.430 417.784 L 329.821 418.945 L 324.383 420.461 L 323.590 420.669 L 323.038 420.805 L 312.052 423.221 L 311.244 423.386 L 308.605 423.882 L 303.272 424.774 L 299.446 425.333 L 298.990 425.396 L 298.844 425.412 L 291.645 426.188 L 291.193 426.233 L 289.440 426.392 L 284.328 426.815 L 284.033 426.833 L 283.593 426.856 L 280.282 427.004 L 276.470 427.155 L 276.006 427.169 L 272.521 427.246 L 268.916 427.277 L 268.484 427.277 L 264.983 427.249 L 261.435 427.141 L 260.944 427.122 L 253.922 426.778 L 253.484 426.753 L 251.883 426.648 L 246.501 426.173 L 246.006 426.125 L 245.911 426.114 L 239.056 425.255 L 238.586 425.192 L 235.344 424.727 L 230.834 424.018 L 230.291 423.927 L 227.034 423.346 L 218.987 421.745 L 218.911 421.730 L 218.421 421.616 L 210.866 419.785 L 207.499 418.901 L 206.910 418.739 L 202.944 417.601 L 196.374 415.552 L 195.770 415.356 L 193.119 414.460 L 185.618 411.716 L 184.343 411.212 L 183.658 410.921 L 181.809 410.045 L 181.721 410.003 L 181.581 409.938 L 179.168 408.845 L 178.889 408.729 L 178.690 408.647 L 178.386 408.523 L 177.576 408.263 L 175.265 407.233 L 174.519 406.830 L 172.508 405.955 L 171.934 405.697 L 171.499 405.436 L 169.072 404.056 L 168.720 403.831 L 167.937 403.436 L 167.292 403.101 L 166.775 402.803 L 165.690 402.165 L 161.806 399.912 L 161.331 399.622 L 160.725 399.240 L 153.941 394.839 L 153.509 394.553 L 152.766 394.051 L 144.167 387.870 L 139.851 384.502 L 139.737 384.413 L 139.718 384.399 L 138.962 383.780 L 136.988 382.106 L 136.954 382.077 L 135.274 380.658 L 134.249 379.796 L 131.686 377.450 L 131.317 377.106 L 125.165 371.266 L 124.732 370.864 L 124.110 370.298 L 123.961 370.164 L 123.784 370.005" fill="none" stroke="#000000" stroke-width="26.952" stroke-linecap="round" stroke-linejoin="round"/>
<path d="M 153.674 165.209 L 153.844 160.619 L 153.983 159.313 L 154.017 158.967 L 154.250 156.454 L 154.255 156.398 L 155.202 146.463 L 155.334 142.335 L 156.029 141.715 L 163.204 135.321 L 163.625 134.953 L 165.390 133.445 L 165.570 133.290 L 166.224 132.721 L 166.279 132.673 L 167.809 131.349 L 168.660 130.504 L 168.963 130.208 L 169.774 129.430 L 170.753 128.540 L 173.623 126.071 L 175.561 124.259 L 175.965 123.891 L 177.569 122.463 L 177.577 122.456 L 179.062 121.132 L 179.374 120.860 L 180.924 119.532 L 181.974 118.531 L 182.389 118.147 L 185.097 115.706 L 185.846 115.027 L 187.789 113.457 L 187.801 113.445 L 188.065 113.071 L 188.122 112.978 L 188.341 112.770 L 188.394 112.658 L 188.620 112.031 L 188.921 111.179 L 189.630 108.543 L 189.850 107.669" fill="none" stroke="#000000" stroke-width="21.480" stroke-linecap="round" stroke-linejoin="round"/>
</svg>