<?xml version="1.0" encoding="UTF-8" standalone="no"?>
<svg xmlns="http://www.w3.org/2000/svg" version="1.1" viewBox="0.0 0.0 300.0 300.0">
<path d="M 50.302 240.189 L 50.875 238.125 L 50.875 236.875 L 51.625 235.375 L 52.125 233.625 L 52.375 233.375 L 55.375 224.625 L 57.375 219.875 L 57.625 219.625 L 61.625 209.625 L 67.625 197.625 L 69.375 194.875 L 70.125 193.125 L 71.625 190.625 L 75.125 185.375 L 75.125 185.125 L 76.875 182.875 L 76.875 182.625 L 83.375 174.375 L 89.625 167.875 L 96.125 162.625 L 99.375 160.375 L 103.875 157.875 L 110.125 155.125 L 114.625 153.625 L 117.875 152.875 L 118.125 152.625 L 119.375 152.625 L 119.625 152.375 L 120.875 152.125 L 127.125 151.125 L 128.625 151.125 L 128.875 150.875 L 133.875 150.625 L 135.125 150.375 L 138.625 150.375 L 140.125 150.125 L 148.375 150.125 L 149.875 149.875 L 156.125 149.875 L 157.375 149.625 L 162.375 149.625 L 163.625 149.375 L 170.125 149.125 L 176.125 148.125 L 177.625 148.125 L 177.875 147.875 L 181.125 147.375 L 182.375 146.875 L 184.125 146.625 L 190.375 144.625 L 196.625 141.875 L 201.625 138.875 L 203.875 137.375 L 208.625 133.625 L 214.875 127.625 L 219.125 122.625 L 222.375 118.375 L 225.125 114.375 L 227.125 110.875 L 228.125 109.625 L 231.125 104.625 L 232.125 102.375 L 233.375 100.375 L 240.125 86.125 L 241.625 82.625 L 243.125 78.375 L 243.875 76.875 L 249.125 62.875 L 249.125 61.875 L 249.857 59.862" fill="none" stroke="#222222" stroke-width="19.841" stroke-linecap="round" stroke-linejoin="round"/>
</svg>