<?xml version="1.0" encoding="UTF-8" standalone="no"?>
<svg xmlns="http://www.w3.org/2000/svg" version="1.1" viewBox="0 0 1090 1443">
<g fill="none" stroke="#fec901" stroke-linecap="round" stroke-linejoin="round">
<path d="M244.93,103.12C243.03,105.02 241.05,106.87 239.27,108.88C241.86,124.15 248.65,138.94 251.18,154.37" stroke-width="16.2"/>
<path d="M403.31,133.58C393.14,146.8 382.9,160.18 373.31,173.83" stroke-width="16.51"/>
<path d="M290.66,197.24C333.72,197.24 373.13,225.96 382.1,269.06C392.7,320.02 356.87,374.16 304.08,380.68C276.07,384.14 249.64,375.87 228.41,357.24C196.96,329.65 191.25,280.22 211.59,244.72C223.29,224.29 242.3,209.13 264.59,201.7C273.2,198.83 282.16,199.44 290.66,197.24Z" stroke-width="16.5"/>
<path d="M106.98,200.63C123.2,216.85 148.27,220.92 164.48,237.13" stroke-width="16.37"/>
<path d="M489.71,260.82C471.4,263.9 452.7,268.19 434.21,269.82" stroke-width="16.28"/>
<path d="M153.89,347.57C136.77,352.97 122.01,365.67 104.89,371.07" stroke-width="16.46"/>
<path d="M396.89,390.5C401,393.38 404.33,397.57 408.06,400.92C416.15,408.19 424.52,415.12 433.14,421.75" stroke-width="16.34"/>
<path d="M240.15,431.08C232.32,446.15 226.27,462.68 219.65,478.33" stroke-width="16.12"/>
<path d="M376.12,644.33C379.34,650.32 380.33,657.48 383.44,663.52C385.21,666.95 388.66,669.96 391.11,672.92C396.07,678.93 400.83,685.07 405.79,691.07C422.09,710.8 438.28,731.68 452.49,752.99C463.21,769.07 474.62,784.71 485.35,800.8C507.28,833.7 527.15,867.93 546.54,902.33C554.85,917.05 563.65,932.11 570.24,947.67C572.8,953.72 580.73,963.13 577.91,970.02C573.11,973.98 566.52,972.63 560.85,973.33C551.34,974.5 541.61,974.28 532.13,975.58C498.44,980.16 463,980.08 428.91,980.08C413.76,980.08 397.35,978.16 382.38,980.08" stroke-width="15"/>
<path d="M375.12,972.58C377.28,974.73 381.06,977.33 382.38,980.08" stroke-width="13.89"/>
<path d="M382.38,980.08C380.54,981.91 378.71,983.74 376.88,985.58" stroke-width="9.5"/>
<path d="M808.73,974.77C810.24,976.28 814.14,979.73 814.48,981.77" stroke-width="9.6"/>
<path d="M892.73,976.27C890.51,978.49 888.19,980.56 885.98,982.77" stroke-width="8.75"/>
<path d="M790.48,977.77C787.91,980.34 786.46,983.56 784.48,986.52" stroke-width="5.4"/>
<path d="M908.48,979.27C910.21,981.87 911.74,984.8 912.73,987.77" stroke-width="6.4"/>
<path d="M814.48,981.77C807.27,988.19 793.07,994.17 784.48,986.52" stroke-width="9.57"/>
<path d="M814.48,981.77C817.25,982.38 821.21,981.46 824.04,981.09C829.46,980.38 835.06,980.67 840.49,980.02C854.91,978.3 871.75,980.52 885.98,982.77" stroke-width="15.55"/>
<path d="M885.98,982.77C892.91,989.7 903.66,992.47 912.73,987.77" stroke-width="10.07"/>
<path d="M784.48,986.52C778.44,989.75 769.32,990.47 762.65,992.39C750.88,995.77 739.6,1001.04 728.48,1006.11C704.62,1016.99 682.33,1033.24 663.38,1051.21C655.79,1058.41 649.12,1066.38 641.73,1073.77" stroke-width="15.23"/>
<path d="M912.73,987.77C932.5,993.22 951.78,999.06 970.28,1008.14C986.8,1016.25 1001.47,1026.7 1016.26,1037.54C1023.67,1042.98 1030.13,1049.32 1037.03,1055.33C1039.58,1057.54 1042.57,1059.7 1044.48,1062.52" stroke-width="15.19"/>
</g>
<g fill="none" stroke="#8d2bed" stroke-linecap="round" stroke-linejoin="round">
<path d="M819.72,243.64C817.89,245.47 816.06,247.31 814.22,249.14" stroke-width="7.9"/>
<path d="M814.22,249.14C801.47,234.95 779.44,229.15 761.34,235.19C749.86,239.01 741.53,246.47 733.03,254.6C725.46,261.84 723.32,272.8 715.97,280.14" stroke-width="15.56"/>
<path d="M814.22,249.14C815.08,249.99 815.81,250.89 816.47,251.89" stroke-width="15.37"/>
<path d="M715.97,280.14C711.22,278.98 707.66,275.43 703.5,273.07C697.4,269.62 690.37,267.75 683.44,267.14C655.57,264.7 632.47,298.72 632.47,323.64" stroke-width="15.4"/>
<path d="M715.97,280.14C716.25,281.22 716.52,282.29 716.72,283.39" stroke-width="18.62"/>
<path d="M900.59,346.05C895.35,340.81 888.93,333.83 881.61,331.72C863.33,326.46 845.28,340.83 838.34,357.05" stroke-width="15.3"/>
<path d="M900.59,346.05C914.57,333.45 934.72,324.68 950.34,340.3C954.3,344.26 958.43,348.92 958.84,354.8" stroke-width="15.21"/>
<path d="M900.59,346.05C900.59,347.9 900.67,346.99 900.34,348.8" stroke-width="18.24"/>
<path d="M375.49,570.09C373.64,568.24 370.77,565.28 367.86,566.25C360.73,572.6 363.71,584.3 368.24,591.09" stroke-width="9.28"/>
<path d="M375.74,585.34C374.07,587 370.56,590.71 368.24,591.09" stroke-width="9.03"/>
<path d="M368.24,591.09C368.24,601 368.66,611.4 367.99,621.3C367.81,623.9 365.5,626.43 364.77,628.97C363.54,633.26 364.59,637.59 365.24,641.84" stroke-width="15"/>
<path d="M365.24,641.84C363.64,642.9 361.85,643.47 360.49,644.84" stroke-width="3.67"/>
<path d="M365.24,641.84C366.7,643.3 367.93,644.8 368.99,646.59" stroke-width="11.97"/>
<path d="M375.49,642.59C373.87,644.2 371.28,646.22 368.99,646.59" stroke-width="7.24"/>
<path d="M368.99,646.59C368,653.11 369.29,659.65 368.74,666.15C367.51,680.47 368.11,695.07 368.22,709.53C368.41,735.95 368.53,762.79 367.99,789.15C367.21,826.68 369.42,864.9 367.74,902.58C367.18,915 368.86,928.03 367.74,940.5C366.96,949.11 366.91,958.58 367.32,967.18C367.53,971.59 370.42,975.84 370.63,980.53C370.84,984.96 368.08,988.02 367.49,992.06C366.55,998.36 367.83,1005.3 367.74,1011.57C367.63,1018.68 367.49,1025.91 367.49,1033.09" stroke-width="15"/>
<path d="M367.49,1033.09C364.8,1034.37 361.86,1037.96 359.74,1040.09" stroke-width="6.62"/>
<path d="M367.49,1033.09C369.93,1035.53 372.27,1038.12 374.74,1040.59" stroke-width="7.75"/>
<path d="M575.07,1146.84C571.43,1150.47 568.56,1155.32 564.09,1158.16C562.31,1157.94 561.22,1156.15 559.66,1155.32C558.75,1154.83 557.76,1154.9 556.82,1154.59" stroke-width="6.03"/>
<path d="M556.82,1154.59C556.5,1154.79 556.67,1154.71 556.32,1154.84" stroke-width="0.6"/>
</g>
<g fill="none" stroke="#51ce2c" stroke-linecap="round" stroke-linejoin="round">
<path d="M853.47,585C846.33,579.43 844.93,571.06 840.86,563.45C837.03,556.3 832.69,549.3 827.94,542.71C803.45,508.76 763.02,497.92 723.18,506.75C713.55,508.88 691.22,514.57 691.22,527.21C693.14,534.29 705.16,534.31 710.94,535.32C716.68,536.32 722.55,538.03 728.16,539.64C756.02,547.64 782.1,560.17 804.02,579.29C810.92,585.31 822.47,594.12 822.47,604.25" stroke-width="15.12"/>
<path d="M853.47,585C863.43,579.37 866.41,564.12 872.85,555.18C884.67,538.79 898.24,526.03 914.58,514.26C939.93,495.99 976.52,487.74 1006.1,499C1011.89,501.2 1021.61,505.5 1020.6,513.11C1018.23,520.06 1005.88,520.89 999.84,522.62C991.61,524.99 983.61,527.82 975.61,530.87C949.34,540.86 923.74,557.98 903.93,577.79C897.91,583.81 889.66,590.68 885.97,598.5" stroke-width="15.3"/>
<path d="M853.47,585C854.52,591.6 852.58,597.75 851.74,604.2C851.22,608.17 851.27,612.92 848.72,616.25" stroke-width="15.78"/>
<path d="M885.97,598.5C880.82,599.32 877.08,605.21 872.22,606" stroke-width="8.52"/>
<path d="M885.97,598.5C894.4,613.44 920.24,602.1 933.87,602C949.07,601.88 963.43,604.47 977.67,609.89C996.18,616.94 1014.21,629.21 1027.58,643.86C1038.92,656.26 1049.63,668.7 1051.97,685.96C1052.69,691.24 1054.14,699.81 1049.21,703.58C1039.22,707.88 1022.78,691.41 1015.73,685.58C1007.27,678.59 997.32,672.04 987.58,666.98C975.62,660.78 963.71,655.02 950.99,650.5C943.32,647.78 935.22,646.95 927.47,644.75" stroke-width="15.03"/>
<path d="M822.47,604.25C827.36,605.87 833.35,610.82 837.44,613.97C839.34,615.44 840.93,617.24 843.39,617.72C845.22,618.07 847.07,616.8 848.72,616.25" stroke-width="7.33"/>
<path d="M822.47,604.25C819.68,605.82 816.26,608.07 812.9,607.97C810.55,607.9 807.96,606.22 805.73,605.58C799.72,603.86 793.44,602.98 787.24,602.5C767.41,600.94 746.72,606.26 728.97,615.16C714.69,622.33 699.29,630.56 688.91,643.09C675,659.88 665.31,679.72 662.38,701.52C661.44,708.54 657.85,721.83 665.78,726.18C671.52,726.57 675.29,721.51 678.6,717.62C682.89,712.59 687.48,707.82 692.07,703.15C699.54,695.54 707.9,688.7 716.34,682.13C729.28,672.06 743.43,663.55 757.53,655.29C768.74,648.73 781.79,646.11 789.47,634.75" stroke-width="15.21"/>
<path d="M848.72,616.25C849.71,617.35 850.23,621.2 850.47,622.75" stroke-width="10.49"/>
<path d="M919.22,636.75C921.91,639.43 924.75,642.02 927.47,644.75" stroke-width="7.75"/>
<path d="M927.47,644.75C925.17,646.8 922.4,650.27 919.47,651.25" stroke-width="3.26"/>
</g>
<g fill="none" stroke="#fe3741" stroke-linecap="round" stroke-linejoin="round">
<path d="M374.49,577.8C392.69,577.8 410.94,581.95 428.84,585.42C439.64,587.51 465.1,590.15 467.68,603.49C465.8,612.64 451.84,618.5 444.04,621.86C423.59,630.65 399.13,637.72 376.74,634.3" stroke-width="15.05"/>
<path d="M571.72,1140.08C575.13,1129.84 579.75,1119.78 583.6,1109.68C588.9,1095.77 592.9,1081.26 597.01,1066.97C599.07,1059.76 606.3,1044.2 601.88,1037.27C594.81,1033.76 582.75,1037.29 575.28,1038.31C560.89,1040.27 546.3,1041.05 531.9,1042.58C512.54,1044.64 492.97,1044.84 473.53,1046.08C459.14,1047 444.23,1048.23 429.84,1047.58C410.77,1046.72 391.21,1049.9 372.17,1048.33C360.49,1047.37 348.74,1048.08 337.1,1047.54C305.2,1046.07 273.26,1044.99 241.38,1043.08C230.63,1042.44 219.55,1042.49 208.89,1041.08C191.73,1038.81 174.29,1038.38 157.07,1036.83C150.77,1036.26 138.75,1032.72 133.3,1036.85C132.06,1051.35 140.36,1068.01 144.92,1081.69C149.14,1094.34 153.16,1107.25 158.37,1119.55C159.97,1123.32 161.43,1130.28 164.34,1133.16C167.24,1136.04 172.15,1139.32 175.72,1141.33" stroke-width="15.03"/>
<path d="M571.72,1140.08C570.34,1140.31 568.95,1142.35 567.98,1143.32C564.78,1146.51 560.77,1152.13 556.72,1154.08" stroke-width="9.7"/>
<path d="M571.72,1140.08C573.55,1141.91 575.38,1143.75 577.22,1145.58" stroke-width="7.41"/>
</g>
<g fill="none" stroke="#fd8802" stroke-linecap="round" stroke-linejoin="round">
<path d="M872.14,606.28C872.14,608.26 872.81,611.02 873.64,612.78" stroke-width="5.72"/>
<path d="M873.64,612.78C873.53,613.11 873.53,612.95 873.64,613.28" stroke-width="12.5"/>
<path d="M873.89,613.03C874.01,613.36 874.01,613.2 873.89,613.53" stroke-width="13"/>
<path d="M873.64,614.03C869.96,616.53 865.49,617.32 862.21,620.71C858.27,624.8 855.97,629.95 851.89,634.03" stroke-width="14.12"/>
<path d="M873.64,614.03C873.98,614.14 873.81,614.14 874.14,614.03" stroke-width="14.5"/>
<path d="M874.14,614.03C875.89,614.34 877.56,613.43 879.31,613.28C883.83,612.89 889.1,613.72 893.34,615.34C912.67,622.78 918.21,647.1 905.52,662.6C899.39,670.07 890.67,669.93 882.89,674.28" stroke-width="14.45"/>
<path d="M851.89,634.03C836.81,622.2 809.9,612.97 797.85,634.48C788.57,651.03 794.85,675.1 813.39,682.2C821.82,685.42 831.31,683.26 839.64,680.78" stroke-width="14.51"/>
<path d="M851.89,634.03C854.17,642.19 853.35,651.07 855.64,659.28" stroke-width="16.7"/>
<path d="M855.64,659.28C849.38,665.55 845.72,674.17 839.64,680.78" stroke-width="14.86"/>
<path d="M855.64,659.28C860.41,661.95 864.08,665.89 868.82,668.56C873.29,671.08 878.42,671.78 882.89,674.28" stroke-width="15.04"/>
<path d="M882.89,674.28C882.89,682.44 887.34,689.01 890.2,696.48C894.01,706.46 897.03,716.54 899.83,726.85C901.61,733.39 903.86,740.64 901.64,747.28" stroke-width="15.13"/>
<path d="M839.64,680.78C843.51,685.72 844.98,691.5 845.92,697.61C847.31,706.59 849.16,715.46 850.39,724.41C851.73,734.04 850.47,743.97 854.39,753.03" stroke-width="14.86"/>
<path d="M901.64,747.28C894.15,747.77 887.77,752.77 880.35,753.78C871.54,754.98 863.24,753.03 854.39,753.03" stroke-width="15"/>
<path d="M901.64,747.28C908.58,754.22 907.66,768.79 908.89,777.88C910.07,786.55 913,797.45 909.39,805.78" stroke-width="15.39"/>
<path d="M854.39,753.03C850.19,760.85 851.95,771.67 851.64,780.3C851.34,789 847.8,799.45 851.39,807.78" stroke-width="15"/>
<path d="M909.39,805.78C900.22,805.78 891.11,810.22 881.93,811.2C871.34,812.32 861.72,807.78 851.39,807.78" stroke-width="15.16"/>
<path d="M909.39,805.78C915.2,813.22 911.97,824.53 913.14,833.18C914.37,842.24 916.31,857.3 911.89,865.53" stroke-width="15"/>
<path d="M851.39,807.78C846.98,813.41 847.04,822.65 846.08,829.47C844.53,840.56 840,852.06 841.64,863.28" stroke-width="15.84"/>
<path d="M841.64,863.28C845.69,863.54 849.41,865.63 853.26,866.73C860.13,868.71 868.1,870.47 875.19,870.53C887.69,870.64 899.57,865.53 911.89,865.53" stroke-width="15.07"/>
<path d="M841.64,863.28C836.78,869.48 835.92,878.62 833.81,886.04C831,895.9 826.64,906.23 826.64,916.53" stroke-width="15.85"/>
<path d="M911.89,865.53C916.19,873.14 913.56,884.6 913.14,892.93C912.66,902.57 913.73,915.41 908.14,923.78" stroke-width="14.87"/>
<path d="M826.64,916.53C831.99,918.08 836.82,921.17 842.1,922.93C851.6,926.1 862.35,927.28 872.3,927.28C878.44,927.28 884.77,926.67 890.79,925.53C896.29,924.49 902.57,922.19 908.14,923.78" stroke-width="15"/>
<path d="M826.64,916.53C819.76,924.13 817.74,936.02 813.79,945.36C811.01,951.9 808.49,958.69 805.24,965C802.79,969.75 799.38,974.9 797.89,980.03" stroke-width="15.03"/>
<path d="M908.14,923.78C912.43,931.64 907.8,944.58 906.39,952.79C904.96,961.21 904.55,972.15 900.39,979.78" stroke-width="14.62"/>
<path d="M839.42,1085.73C839.75,1085.73 840.08,1085.73 840.42,1085.73" stroke-width="15.3"/>
</g>
<g fill="none" stroke="#0695fd" stroke-linecap="round" stroke-linejoin="round">
<path d="M360.25,645.03C360.94,647.88 357.9,651.77 356.77,654.39C355.67,656.93 355.06,659.81 353.77,662.24C351.99,665.6 348.22,668.46 345.72,671.32C340,677.85 334.13,684.4 328.8,691.24C312.02,712.75 294.36,734.12 279.22,756.84C259.14,786.95 239.65,817.15 220.69,848.01C208.64,867.62 199.11,888.54 187.83,908.54C181.33,920.08 175.98,932.52 170.74,944.69C168.26,950.44 160.07,962.97 163.84,969.12C169.28,973.15 176.39,972.08 182.71,972.78C194.66,974.11 206.64,974.56 218.63,975.58C264.6,979.48 310.61,979.53 356.75,979.53" stroke-width="15.13"/>
<path d="M160.21,1140.44C160.21,1141.15 160.1,1141.59 159.71,1142.19" stroke-width="1.93"/>
<path d="M159.71,1142.19C159.6,1142.52 159.6,1142.35 159.71,1142.69" stroke-width="4"/>
<path d="M159.71,1142.19C159.82,1142.52 159.82,1142.35 159.71,1142.69" stroke-width="4"/>
<path d="M159.71,1142.69C159.71,1144.47 159.46,1146.15 159.46,1147.94" stroke-width="9.6"/>
<path d="M159.46,1147.94C155.2,1149.16 150.22,1149.13 145.82,1149.73C137.66,1150.85 129.45,1153.09 121.7,1155.86C109.3,1160.28 98.98,1167.94 87.21,1173.44" stroke-width="14.91"/>
<path d="M159.46,1147.94C163.64,1149.16 168.72,1147.87 173.06,1148.47C182.82,1149.83 192.07,1151.44 201.4,1155C214.02,1159.82 224.68,1168.07 236.83,1173.81C254.06,1181.94 273.79,1185.8 292.75,1183.44C333.41,1178.37 366.77,1143.46 409.21,1148.44C421.24,1149.85 432.24,1152.5 443.43,1157.34C455.45,1162.55 465.99,1170.55 478.31,1175.22C497.93,1182.66 518.68,1180.24 537.68,1172.28C542.43,1170.29 548.38,1168.38 552.46,1165.19" stroke-width="14.71"/>
<path d="M555.96,1157.44C554.58,1159.5 552.52,1162.64 552.46,1165.19" stroke-width="10.69"/>
<path d="M552.46,1165.19C564.29,1173.07 574.79,1157.81 582.39,1151.59C588.17,1146.85 602.68,1145.58 609.81,1145.19C625.13,1144.34 640.94,1146.55 654.96,1153.36C663.72,1157.61 671.55,1163.73 680.35,1167.82C688.54,1171.63 696.78,1173.63 705.7,1174.69C724.29,1176.88 740.07,1164.65 755.83,1157.31C770.05,1150.69 784.97,1144.17 801.04,1144.83C812.59,1145.3 823.96,1147.25 834.53,1152.4C845.28,1157.64 854.5,1165.21 864.81,1171.17C874.55,1176.8 885.16,1178.68 896.1,1179.69C930.02,1182.81 956,1147.41 990.35,1152.19C1000.1,1153.54 1009.39,1155.6 1017.94,1160.85C1026.43,1166.05 1033.75,1173.88 1043.88,1175.91C1050.76,1177.29 1055.16,1175.15 1061.71,1174.19" stroke-width="14.67"/>
<path d="M760.05,1283.19C755.89,1286.98 750,1289.45 745.08,1292.1C724.16,1303.35 699.07,1305.52 677.11,1296.05C664.42,1290.57 653.83,1281.23 642,1274.24C628.9,1266.51 613.95,1261.39 598.83,1260.19C571.59,1258.03 549.05,1275.73 526.16,1287.45C515.6,1292.86 504.67,1295.74 492.97,1296.94C456.49,1300.7 433.48,1263.43 399.27,1258.69C380.34,1256.07 361.45,1261 344.8,1270.36C333.9,1276.49 323.4,1283.49 311.89,1288.47C306.06,1290.99 299.72,1292.76 293.44,1293.69C289.96,1294.21 285.88,1293.72 282.55,1294.69" stroke-width="14.75"/>
<path d="M118.55,1287.94C139.97,1266.52 178.43,1252.06 207.75,1263.26C225.32,1269.97 239.45,1282.48 256.65,1289.93C265.11,1293.59 274.15,1292.24 282.55,1294.69" stroke-width="14.68"/>
<path d="M282.55,1294.69C282.55,1297.11 282.55,1299.52 282.55,1301.94" stroke-width="7.5"/>
</g>
</svg>
